<svg width="52" height="53" viewBox="0 0 52 53" fill="none" xmlns="http://www.w3.org/2000/svg">
<path d="M46.7356 0.0292969H4.78247C2.14777 0.0292969 0.0118408 1.82529 0.0118408 4.04077V48.062C0.0118408 50.2774 2.14777 52.0734 4.78247 52.0734H46.7356C49.3703 52.0734 51.5061 50.2774 51.5061 48.062V4.04077C51.5061 1.82529 49.3703 0.0292969 46.7356 0.0292969Z" fill="#978E85"/>
<path d="M51.4819 3.89355H40.2025V38.4573H51.4819V3.89355Z" fill="#F4EBE2"/>
<path fill-rule="evenodd" clip-rule="evenodd" d="M42.3634 6.90866L51.4573 3.93716C51.096 1.08033 49.1281 0.09147 46.3885 0C42.7431 0.10572 39.1858 0.260118 37.2947 1.33713L42.3634 6.90866Z" fill="url(#paint0_linear_806_4393)"/>
<path d="M42.5743 39.0879H9.10498V52.0624H42.5743V39.0879Z" fill="#D0C5B9"/>
<path fill-rule="evenodd" clip-rule="evenodd" d="M40.6639 36.041L51.469 37.1966L51.5085 47.7023C51.5029 50.4118 49.3417 51.9685 47.1074 52.0622L42.2977 52.0097L36.9744 39.6655L40.6639 36.041Z" fill="url(#paint1_linear_806_4393)"/>
<path fill-rule="evenodd" clip-rule="evenodd" d="M7.52405 35.9355L0.0395508 37.1962L0 47.7019C0.0056 50.4114 2.16682 51.9681 4.40112 52.0618L9.21057 52.0093L10.8973 39.7176L7.52405 35.9355Z" fill="url(#paint2_linear_806_4393)"/>
<path d="M38.2994 1H11.7006C9.10453 1 7 3.11561 7 5.72536V36.2746C7 38.8844 8.90388 41.5 11.5 41.5H38C40.5961 41.5 43 38.8844 43 36.2746V5.72536C43 3.11561 40.8955 1 38.2994 1Z" fill="#F1F1F1"/>
<path d="M37.294 1H11.7058C9.10685 1 7 3.11561 7 5.72536V36.2746C7 38.8844 9.10685 41 11.7058 41H37.294C39.893 41 42 38.8844 42 36.2746V5.72536C42 3.11561 39.893 1 37.294 1Z" fill="url(#paint3_linear_806_4393)"/>
<path d="M14.2955 4.67898C14.7131 4.68229 15.1307 4.76184 15.5483 4.91761C15.9659 5.07339 16.3471 5.33191 16.6918 5.69318C17.0365 6.05114 17.3132 6.54001 17.522 7.1598C17.7308 7.77959 17.8352 8.55682 17.8352 9.49148C17.8352 10.3963 17.7491 11.2 17.5767 11.9027C17.4077 12.602 17.1624 13.192 16.8409 13.6726C16.5227 14.1532 16.1349 14.5178 15.6776 14.7663C15.2235 15.0149 14.7098 15.1392 14.1364 15.1392C13.5663 15.1392 13.0575 15.0265 12.6101 14.8011C12.166 14.5724 11.8014 14.2559 11.5163 13.8516C11.2346 13.4439 11.054 12.9716 10.9744 12.4347H12.1875C12.2969 12.902 12.514 13.2881 12.8388 13.593C13.1669 13.8946 13.5994 14.0455 14.1364 14.0455C14.9219 14.0455 15.5417 13.7024 15.9957 13.0163C16.4531 12.3303 16.6818 11.3608 16.6818 10.108H16.6023C16.4167 10.3864 16.1963 10.6267 15.9411 10.8288C15.6858 11.031 15.4025 11.1868 15.0909 11.2962C14.7794 11.4055 14.4479 11.4602 14.0966 11.4602C13.5133 11.4602 12.978 11.3161 12.4908 11.0277C12.0069 10.736 11.6191 10.3366 11.3274 9.82955C11.0391 9.31913 10.8949 8.7358 10.8949 8.07955C10.8949 7.45644 11.0341 6.88636 11.3125 6.36932C11.5942 5.84896 11.9886 5.43466 12.4957 5.12642C13.0062 4.81818 13.6061 4.66903 14.2955 4.67898ZM14.2955 5.77273C13.8778 5.77273 13.5017 5.87713 13.1669 6.08594C12.8355 6.29143 12.572 6.56984 12.3764 6.92116C12.1842 7.26918 12.0881 7.6553 12.0881 8.07955C12.0881 8.50379 12.1809 8.88991 12.3665 9.23793C12.5554 9.58262 12.8123 9.85772 13.1371 10.0632C13.4652 10.2654 13.8381 10.3665 14.2557 10.3665C14.5705 10.3665 14.8639 10.3052 15.1357 10.1825C15.4074 10.0566 15.6444 9.88589 15.8466 9.67045C16.0521 9.4517 16.2128 9.20478 16.3288 8.92969C16.4448 8.65128 16.5028 8.36127 16.5028 8.05966C16.5028 7.66193 16.4067 7.28906 16.2145 6.94105C16.0256 6.59304 15.7637 6.31132 15.429 6.09588C15.0975 5.88044 14.7197 5.77273 14.2955 5.77273Z" fill="#48403F"/>
<path d="M46.7356 0.0292969H4.78247C2.14777 0.0292969 0.0118408 1.82529 0.0118408 4.04077V48.062C0.0118408 50.2774 2.14777 52.0734 4.78247 52.0734H46.7356C49.3703 52.0734 51.5061 50.2774 51.5061 48.062V4.04077C51.5061 1.82529 49.3703 0.0292969 46.7356 0.0292969Z" fill="#978E85"/>
<path d="M51.4819 3.89355H40.2025V38.4573H51.4819V3.89355Z" fill="#F4EBE2"/>
<path fill-rule="evenodd" clip-rule="evenodd" d="M42.3634 6.90866L51.4573 3.93716C51.096 1.08033 49.1281 0.09147 46.3885 0C42.7431 0.10572 39.1858 0.260118 37.2947 1.33713L42.3634 6.90866Z" fill="url(#paint4_linear_806_4393)"/>
<path d="M42.5743 39.0879H9.10498V52.0624H42.5743V39.0879Z" fill="#D0C5B9"/>
<path fill-rule="evenodd" clip-rule="evenodd" d="M40.6639 36.041L51.469 37.1966L51.5085 47.7023C51.5029 50.4118 49.3417 51.9685 47.1074 52.0622L42.2977 52.0097L36.9744 39.6655L40.6639 36.041Z" fill="url(#paint5_linear_806_4393)"/>
<path fill-rule="evenodd" clip-rule="evenodd" d="M7.52405 35.9355L0.0395508 37.1962L0 47.7019C0.0056 50.4114 2.16682 51.9681 4.40112 52.0618L9.21057 52.0093L10.8973 39.7176L7.52405 35.9355Z" fill="url(#paint6_linear_806_4393)"/>
<path d="M38.2994 1H11.7006C9.10453 1 7 3.11561 7 5.72536V36.2746C7 38.8844 8.90388 41.5 11.5 41.5H38C40.5961 41.5 43 38.8844 43 36.2746V5.72536C43 3.11561 40.8955 1 38.2994 1Z" fill="#F1F1F1"/>
<path d="M37.294 1H11.7058C9.10685 1 7 3.11561 7 5.72536V36.2746C7 38.8844 9.10685 41 11.7058 41H37.294C39.893 41 42 38.8844 42 36.2746V5.72536C42 3.11561 39.893 1 37.294 1Z" fill="url(#paint7_linear_806_4393)"/>
<path d="M14.2955 4.67898C14.7131 4.68229 15.1307 4.76184 15.5483 4.91761C15.9659 5.07339 16.3471 5.33191 16.6918 5.69318C17.0365 6.05114 17.3132 6.54001 17.522 7.1598C17.7308 7.77959 17.8352 8.55682 17.8352 9.49148C17.8352 10.3963 17.7491 11.2 17.5767 11.9027C17.4077 12.602 17.1624 13.192 16.8409 13.6726C16.5227 14.1532 16.1349 14.5178 15.6776 14.7663C15.2235 15.0149 14.7098 15.1392 14.1364 15.1392C13.5663 15.1392 13.0575 15.0265 12.6101 14.8011C12.166 14.5724 11.8014 14.2559 11.5163 13.8516C11.2346 13.4439 11.054 12.9716 10.9744 12.4347H12.1875C12.2969 12.902 12.514 13.2881 12.8388 13.593C13.1669 13.8946 13.5994 14.0455 14.1364 14.0455C14.9219 14.0455 15.5417 13.7024 15.9957 13.0163C16.4531 12.3303 16.6818 11.3608 16.6818 10.108H16.6023C16.4167 10.3864 16.1963 10.6267 15.9411 10.8288C15.6858 11.031 15.4025 11.1868 15.0909 11.2962C14.7794 11.4055 14.4479 11.4602 14.0966 11.4602C13.5133 11.4602 12.978 11.3161 12.4908 11.0277C12.0069 10.736 11.6191 10.3366 11.3274 9.82955C11.0391 9.31913 10.8949 8.7358 10.8949 8.07955C10.8949 7.45644 11.0341 6.88636 11.3125 6.36932C11.5942 5.84896 11.9886 5.43466 12.4957 5.12642C13.0062 4.81818 13.6061 4.66903 14.2955 4.67898ZM14.2955 5.77273C13.8778 5.77273 13.5017 5.87713 13.1669 6.08594C12.8355 6.29143 12.572 6.56984 12.3764 6.92116C12.1842 7.26918 12.0881 7.6553 12.0881 8.07955C12.0881 8.50379 12.1809 8.88991 12.3665 9.23793C12.5554 9.58262 12.8123 9.85772 13.1371 10.0632C13.4652 10.2654 13.8381 10.3665 14.2557 10.3665C14.5705 10.3665 14.8639 10.3052 15.1357 10.1825C15.4074 10.0566 15.6444 9.88589 15.8466 9.67045C16.0521 9.4517 16.2128 9.20478 16.3288 8.92969C16.4448 8.65128 16.5028 8.36127 16.5028 8.05966C16.5028 7.66193 16.4067 7.28906 16.2145 6.94105C16.0256 6.59304 15.7637 6.31132 15.429 6.09588C15.0975 5.88044 14.7197 5.77273 14.2955 5.77273Z" fill="#48403F"/>
<path d="M46.7356 0.0869141H4.78247C2.14777 0.0869141 0.0118408 1.88687 0.0118408 4.10722V48.2253C0.0118408 50.4457 2.14777 52.2456 4.78247 52.2456H46.7356C49.3703 52.2456 51.5061 50.4457 51.5061 48.2253V4.10722C51.5061 1.88687 49.3703 0.0869141 46.7356 0.0869141Z" fill="#978E85"/>
<path d="M51.4819 3.95898H40.2025V38.5989H51.4819V3.95898Z" fill="#F4EBE2"/>
<path fill-rule="evenodd" clip-rule="evenodd" d="M42.3634 6.98149L51.4573 4.00345C51.096 1.14033 49.1281 0.149289 46.3885 0.0576172C42.7431 0.16357 39.1858 0.318307 37.2947 1.39769L42.3634 6.98149Z" fill="url(#paint8_linear_806_4393)"/>
<path d="M42.5743 39.2314H9.10498V52.2346H42.5743V39.2314Z" fill="#D0C5B9"/>
<path fill-rule="evenodd" clip-rule="evenodd" d="M40.6639 36.1777L51.469 37.3359L51.5085 47.8647C51.5029 50.5801 49.3417 52.1402 47.1074 52.2342L42.2977 52.1815L36.9744 39.8102L40.6639 36.1777Z" fill="url(#paint9_linear_806_4393)"/>
<path fill-rule="evenodd" clip-rule="evenodd" d="M7.52405 36.0723L0.0395508 37.3357L0 47.8646C0.0056 50.58 2.16682 52.1401 4.40112 52.234L9.21057 52.1814L10.8973 39.8626L7.52405 36.0723Z" fill="url(#paint10_linear_806_4393)"/>
<path d="M38.2994 1.05957H11.7006C9.10453 1.05957 7 3.17984 7 5.79533V36.4119C7 39.0274 8.90388 41.6487 11.5 41.6487H38C40.5961 41.6487 43 39.0274 43 36.4119V5.79533C43 3.17984 40.8955 1.05957 38.2994 1.05957Z" fill="#F1F1F1"/>
<path d="M37.294 1.05957H11.7058C9.10685 1.05957 7 3.17984 7 5.79533V36.4119C7 39.0274 9.10685 41.1476 11.7058 41.1476H37.294C39.893 41.1476 42 39.0274 42 36.4119V5.79533C42 3.17984 39.893 1.05957 37.294 1.05957Z" fill="url(#paint11_linear_806_4393)"/>
<path d="M14.2955 4.73855C14.7131 4.74186 15.1307 4.82141 15.5483 4.97718C15.9659 5.13296 16.3471 5.39148 16.6918 5.75275C17.0365 6.11071 17.3132 6.59958 17.522 7.21937C17.7308 7.83916 17.8352 8.61639 17.8352 9.55105C17.8352 10.4559 17.7491 11.2596 17.5767 11.9623C17.4077 12.6616 17.1624 13.2516 16.8409 13.7322C16.5227 14.2127 16.1349 14.5773 15.6776 14.8259C15.2235 15.0745 14.7098 15.1988 14.1364 15.1988C13.5663 15.1988 13.0575 15.0861 12.6101 14.8607C12.166 14.632 11.8014 14.3155 11.5163 13.9111C11.2346 13.5035 11.054 13.0312 10.9744 12.4942H12.1875C12.2969 12.9616 12.514 13.3477 12.8388 13.6526C13.1669 13.9542 13.5994 14.105 14.1364 14.105C14.9219 14.105 15.5417 13.762 15.9957 13.0759C16.4531 12.3898 16.6818 11.4204 16.6818 10.1675H16.6023C16.4167 10.4459 16.1963 10.6862 15.9411 10.8884C15.6858 11.0906 15.4025 11.2464 15.0909 11.3557C14.7794 11.4651 14.4479 11.5198 14.0966 11.5198C13.5133 11.5198 12.978 11.3756 12.4908 11.0873C12.0069 10.7956 11.6191 10.3962 11.3274 9.88912C11.0391 9.3787 10.8949 8.79537 10.8949 8.13912C10.8949 7.51601 11.0341 6.94593 11.3125 6.42889C11.5942 5.90853 11.9886 5.49423 12.4957 5.18599C13.0062 4.87775 13.6061 4.7286 14.2955 4.73855ZM14.2955 5.8323C13.8778 5.8323 13.5017 5.9367 13.1669 6.14551C12.8355 6.351 12.572 6.62941 12.3764 6.98073C12.1842 7.32875 12.0881 7.71487 12.0881 8.13912C12.0881 8.56336 12.1809 8.94948 12.3665 9.2975C12.5554 9.64219 12.8123 9.91729 13.1371 10.1228C13.4652 10.325 13.8381 10.426 14.2557 10.426C14.5705 10.426 14.8639 10.3647 15.1357 10.2421C15.4074 10.1162 15.6444 9.94546 15.8466 9.73002C16.0521 9.51127 16.2128 9.26435 16.3288 8.98926C16.4448 8.71085 16.5028 8.42084 16.5028 8.11923C16.5028 7.7215 16.4067 7.34863 16.2145 7.00062C16.0256 6.65261 15.7637 6.37089 15.429 6.15545C15.0975 5.94001 14.7197 5.8323 14.2955 5.8323Z" fill="#48403F"/>
<defs>
<linearGradient id="paint0_linear_806_4393" x1="43.7434" y1="4.08465" x2="43.115" y2="1.45727" gradientUnits="userSpaceOnUse">
<stop stop-color="#F4EBE2"/>
<stop offset="1" stop-color="#978E85"/>
</linearGradient>
<linearGradient id="paint1_linear_806_4393" x1="47.5208" y1="43.2892" x2="43.3479" y2="46.5597" gradientUnits="userSpaceOnUse">
<stop stop-color="#F4EBE2"/>
<stop offset="1" stop-color="#D0C5B9"/>
</linearGradient>
<linearGradient id="paint2_linear_806_4393" x1="2.79501" y1="42.843" x2="7.56468" y2="46.1149" gradientUnits="userSpaceOnUse">
<stop stop-color="#978E85"/>
<stop offset="1" stop-color="#D0C5B9"/>
</linearGradient>
<linearGradient id="paint3_linear_806_4393" x1="17.6603" y1="21" x2="33.4197" y2="21" gradientUnits="userSpaceOnUse">
<stop stop-color="#ECE0D4"/>
<stop offset="0.482638" stop-color="#DDD4CB"/>
<stop offset="1" stop-color="#C3B9AF"/>
</linearGradient>
<linearGradient id="paint4_linear_806_4393" x1="43.7434" y1="4.08465" x2="43.115" y2="1.45727" gradientUnits="userSpaceOnUse">
<stop stop-color="#F4EBE2"/>
<stop offset="1" stop-color="#978E85"/>
</linearGradient>
<linearGradient id="paint5_linear_806_4393" x1="47.5208" y1="43.2892" x2="43.3479" y2="46.5597" gradientUnits="userSpaceOnUse">
<stop stop-color="#F4EBE2"/>
<stop offset="1" stop-color="#D0C5B9"/>
</linearGradient>
<linearGradient id="paint6_linear_806_4393" x1="2.79501" y1="42.843" x2="7.56468" y2="46.1149" gradientUnits="userSpaceOnUse">
<stop stop-color="#978E85"/>
<stop offset="1" stop-color="#D0C5B9"/>
</linearGradient>
<linearGradient id="paint7_linear_806_4393" x1="17.6603" y1="21" x2="33.4197" y2="21" gradientUnits="userSpaceOnUse">
<stop stop-color="#ECE0D4"/>
<stop offset="0.482638" stop-color="#DDD4CB"/>
<stop offset="1" stop-color="#C3B9AF"/>
</linearGradient>
<linearGradient id="paint8_linear_806_4393" x1="43.7434" y1="4.15126" x2="43.1124" y2="1.51872" gradientUnits="userSpaceOnUse">
<stop stop-color="#F4EBE2"/>
<stop offset="1" stop-color="#978E85"/>
</linearGradient>
<linearGradient id="paint9_linear_806_4393" x1="47.5208" y1="43.4418" x2="43.3409" y2="46.7107" gradientUnits="userSpaceOnUse">
<stop stop-color="#F4EBE2"/>
<stop offset="1" stop-color="#D0C5B9"/>
</linearGradient>
<linearGradient id="paint10_linear_806_4393" x1="2.79501" y1="42.995" x2="7.57139" y2="46.2643" gradientUnits="userSpaceOnUse">
<stop stop-color="#978E85"/>
<stop offset="1" stop-color="#D0C5B9"/>
</linearGradient>
<linearGradient id="paint11_linear_806_4393" x1="17.6603" y1="21.1036" x2="33.4197" y2="21.1036" gradientUnits="userSpaceOnUse">
<stop stop-color="#ECE0D4"/>
<stop offset="0.482638" stop-color="#DDD4CB"/>
<stop offset="1" stop-color="#C3B9AF"/>
</linearGradient>
</defs>
</svg>
