<svg width="52" height="53" viewBox="0 0 52 53" fill="none" xmlns="http://www.w3.org/2000/svg">
<path d="M46.7356 0.0292969H4.78247C2.14777 0.0292969 0.0118408 1.82529 0.0118408 4.04077V48.062C0.0118408 50.2774 2.14777 52.0734 4.78247 52.0734H46.7356C49.3703 52.0734 51.5061 50.2774 51.5061 48.062V4.04077C51.5061 1.82529 49.3703 0.0292969 46.7356 0.0292969Z" fill="#978E85"/>
<path d="M51.4819 3.89355H40.2025V38.4573H51.4819V3.89355Z" fill="#F4EBE2"/>
<path fill-rule="evenodd" clip-rule="evenodd" d="M42.3634 6.90866L51.4573 3.93716C51.096 1.08033 49.1281 0.09147 46.3885 0C42.7431 0.10572 39.1858 0.260118 37.2947 1.33713L42.3634 6.90866Z" fill="url(#paint0_linear_806_4384)"/>
<path d="M42.5743 39.0879H9.10498V52.0624H42.5743V39.0879Z" fill="#D0C5B9"/>
<path fill-rule="evenodd" clip-rule="evenodd" d="M40.6639 36.041L51.469 37.1966L51.5085 47.7023C51.5029 50.4118 49.3417 51.9685 47.1074 52.0622L42.2977 52.0097L36.9744 39.6655L40.6639 36.041Z" fill="url(#paint1_linear_806_4384)"/>
<path fill-rule="evenodd" clip-rule="evenodd" d="M7.52405 35.9355L0.0395508 37.1962L0 47.7019C0.0056 50.4114 2.16682 51.9681 4.40112 52.0618L9.21057 52.0093L10.8973 39.7176L7.52405 35.9355Z" fill="url(#paint2_linear_806_4384)"/>
<path d="M38.2994 1H11.7006C9.10453 1 7 3.11561 7 5.72536V36.2746C7 38.8844 8.90388 41.5 11.5 41.5H38C40.5961 41.5 43 38.8844 43 36.2746V5.72536C43 3.11561 40.8955 1 38.2994 1Z" fill="#F1F1F1"/>
<path d="M37.294 1H11.7058C9.10685 1 7 3.11561 7 5.72536V36.2746C7 38.8844 9.10685 41 11.7058 41H37.294C39.893 41 42 38.8844 42 36.2746V5.72536C42 3.11561 39.893 1 37.294 1Z" fill="url(#paint3_linear_806_4384)"/>
<path d="M11.929 15.0795C11.6837 15.0795 11.4732 14.9917 11.2976 14.8161C11.1219 14.6404 11.0341 14.4299 11.0341 14.1847C11.0341 13.9394 11.1219 13.7289 11.2976 13.5533C11.4732 13.3776 11.6837 13.2898 11.929 13.2898C12.1742 13.2898 12.3847 13.3776 12.5604 13.5533C12.736 13.7289 12.8239 13.9394 12.8239 14.1847C12.8239 14.3471 12.7824 14.4962 12.6996 14.6321C12.62 14.768 12.5123 14.8774 12.3764 14.9602C12.2438 15.0398 12.0947 15.0795 11.929 15.0795Z" fill="#48403F"/>
<defs>
<linearGradient id="paint0_linear_806_4384" x1="43.7434" y1="4.08465" x2="43.115" y2="1.45727" gradientUnits="userSpaceOnUse">
<stop stop-color="#F4EBE2"/>
<stop offset="1" stop-color="#978E85"/>
</linearGradient>
<linearGradient id="paint1_linear_806_4384" x1="47.5208" y1="43.2892" x2="43.3479" y2="46.5597" gradientUnits="userSpaceOnUse">
<stop stop-color="#F4EBE2"/>
<stop offset="1" stop-color="#D0C5B9"/>
</linearGradient>
<linearGradient id="paint2_linear_806_4384" x1="2.79501" y1="42.843" x2="7.56468" y2="46.1149" gradientUnits="userSpaceOnUse">
<stop stop-color="#978E85"/>
<stop offset="1" stop-color="#D0C5B9"/>
</linearGradient>
<linearGradient id="paint3_linear_806_4384" x1="17.6603" y1="21" x2="33.4197" y2="21" gradientUnits="userSpaceOnUse">
<stop stop-color="#ECE0D4"/>
<stop offset="0.482638" stop-color="#DDD4CB"/>
<stop offset="1" stop-color="#C3B9AF"/>
</linearGradient>
</defs>
</svg>
