<svg width="52" height="53" viewBox="0 0 52 53" fill="none" xmlns="http://www.w3.org/2000/svg">
<path d="M46.7356 0.0292969H4.78247C2.14777 0.0292969 0.0118408 1.82529 0.0118408 4.04077V48.0619C0.0118408 50.2774 2.14777 52.0734 4.78247 52.0734H46.7356C49.3703 52.0734 51.5061 50.2774 51.5061 48.0619V4.04077C51.5061 1.82529 49.3703 0.0292969 46.7356 0.0292969Z" fill="#8F8372"/>
<path d="M51.4819 3.89355H40.2025V38.4573H51.4819V3.89355Z" fill="#D8C3A8"/>
<path fill-rule="evenodd" clip-rule="evenodd" d="M42.3634 6.90866L51.4573 3.93718C51.096 1.08035 49.1281 0.09147 46.3885 0C42.7431 0.10572 39.1858 0.260148 37.2947 1.33716L42.3634 6.90866Z" fill="url(#paint0_linear_806_4401)"/>
<path d="M42.5743 39.0879H9.10498V52.0624H42.5743V39.0879Z" fill="#B4A48F"/>
<path fill-rule="evenodd" clip-rule="evenodd" d="M40.6639 36.041L51.469 37.1967L51.5085 47.7024C51.5029 50.4118 49.3417 51.9685 47.1074 52.0622L42.2977 52.0097L36.9744 39.6655L40.6639 36.041Z" fill="url(#paint1_linear_806_4401)"/>
<path fill-rule="evenodd" clip-rule="evenodd" d="M7.52405 35.9365L0.0395508 37.1972L0 47.7029C0.0056 50.4124 2.16682 51.969 4.40112 52.0628L9.21057 52.0103L10.8973 39.7186L7.52405 35.9365Z" fill="url(#paint2_linear_806_4401)"/>
<path d="M38.7319 1.37598H11.2319C8.59723 1.37598 6.78223 3.25023 6.78223 5.87598V36.1775C6.78223 38.8032 9.09723 41.126 11.7319 41.126H38.5468C41.1815 41.126 43.3173 38.3012 43.3173 35.6754V5.75604C43.3173 3.13029 41.3666 1.37598 38.7319 1.37598Z" fill="#E6D3B9"/>
<path d="M37.526 1.37598H11.9378C9.33879 1.37598 7.23193 3.4387 7.23193 5.9832V35.7688C7.23193 38.3133 9.33879 40.376 11.9378 40.376H37.526C40.125 40.376 42.2319 38.3133 42.2319 35.7688V5.9832C42.2319 3.4387 40.125 1.37598 37.526 1.37598Z" fill="url(#paint3_linear_806_4401)"/>
<path d="M24.8814 18.4389C24.8394 18.3916 24.8131 18.3181 24.8184 18.255C24.8657 17.199 24.7238 16.1745 24.3665 15.1762C24.3192 15.0501 24.2615 15.0028 24.1301 15.0396C23.8359 15.1289 23.5312 15.1972 23.2422 15.3023C22.4436 15.5913 21.7133 16.0116 21.004 16.4687C20.9304 16.516 20.8201 16.5475 20.7308 16.5317C19.5697 16.3268 18.4033 16.3373 17.2369 16.516C17.1213 16.5317 16.9742 16.5055 16.8796 16.4477C16.0548 15.9118 15.2141 15.3864 14.2527 15.1342C13.4593 14.924 13.6222 14.882 13.3963 15.6018C13.1283 16.4634 13.0232 17.3566 13.081 18.2603C13.0863 18.3233 13.039 18.4022 12.997 18.4599C12.6502 18.875 12.3822 19.3321 12.2194 19.847C11.9041 20.8452 11.9672 21.854 12.1668 22.8575C12.5609 24.8277 13.8901 26.2095 15.8551 26.551C16.8691 26.7297 17.9147 26.7454 18.8656 26.8243C19.9269 26.7454 20.9094 26.7402 21.8656 26.5878C23.5364 26.3199 24.7974 25.432 25.4278 23.819C25.6485 23.2568 25.7693 22.6421 25.8429 22.0432C26.011 20.7244 25.7851 19.4845 24.8814 18.4389ZM23.9515 23.9241C23.7781 24.7437 23.3 25.3059 22.5014 25.5948C21.729 25.8785 20.9304 25.9941 20.1161 26.0467C19.722 26.0729 19.328 26.0519 18.9339 26.0519C17.8726 26.0729 16.8113 26.0309 15.7868 25.7262C14.4996 25.3426 13.9217 24.5756 13.8849 23.2305C13.8691 22.7524 13.9217 22.2901 14.1476 21.8593C14.5942 20.9924 15.3665 20.6876 16.2807 20.6719C16.7798 20.6666 17.2842 20.7086 17.7886 20.7559C18.8446 20.8505 19.8902 20.7507 20.9409 20.6929C21.4033 20.6666 21.8762 20.6561 22.328 20.7349C23.3 20.903 24.0355 21.8698 24.0513 22.9573C24.0513 23.2778 24.0145 23.6088 23.9515 23.9241Z" fill="#48403F"/>
<path d="M15.9655 22.1215C15.6765 22.421 15.5767 22.7993 15.5609 23.1355C15.5609 23.6399 15.708 24.0445 15.9655 24.3072C16.3227 24.6697 16.8114 24.6592 17.1529 24.2914C17.6678 23.7345 17.6625 22.689 17.1529 22.1373C16.8114 21.7643 16.3122 21.759 15.9655 22.1215Z" fill="#48403F"/>
<path d="M20.8044 22.0803C20.2159 22.6215 20.2159 23.8141 20.8044 24.35C21.1459 24.66 21.6082 24.6443 21.9287 24.3133C22.2229 24.0085 22.328 23.625 22.3385 23.2099C22.328 22.7949 22.2229 22.4166 21.9235 22.1119C21.603 21.7809 21.1406 21.7704 20.8044 22.0803Z" fill="#48403F"/>
<defs>
<linearGradient id="paint0_linear_806_4401" x1="43.7434" y1="4.08465" x2="43.115" y2="1.45727" gradientUnits="userSpaceOnUse">
<stop stop-color="#D8C3A8"/>
<stop offset="1" stop-color="#8F8372"/>
</linearGradient>
<linearGradient id="paint1_linear_806_4401" x1="47.5208" y1="43.2892" x2="43.3479" y2="46.5597" gradientUnits="userSpaceOnUse">
<stop stop-color="#D8C3A8"/>
<stop offset="1" stop-color="#B4A48F"/>
</linearGradient>
<linearGradient id="paint2_linear_806_4401" x1="2.79501" y1="42.844" x2="7.56468" y2="46.1159" gradientUnits="userSpaceOnUse">
<stop stop-color="#8F8372"/>
<stop offset="1" stop-color="#B4A48F"/>
</linearGradient>
<linearGradient id="paint3_linear_806_4401" x1="17.8922" y1="20.876" x2="33.6516" y2="20.876" gradientUnits="userSpaceOnUse">
<stop stop-color="#C5B49E"/>
<stop offset="0.472221" stop-color="#B6A792"/>
<stop offset="1" stop-color="#A6947C"/>
</linearGradient>
</defs>
</svg>
