<svg width="52" height="53" viewBox="0 0 52 53" fill="none" xmlns="http://www.w3.org/2000/svg">
<path d="M46.7356 0.0292969H4.78247C2.14777 0.0292969 0.0118408 1.82529 0.0118408 4.04077V48.062C0.0118408 50.2774 2.14777 52.0734 4.78247 52.0734H46.7356C49.3703 52.0734 51.5061 50.2774 51.5061 48.062V4.04077C51.5061 1.82529 49.3703 0.0292969 46.7356 0.0292969Z" fill="#978E85"/>
<path d="M51.4819 3.89355H40.2025V38.4573H51.4819V3.89355Z" fill="#F4EBE2"/>
<path fill-rule="evenodd" clip-rule="evenodd" d="M42.3634 6.90866L51.4573 3.93716C51.096 1.08033 49.1281 0.09147 46.3885 0C42.7431 0.10572 39.1858 0.260118 37.2947 1.33713L42.3634 6.90866Z" fill="url(#paint0_linear_806_4394)"/>
<path d="M42.5743 39.0879H9.10498V52.0624H42.5743V39.0879Z" fill="#D0C5B9"/>
<path fill-rule="evenodd" clip-rule="evenodd" d="M40.6639 36.041L51.469 37.1966L51.5085 47.7023C51.5029 50.4118 49.3417 51.9685 47.1074 52.0622L42.2977 52.0097L36.9744 39.6655L40.6639 36.041Z" fill="url(#paint1_linear_806_4394)"/>
<path fill-rule="evenodd" clip-rule="evenodd" d="M7.52405 35.9355L0.0395508 37.1962L0 47.7019C0.0056 50.4114 2.16682 51.9681 4.40112 52.0618L9.21057 52.0093L10.8973 39.7176L7.52405 35.9355Z" fill="url(#paint2_linear_806_4394)"/>
<path d="M38.2994 1H11.7006C9.10453 1 7 3.11561 7 5.72536V36.2746C7 38.8844 8.90388 41.5 11.5 41.5H38C40.5961 41.5 43 38.8844 43 36.2746V5.72536C43 3.11561 40.8955 1 38.2994 1Z" fill="#F1F1F1"/>
<path d="M37.294 1H11.7058C9.10685 1 7 3.11561 7 5.72536V36.2746C7 38.8844 9.10685 41 11.7058 41H37.294C39.893 41 42 38.8844 42 36.2746V5.72536C42 3.11561 39.893 1 37.294 1Z" fill="url(#paint3_linear_806_4394)"/>
<path d="M14.3153 15.1392C13.6326 15.1392 13.0294 15.0182 12.5057 14.7763C11.9853 14.531 11.5793 14.1946 11.2876 13.767C10.996 13.3362 10.8518 12.8456 10.8551 12.2955C10.8518 11.8646 10.9363 11.4669 11.1087 11.1023C11.281 10.7344 11.5163 10.4278 11.8146 10.1825C12.1162 9.93395 12.4527 9.77651 12.8239 9.71023V9.65057C12.3366 9.52462 11.9489 9.25118 11.6605 8.83026C11.3722 8.40601 11.2296 7.92377 11.233 7.38352C11.2296 6.86648 11.3606 6.40412 11.6257 5.99645C11.8909 5.58878 12.2554 5.26728 12.7195 5.03196C13.1868 4.79664 13.7188 4.67898 14.3153 4.67898C14.9053 4.67898 15.4323 4.79664 15.8963 5.03196C16.3603 5.26728 16.7249 5.58878 16.9901 5.99645C17.2585 6.40412 17.3944 6.86648 17.3977 7.38352C17.3944 7.92377 17.2469 8.40601 16.9553 8.83026C16.6669 9.25118 16.2841 9.52462 15.8068 9.65057V9.71023C16.1747 9.77651 16.5062 9.93395 16.8011 10.1825C17.0961 10.4278 17.3314 10.7344 17.5071 11.1023C17.6828 11.4669 17.7723 11.8646 17.7756 12.2955C17.7723 12.8456 17.6231 13.3362 17.3281 13.767C17.0365 14.1946 16.6304 14.531 16.1101 14.7763C15.593 15.0182 14.9948 15.1392 14.3153 15.1392ZM14.3153 14.0455C14.776 14.0455 15.1738 13.9709 15.5085 13.8217C15.8433 13.6726 16.1018 13.4621 16.2841 13.1903C16.4664 12.9186 16.5592 12.6004 16.5625 12.2358C16.5592 11.8513 16.4598 11.5116 16.2642 11.2166C16.0687 10.9216 15.8018 10.6896 15.4638 10.5206C15.129 10.3516 14.7462 10.267 14.3153 10.267C13.8812 10.267 13.4934 10.3516 13.152 10.5206C12.8139 10.6896 12.5471 10.9216 12.3516 11.2166C12.1593 11.5116 12.0649 11.8513 12.0682 12.2358C12.0649 12.6004 12.1527 12.9186 12.3317 13.1903C12.514 13.4621 12.7741 13.6726 13.1122 13.8217C13.4503 13.9709 13.8513 14.0455 14.3153 14.0455ZM14.3153 9.21307C14.6799 9.21307 15.0031 9.14015 15.2848 8.99432C15.5698 8.84848 15.7936 8.64465 15.956 8.38281C16.1184 8.12098 16.2012 7.81439 16.2045 7.46307C16.2012 7.11837 16.12 6.81842 15.9609 6.56321C15.8018 6.30469 15.5814 6.10582 15.2997 5.96662C15.018 5.8241 14.6899 5.75284 14.3153 5.75284C13.9342 5.75284 13.6011 5.8241 13.3161 5.96662C13.031 6.10582 12.8106 6.30469 12.6548 6.56321C12.4991 6.81842 12.4228 7.11837 12.4261 7.46307C12.4228 7.81439 12.5007 8.12098 12.6598 8.38281C12.8222 8.64465 13.0459 8.84848 13.331 8.99432C13.616 9.14015 13.9441 9.21307 14.3153 9.21307Z" fill="#48403F"/>
<path d="M46.7356 0.0292969H4.78247C2.14777 0.0292969 0.0118408 1.82529 0.0118408 4.04077V48.062C0.0118408 50.2774 2.14777 52.0734 4.78247 52.0734H46.7356C49.3703 52.0734 51.5061 50.2774 51.5061 48.062V4.04077C51.5061 1.82529 49.3703 0.0292969 46.7356 0.0292969Z" fill="#978E85"/>
<path d="M51.4819 3.89355H40.2025V38.4573H51.4819V3.89355Z" fill="#F4EBE2"/>
<path fill-rule="evenodd" clip-rule="evenodd" d="M42.3634 6.90866L51.4573 3.93716C51.096 1.08033 49.1281 0.09147 46.3885 0C42.7431 0.10572 39.1858 0.260118 37.2947 1.33713L42.3634 6.90866Z" fill="url(#paint4_linear_806_4394)"/>
<path d="M42.5743 39.0879H9.10498V52.0624H42.5743V39.0879Z" fill="#D0C5B9"/>
<path fill-rule="evenodd" clip-rule="evenodd" d="M40.6639 36.041L51.469 37.1966L51.5085 47.7023C51.5029 50.4118 49.3417 51.9685 47.1074 52.0622L42.2977 52.0097L36.9744 39.6655L40.6639 36.041Z" fill="url(#paint5_linear_806_4394)"/>
<path fill-rule="evenodd" clip-rule="evenodd" d="M7.52405 35.9355L0.0395508 37.1962L0 47.7019C0.0056 50.4114 2.16682 51.9681 4.40112 52.0618L9.21057 52.0093L10.8973 39.7176L7.52405 35.9355Z" fill="url(#paint6_linear_806_4394)"/>
<path d="M38.2994 1H11.7006C9.10453 1 7 3.11561 7 5.72536V36.2746C7 38.8844 8.90388 41.5 11.5 41.5H38C40.5961 41.5 43 38.8844 43 36.2746V5.72536C43 3.11561 40.8955 1 38.2994 1Z" fill="#F1F1F1"/>
<path d="M37.294 1H11.7058C9.10685 1 7 3.11561 7 5.72536V36.2746C7 38.8844 9.10685 41 11.7058 41H37.294C39.893 41 42 38.8844 42 36.2746V5.72536C42 3.11561 39.893 1 37.294 1Z" fill="url(#paint7_linear_806_4394)"/>
<path d="M14.3153 15.1392C13.6326 15.1392 13.0294 15.0182 12.5057 14.7763C11.9853 14.531 11.5793 14.1946 11.2876 13.767C10.996 13.3362 10.8518 12.8456 10.8551 12.2955C10.8518 11.8646 10.9363 11.4669 11.1087 11.1023C11.281 10.7344 11.5163 10.4278 11.8146 10.1825C12.1162 9.93395 12.4527 9.77651 12.8239 9.71023V9.65057C12.3366 9.52462 11.9489 9.25118 11.6605 8.83026C11.3722 8.40601 11.2296 7.92377 11.233 7.38352C11.2296 6.86648 11.3606 6.40412 11.6257 5.99645C11.8909 5.58878 12.2554 5.26728 12.7195 5.03196C13.1868 4.79664 13.7188 4.67898 14.3153 4.67898C14.9053 4.67898 15.4323 4.79664 15.8963 5.03196C16.3603 5.26728 16.7249 5.58878 16.9901 5.99645C17.2585 6.40412 17.3944 6.86648 17.3977 7.38352C17.3944 7.92377 17.2469 8.40601 16.9553 8.83026C16.6669 9.25118 16.2841 9.52462 15.8068 9.65057V9.71023C16.1747 9.77651 16.5062 9.93395 16.8011 10.1825C17.0961 10.4278 17.3314 10.7344 17.5071 11.1023C17.6828 11.4669 17.7723 11.8646 17.7756 12.2955C17.7723 12.8456 17.6231 13.3362 17.3281 13.767C17.0365 14.1946 16.6304 14.531 16.1101 14.7763C15.593 15.0182 14.9948 15.1392 14.3153 15.1392ZM14.3153 14.0455C14.776 14.0455 15.1738 13.9709 15.5085 13.8217C15.8433 13.6726 16.1018 13.4621 16.2841 13.1903C16.4664 12.9186 16.5592 12.6004 16.5625 12.2358C16.5592 11.8513 16.4598 11.5116 16.2642 11.2166C16.0687 10.9216 15.8018 10.6896 15.4638 10.5206C15.129 10.3516 14.7462 10.267 14.3153 10.267C13.8812 10.267 13.4934 10.3516 13.152 10.5206C12.8139 10.6896 12.5471 10.9216 12.3516 11.2166C12.1593 11.5116 12.0649 11.8513 12.0682 12.2358C12.0649 12.6004 12.1527 12.9186 12.3317 13.1903C12.514 13.4621 12.7741 13.6726 13.1122 13.8217C13.4503 13.9709 13.8513 14.0455 14.3153 14.0455ZM14.3153 9.21307C14.6799 9.21307 15.0031 9.14015 15.2848 8.99432C15.5698 8.84848 15.7936 8.64465 15.956 8.38281C16.1184 8.12098 16.2012 7.81439 16.2045 7.46307C16.2012 7.11837 16.12 6.81842 15.9609 6.56321C15.8018 6.30469 15.5814 6.10582 15.2997 5.96662C15.018 5.8241 14.6899 5.75284 14.3153 5.75284C13.9342 5.75284 13.6011 5.8241 13.3161 5.96662C13.031 6.10582 12.8106 6.30469 12.6548 6.56321C12.4991 6.81842 12.4228 7.11837 12.4261 7.46307C12.4228 7.81439 12.5007 8.12098 12.6598 8.38281C12.8222 8.64465 13.0459 8.84848 13.331 8.99432C13.616 9.14015 13.9441 9.21307 14.3153 9.21307Z" fill="#48403F"/>
<path d="M46.7356 0.240234H4.78247C2.14777 0.240234 0.0118408 2.04019 0.0118408 4.26054V48.3786C0.0118408 50.599 2.14777 52.3989 4.78247 52.3989H46.7356C49.3703 52.3989 51.5061 50.599 51.5061 48.3786V4.26054C51.5061 2.04019 49.3703 0.240234 46.7356 0.240234Z" fill="#978E85"/>
<path d="M51.4819 4.11328H40.2025V38.7532H51.4819V4.11328Z" fill="#F4EBE2"/>
<path fill-rule="evenodd" clip-rule="evenodd" d="M42.3634 7.13481L51.4573 4.15677C51.096 1.29365 49.1281 0.302609 46.3885 0.210938C42.7431 0.31689 39.1858 0.471628 37.2947 1.55101L42.3634 7.13481Z" fill="url(#paint8_linear_806_4394)"/>
<path d="M42.5743 39.3857H9.10498V52.3889H42.5743V39.3857Z" fill="#D0C5B9"/>
<path fill-rule="evenodd" clip-rule="evenodd" d="M40.6639 36.332L51.469 37.4902L51.5085 48.019C51.5029 50.7344 49.3417 52.2945 47.1074 52.3885L42.2977 52.3358L36.9744 39.9645L40.6639 36.332Z" fill="url(#paint9_linear_806_4394)"/>
<path fill-rule="evenodd" clip-rule="evenodd" d="M7.52405 36.2256L0.0395508 37.489L0 48.0179C0.0056 50.7333 2.16682 52.2934 4.40112 52.3874L9.21057 52.3347L10.8973 40.016L7.52405 36.2256Z" fill="url(#paint10_linear_806_4394)"/>
<path d="M38.2994 1.21387H11.7006C9.10453 1.21387 7 3.33413 7 5.94963V36.5662C7 39.1817 8.90388 41.803 11.5 41.803H38C40.5961 41.803 43 39.1817 43 36.5662V5.94963C43 3.33413 40.8955 1.21387 38.2994 1.21387Z" fill="#F1F1F1"/>
<path d="M37.294 1.21387H11.7058C9.10685 1.21387 7 3.33413 7 5.94963V36.5662C7 39.1817 9.10685 41.3019 11.7058 41.3019H37.294C39.893 41.3019 42 39.1817 42 36.5662V5.94963C42 3.33413 39.893 1.21387 37.294 1.21387Z" fill="url(#paint11_linear_806_4394)"/>
<path d="M14.3153 15.3531C13.6326 15.3531 13.0294 15.2321 12.5057 14.9901C11.9853 14.7449 11.5793 14.4085 11.2876 13.9809C10.996 13.55 10.8518 13.0595 10.8551 12.5093C10.8518 12.0785 10.9363 11.6807 11.1087 11.3161C11.281 10.9482 11.5163 10.6417 11.8146 10.3964C12.1162 10.1478 12.4527 9.99038 12.8239 9.92409V9.86444C12.3366 9.73849 11.9489 9.46505 11.6605 9.04412C11.3722 8.61988 11.2296 8.13764 11.233 7.59739C11.2296 7.08034 11.3606 6.61799 11.6257 6.21032C11.8909 5.80265 12.2554 5.48115 12.7195 5.24583C13.1868 5.01051 13.7188 4.89284 14.3153 4.89284C14.9053 4.89284 15.4323 5.01051 15.8963 5.24583C16.3603 5.48115 16.7249 5.80265 16.9901 6.21032C17.2585 6.61799 17.3944 7.08034 17.3977 7.59739C17.3944 8.13764 17.2469 8.61988 16.9553 9.04412C16.6669 9.46505 16.2841 9.73849 15.8068 9.86444V9.92409C16.1747 9.99038 16.5062 10.1478 16.8011 10.3964C17.0961 10.6417 17.3314 10.9482 17.5071 11.3161C17.6828 11.6807 17.7723 12.0785 17.7756 12.5093C17.7723 13.0595 17.6231 13.55 17.3281 13.9809C17.0365 14.4085 16.6304 14.7449 16.1101 14.9901C15.593 15.2321 14.9948 15.3531 14.3153 15.3531ZM14.3153 14.2593C14.776 14.2593 15.1738 14.1847 15.5085 14.0356C15.8433 13.8865 16.1018 13.676 16.2841 13.4042C16.4664 13.1324 16.5592 12.8142 16.5625 12.4497C16.5592 12.0652 16.4598 11.7255 16.2642 11.4305C16.0687 11.1355 15.8018 10.9035 15.4638 10.7345C15.129 10.5654 14.7462 10.4809 14.3153 10.4809C13.8812 10.4809 13.4934 10.5654 13.152 10.7345C12.8139 10.9035 12.5471 11.1355 12.3516 11.4305C12.1593 11.7255 12.0649 12.0652 12.0682 12.4497C12.0649 12.8142 12.1527 13.1324 12.3317 13.4042C12.514 13.676 12.7741 13.8865 13.1122 14.0356C13.4503 14.1847 13.8513 14.2593 14.3153 14.2593ZM14.3153 9.42694C14.6799 9.42694 15.0031 9.35402 15.2848 9.20819C15.5698 9.06235 15.7936 8.85852 15.956 8.59668C16.1184 8.33484 16.2012 8.02826 16.2045 7.67693C16.2012 7.33224 16.12 7.03229 15.9609 6.77708C15.8018 6.51855 15.5814 6.31969 15.2997 6.18049C15.018 6.03797 14.6899 5.96671 14.3153 5.96671C13.9342 5.96671 13.6011 6.03797 13.3161 6.18049C13.031 6.31969 12.8106 6.51855 12.6548 6.77708C12.4991 7.03229 12.4228 7.33224 12.4261 7.67693C12.4228 8.02826 12.5007 8.33484 12.6598 8.59668C12.8222 8.85852 13.0459 9.06235 13.331 9.20819C13.616 9.35402 13.9441 9.42694 14.3153 9.42694Z" fill="#48403F"/>
<defs>
<linearGradient id="paint0_linear_806_4394" x1="43.7434" y1="4.08465" x2="43.115" y2="1.45727" gradientUnits="userSpaceOnUse">
<stop stop-color="#F4EBE2"/>
<stop offset="1" stop-color="#978E85"/>
</linearGradient>
<linearGradient id="paint1_linear_806_4394" x1="47.5208" y1="43.2892" x2="43.3479" y2="46.5597" gradientUnits="userSpaceOnUse">
<stop stop-color="#F4EBE2"/>
<stop offset="1" stop-color="#D0C5B9"/>
</linearGradient>
<linearGradient id="paint2_linear_806_4394" x1="2.79501" y1="42.843" x2="7.56468" y2="46.1149" gradientUnits="userSpaceOnUse">
<stop stop-color="#978E85"/>
<stop offset="1" stop-color="#D0C5B9"/>
</linearGradient>
<linearGradient id="paint3_linear_806_4394" x1="17.6603" y1="21" x2="33.4197" y2="21" gradientUnits="userSpaceOnUse">
<stop stop-color="#ECE0D4"/>
<stop offset="0.482638" stop-color="#DDD4CB"/>
<stop offset="1" stop-color="#C3B9AF"/>
</linearGradient>
<linearGradient id="paint4_linear_806_4394" x1="43.7434" y1="4.08465" x2="43.115" y2="1.45727" gradientUnits="userSpaceOnUse">
<stop stop-color="#F4EBE2"/>
<stop offset="1" stop-color="#978E85"/>
</linearGradient>
<linearGradient id="paint5_linear_806_4394" x1="47.5208" y1="43.2892" x2="43.3479" y2="46.5597" gradientUnits="userSpaceOnUse">
<stop stop-color="#F4EBE2"/>
<stop offset="1" stop-color="#D0C5B9"/>
</linearGradient>
<linearGradient id="paint6_linear_806_4394" x1="2.79501" y1="42.843" x2="7.56468" y2="46.1149" gradientUnits="userSpaceOnUse">
<stop stop-color="#978E85"/>
<stop offset="1" stop-color="#D0C5B9"/>
</linearGradient>
<linearGradient id="paint7_linear_806_4394" x1="17.6603" y1="21" x2="33.4197" y2="21" gradientUnits="userSpaceOnUse">
<stop stop-color="#ECE0D4"/>
<stop offset="0.482638" stop-color="#DDD4CB"/>
<stop offset="1" stop-color="#C3B9AF"/>
</linearGradient>
<linearGradient id="paint8_linear_806_4394" x1="43.7434" y1="4.30458" x2="43.1124" y2="1.67204" gradientUnits="userSpaceOnUse">
<stop stop-color="#F4EBE2"/>
<stop offset="1" stop-color="#978E85"/>
</linearGradient>
<linearGradient id="paint9_linear_806_4394" x1="47.5208" y1="43.5961" x2="43.3409" y2="46.865" gradientUnits="userSpaceOnUse">
<stop stop-color="#F4EBE2"/>
<stop offset="1" stop-color="#D0C5B9"/>
</linearGradient>
<linearGradient id="paint10_linear_806_4394" x1="2.79501" y1="43.1483" x2="7.57139" y2="46.4176" gradientUnits="userSpaceOnUse">
<stop stop-color="#978E85"/>
<stop offset="1" stop-color="#D0C5B9"/>
</linearGradient>
<linearGradient id="paint11_linear_806_4394" x1="17.6603" y1="21.2579" x2="33.4197" y2="21.2579" gradientUnits="userSpaceOnUse">
<stop stop-color="#ECE0D4"/>
<stop offset="0.482638" stop-color="#DDD4CB"/>
<stop offset="1" stop-color="#C3B9AF"/>
</linearGradient>
</defs>
</svg>
