<svg width="107" height="53" viewBox="0 0 107 53" fill="none" xmlns="http://www.w3.org/2000/svg">
<path d="M101.379 0.0292969H4.78247C2.14777 0.0292969 0.0119629 1.82529 0.0119629 4.04077V48.062C0.0119629 50.2774 2.14777 52.0734 4.78247 52.0734H101.379C104.013 52.0734 106.149 50.2774 106.149 48.062V4.04077C106.149 1.82529 104.013 0.0292969 101.379 0.0292969Z" fill="#978E85"/>
<path d="M106.125 3.89355H94.8455V38.4573H106.125V3.89355Z" fill="#F4EBE2"/>
<path fill-rule="evenodd" clip-rule="evenodd" d="M97.0065 6.90866L106.1 3.93716C105.739 1.08033 103.771 0.09147 101.032 0C97.3862 0.10572 93.8289 0.260118 91.9377 1.33713L97.0065 6.90866Z" fill="url(#paint0_linear_808_4405)"/>
<path d="M98.1101 39.0879H9.1051V52.0624H98.1101V39.0879Z" fill="#D0C5B9"/>
<path fill-rule="evenodd" clip-rule="evenodd" d="M95.3069 36.041L106.112 37.1966L106.151 47.7023C106.146 50.4118 103.985 51.9685 101.75 52.0622L96.9409 52.0097L91.6174 39.6655L95.3069 36.041Z" fill="url(#paint1_linear_808_4405)"/>
<path fill-rule="evenodd" clip-rule="evenodd" d="M7.52393 35.9365L0.0394287 37.1972L0 47.7029C0.0056 50.4124 2.16682 51.969 4.40112 52.0628L9.21069 52.0103L10.8972 39.7186L7.52393 35.9365Z" fill="url(#paint2_linear_808_4405)"/>
<path d="M92.6541 0.686523H11.553C8.91828 0.686523 6.78235 2.81511 6.78235 5.44086V36.1775C6.78235 38.8032 8.91828 40.9318 11.553 40.9318H92.6541C95.2888 40.9318 97.4247 38.8032 97.4247 36.1775V5.44086C97.4247 2.81511 95.2888 0.686523 92.6541 0.686523Z" fill="#F1F1F1"/>
<path d="M91.2513 1H11.7488C9.12614 1 7 3.06272 7 5.60722V35.3928C7 37.9373 9.12614 40 11.7488 40H91.2513C93.874 40 96 37.9373 96 35.3928V5.60722C96 3.06272 93.874 1 91.2513 1Z" fill="url(#paint3_linear_808_4405)"/>
<path d="M15.375 15.6206C14.6259 15.6206 13.9879 15.4168 13.4609 15.0091C12.9339 14.5982 12.5313 14.0032 12.2528 13.2243C11.9744 12.4421 11.8352 11.4975 11.8352 10.3905C11.8352 9.29016 11.9744 8.35053 12.2528 7.57164C12.5346 6.78945 12.9389 6.19286 13.4659 5.78187C13.9962 5.36757 14.6326 5.16042 15.375 5.16042C16.1174 5.16042 16.7521 5.36757 17.2791 5.78187C17.8094 6.19286 18.2138 6.78945 18.4922 7.57164C18.7739 8.35053 18.9148 9.29016 18.9148 10.3905C18.9148 11.4975 18.7756 12.4421 18.4972 13.2243C18.2188 14.0032 17.8161 14.5982 17.2891 15.0091C16.7621 15.4168 16.1241 15.6206 15.375 15.6206ZM15.375 14.5269C16.1174 14.5269 16.6941 14.1689 17.1051 13.453C17.5161 12.7371 17.7216 11.7163 17.7216 10.3905C17.7216 9.50891 17.6271 8.7582 17.4382 8.13841C17.2526 7.51861 16.9841 7.04631 16.6328 6.7215C16.2848 6.39669 15.8655 6.23429 15.375 6.23429C14.6392 6.23429 14.0642 6.59721 13.6499 7.32306C13.2356 8.0456 13.0284 9.06809 13.0284 10.3905C13.0284 11.2722 13.1212 12.0212 13.3068 12.6377C13.4924 13.2542 13.7592 13.7232 14.1072 14.0447C14.4586 14.3662 14.8812 14.5269 15.375 14.5269Z" fill="#48403F"/>
<path d="M101.379 0.0292969H4.78247C2.14777 0.0292969 0.0119629 1.82529 0.0119629 4.04077V48.062C0.0119629 50.2774 2.14777 52.0734 4.78247 52.0734H101.379C104.013 52.0734 106.149 50.2774 106.149 48.062V4.04077C106.149 1.82529 104.013 0.0292969 101.379 0.0292969Z" fill="#978E85"/>
<path d="M106.125 3.89355H94.8455V38.4573H106.125V3.89355Z" fill="#F4EBE2"/>
<path fill-rule="evenodd" clip-rule="evenodd" d="M97.0687 6.90866L106.163 3.93716C105.801 1.08033 103.833 0.09147 101.094 0C97.4485 0.10572 93.8912 0.260118 92 1.33713L97.0687 6.90866Z" fill="url(#paint4_linear_808_4405)"/>
<path d="M98.1101 39.0879H9.1051V52.0624H98.1101V39.0879Z" fill="#D0C5B9"/>
<path fill-rule="evenodd" clip-rule="evenodd" d="M95.3069 36.041L106.112 37.1966L106.151 47.7023C106.146 50.4118 103.985 51.9685 101.75 52.0622L96.9409 52.0097L91.6174 39.6655L95.3069 36.041Z" fill="url(#paint5_linear_808_4405)"/>
<path fill-rule="evenodd" clip-rule="evenodd" d="M7.52393 35.9365L0.0394287 37.1972L0 47.7029C0.0056 50.4124 2.16682 51.969 4.40112 52.0628L9.21069 52.0103L10.8972 39.7186L7.52393 35.9365Z" fill="url(#paint6_linear_808_4405)"/>
<path d="M92.6541 0.686523H11.553C8.91828 0.686523 6.78235 2.81511 6.78235 5.44086V36.1775C6.78235 38.8032 8.91828 40.9318 11.553 40.9318H92.6541C95.2888 40.9318 97.4247 38.8032 97.4247 36.1775V5.44086C97.4247 2.81511 95.2888 0.686523 92.6541 0.686523Z" fill="#F1F1F1"/>
<path d="M91.2513 1H11.7488C9.12614 1 7 3.06272 7 5.60722V35.3928C7 37.9373 9.12614 40 11.7488 40H91.2513C93.874 40 96 37.9373 96 35.3928V5.60722C96 3.06272 93.874 1 91.2513 1Z" fill="url(#paint7_linear_808_4405)"/>
<path d="M15.375 15.6206C14.6259 15.6206 13.9879 15.4168 13.4609 15.0091C12.9339 14.5982 12.5313 14.0032 12.2528 13.2243C11.9744 12.4421 11.8352 11.4975 11.8352 10.3905C11.8352 9.29016 11.9744 8.35053 12.2528 7.57164C12.5346 6.78945 12.9389 6.19286 13.4659 5.78187C13.9962 5.36757 14.6326 5.16042 15.375 5.16042C16.1174 5.16042 16.7521 5.36757 17.2791 5.78187C17.8094 6.19286 18.2138 6.78945 18.4922 7.57164C18.7739 8.35053 18.9148 9.29016 18.9148 10.3905C18.9148 11.4975 18.7756 12.4421 18.4972 13.2243C18.2188 14.0032 17.8161 14.5982 17.2891 15.0091C16.7621 15.4168 16.1241 15.6206 15.375 15.6206ZM15.375 14.5269C16.1174 14.5269 16.6941 14.1689 17.1051 13.453C17.5161 12.7371 17.7216 11.7163 17.7216 10.3905C17.7216 9.50891 17.6271 8.7582 17.4382 8.13841C17.2526 7.51861 16.9841 7.04631 16.6328 6.7215C16.2848 6.39669 15.8655 6.23429 15.375 6.23429C14.6392 6.23429 14.0642 6.59721 13.6499 7.32306C13.2356 8.0456 13.0284 9.06809 13.0284 10.3905C13.0284 11.2722 13.1212 12.0212 13.3068 12.6377C13.4924 13.2542 13.7592 13.7232 14.1072 14.0447C14.4586 14.3662 14.8812 14.5269 15.375 14.5269Z" fill="#48403F"/>
<defs>
<linearGradient id="paint0_linear_808_4405" x1="98.3865" y1="4.08465" x2="97.7581" y2="1.45727" gradientUnits="userSpaceOnUse">
<stop stop-color="#F4EBE2"/>
<stop offset="1" stop-color="#978E85"/>
</linearGradient>
<linearGradient id="paint1_linear_808_4405" x1="102.164" y1="43.2892" x2="97.9909" y2="46.5597" gradientUnits="userSpaceOnUse">
<stop stop-color="#F4EBE2"/>
<stop offset="1" stop-color="#D0C5B9"/>
</linearGradient>
<linearGradient id="paint2_linear_808_4405" x1="2.79505" y1="42.844" x2="7.5647" y2="46.1159" gradientUnits="userSpaceOnUse">
<stop stop-color="#978E85"/>
<stop offset="1" stop-color="#D0C5B9"/>
</linearGradient>
<linearGradient id="paint3_linear_808_4405" x1="34.1073" y1="20.5" x2="74.1812" y2="20.5" gradientUnits="userSpaceOnUse">
<stop stop-color="#ECE0D4"/>
<stop offset="0.498263" stop-color="#DDD4CB"/>
<stop offset="1" stop-color="#C3B9AF"/>
</linearGradient>
<linearGradient id="paint4_linear_808_4405" x1="98.4487" y1="4.08465" x2="97.8203" y2="1.45727" gradientUnits="userSpaceOnUse">
<stop stop-color="#F4EBE2"/>
<stop offset="1" stop-color="#978E85"/>
</linearGradient>
<linearGradient id="paint5_linear_808_4405" x1="102.164" y1="43.2892" x2="97.9909" y2="46.5597" gradientUnits="userSpaceOnUse">
<stop stop-color="#F4EBE2"/>
<stop offset="1" stop-color="#D0C5B9"/>
</linearGradient>
<linearGradient id="paint6_linear_808_4405" x1="2.79505" y1="42.844" x2="7.5647" y2="46.1159" gradientUnits="userSpaceOnUse">
<stop stop-color="#978E85"/>
<stop offset="1" stop-color="#D0C5B9"/>
</linearGradient>
<linearGradient id="paint7_linear_808_4405" x1="34.1073" y1="20.5" x2="74.1812" y2="20.5" gradientUnits="userSpaceOnUse">
<stop stop-color="#ECE0D4"/>
<stop offset="0.498263" stop-color="#DDD4CB"/>
<stop offset="1" stop-color="#C3B9AF"/>
</linearGradient>
</defs>
</svg>
