<svg width="52" height="53" viewBox="0 0 52 53" fill="none" xmlns="http://www.w3.org/2000/svg">
<path d="M46.7356 0.0292969H4.78247C2.14777 0.0292969 0.0118408 1.82529 0.0118408 4.04077V48.062C0.0118408 50.2774 2.14777 52.0734 4.78247 52.0734H46.7356C49.3703 52.0734 51.5061 50.2774 51.5061 48.062V4.04077C51.5061 1.82529 49.3703 0.0292969 46.7356 0.0292969Z" fill="#978E85"/>
<path d="M51.4819 3.89355H40.2025V38.4573H51.4819V3.89355Z" fill="#F4EBE2"/>
<path fill-rule="evenodd" clip-rule="evenodd" d="M42.3634 6.90866L51.4573 3.93716C51.096 1.08033 49.1281 0.09147 46.3885 0C42.7431 0.10572 39.1858 0.260118 37.2947 1.33713L42.3634 6.90866Z" fill="url(#paint0_linear_806_4388)"/>
<path d="M42.5743 39.0879H9.10498V52.0624H42.5743V39.0879Z" fill="#D0C5B9"/>
<path fill-rule="evenodd" clip-rule="evenodd" d="M40.6639 36.041L51.469 37.1966L51.5085 47.7023C51.5029 50.4118 49.3417 51.9685 47.1074 52.0622L42.2977 52.0097L36.9744 39.6655L40.6639 36.041Z" fill="url(#paint1_linear_806_4388)"/>
<path fill-rule="evenodd" clip-rule="evenodd" d="M7.52405 35.9355L0.0395508 37.1962L0 47.7019C0.0056 50.4114 2.16682 51.9681 4.40112 52.0618L9.21057 52.0093L10.8973 39.7176L7.52405 35.9355Z" fill="url(#paint2_linear_806_4388)"/>
<path d="M38.2994 1H11.7006C9.10453 1 7 3.11561 7 5.72536V36.2746C7 38.8844 8.90388 41.5 11.5 41.5H38C40.5961 41.5 43 38.8844 43 36.2746V5.72536C43 3.11561 40.8955 1 38.2994 1Z" fill="#F1F1F1"/>
<path d="M37.294 1H11.7058C9.10685 1 7 3.11561 7 5.72536V36.2746C7 38.8844 9.10685 41 11.7058 41H37.294C39.893 41 42 38.8844 42 36.2746V5.72536C42 3.11561 39.893 1 37.294 1Z" fill="url(#paint3_linear_806_4388)"/>
<path d="M14.6335 4.81818V15H13.4006V6.1108H13.3409L10.8551 7.76136V6.50852L13.4006 4.81818H14.6335Z" fill="#48403F"/>
<path d="M46.7356 0.0292969H4.78247C2.14777 0.0292969 0.0118408 1.82529 0.0118408 4.04077V48.062C0.0118408 50.2774 2.14777 52.0734 4.78247 52.0734H46.7356C49.3703 52.0734 51.5061 50.2774 51.5061 48.062V4.04077C51.5061 1.82529 49.3703 0.0292969 46.7356 0.0292969Z" fill="#978E85"/>
<path d="M51.4819 3.89355H40.2025V38.4573H51.4819V3.89355Z" fill="#F4EBE2"/>
<path fill-rule="evenodd" clip-rule="evenodd" d="M42.3634 6.90866L51.4573 3.93716C51.096 1.08033 49.1281 0.09147 46.3885 0C42.7431 0.10572 39.1858 0.260118 37.2947 1.33713L42.3634 6.90866Z" fill="url(#paint4_linear_806_4388)"/>
<path d="M42.5743 39.0879H9.10498V52.0624H42.5743V39.0879Z" fill="#D0C5B9"/>
<path fill-rule="evenodd" clip-rule="evenodd" d="M40.6639 36.041L51.469 37.1966L51.5085 47.7023C51.5029 50.4118 49.3417 51.9685 47.1074 52.0622L42.2977 52.0097L36.9744 39.6655L40.6639 36.041Z" fill="url(#paint5_linear_806_4388)"/>
<path fill-rule="evenodd" clip-rule="evenodd" d="M7.52405 35.9355L0.0395508 37.1962L0 47.7019C0.0056 50.4114 2.16682 51.9681 4.40112 52.0618L9.21057 52.0093L10.8973 39.7176L7.52405 35.9355Z" fill="url(#paint6_linear_806_4388)"/>
<path d="M38.2994 1H11.7006C9.10453 1 7 3.11561 7 5.72536V36.2746C7 38.8844 8.90388 41.5 11.5 41.5H38C40.5961 41.5 43 38.8844 43 36.2746V5.72536C43 3.11561 40.8955 1 38.2994 1Z" fill="#F1F1F1"/>
<path d="M37.294 1H11.7058C9.10685 1 7 3.11561 7 5.72536V36.2746C7 38.8844 9.10685 41 11.7058 41H37.294C39.893 41 42 38.8844 42 36.2746V5.72536C42 3.11561 39.893 1 37.294 1Z" fill="url(#paint7_linear_806_4388)"/>
<path d="M14.6335 4.81818V15H13.4006V6.1108H13.3409L10.8551 7.76136V6.50852L13.4006 4.81818H14.6335Z" fill="#48403F"/>
<path d="M46.7356 0.5625H4.78247C2.14777 0.5625 0.0118408 2.36245 0.0118408 4.58281V48.7009C0.0118408 50.9212 2.14777 52.7212 4.78247 52.7212H46.7356C49.3703 52.7212 51.5061 50.9212 51.5061 48.7009V4.58281C51.5061 2.36245 49.3703 0.5625 46.7356 0.5625Z" fill="#978E85"/>
<path d="M51.4819 4.43457H40.2025V39.0744H51.4819V4.43457Z" fill="#F4EBE2"/>
<path fill-rule="evenodd" clip-rule="evenodd" d="M42.3634 7.45707L51.4573 4.47903C51.096 1.61592 49.1281 0.624874 46.3885 0.533203C42.7431 0.639156 39.1858 0.793893 37.2947 1.87327L42.3634 7.45707Z" fill="url(#paint8_linear_806_4388)"/>
<path d="M42.5743 39.707H9.10498V52.7101H42.5743V39.707Z" fill="#D0C5B9"/>
<path fill-rule="evenodd" clip-rule="evenodd" d="M40.6639 36.6533L51.469 37.8115L51.5085 48.3403C51.5029 51.0557 49.3417 52.6158 47.1074 52.7098L42.2977 52.6571L36.9744 40.2858L40.6639 36.6533Z" fill="url(#paint9_linear_806_4388)"/>
<path fill-rule="evenodd" clip-rule="evenodd" d="M7.52405 36.5479L0.0395508 37.8113L0 48.3401C0.0056 51.0556 2.16682 52.6157 4.40112 52.7096L9.21057 52.657L10.8973 40.3382L7.52405 36.5479Z" fill="url(#paint10_linear_806_4388)"/>
<path d="M38.2994 1.53516H11.7006C9.10453 1.53516 7 3.65542 7 6.27091V36.8875C7 39.5029 8.90388 42.1243 11.5 42.1243H38C40.5961 42.1243 43 39.5029 43 36.8875V6.27091C43 3.65542 40.8955 1.53516 38.2994 1.53516Z" fill="#F1F1F1"/>
<path d="M37.294 1.53516H11.7058C9.10685 1.53516 7 3.65542 7 6.27091V36.8875C7 39.5029 9.10685 41.6232 11.7058 41.6232H37.294C39.893 41.6232 42 39.5029 42 36.8875V6.27091C42 3.65542 39.893 1.53516 37.294 1.53516Z" fill="url(#paint11_linear_806_4388)"/>
<path d="M14.6335 5.35334V15.5352H13.4006V6.64595H13.3409L10.8551 8.29652V7.04368L13.4006 5.35334H14.6335Z" fill="#48403F"/>
<defs>
<linearGradient id="paint0_linear_806_4388" x1="43.7434" y1="4.08465" x2="43.115" y2="1.45727" gradientUnits="userSpaceOnUse">
<stop stop-color="#F4EBE2"/>
<stop offset="1" stop-color="#978E85"/>
</linearGradient>
<linearGradient id="paint1_linear_806_4388" x1="47.5208" y1="43.2892" x2="43.3479" y2="46.5597" gradientUnits="userSpaceOnUse">
<stop stop-color="#F4EBE2"/>
<stop offset="1" stop-color="#D0C5B9"/>
</linearGradient>
<linearGradient id="paint2_linear_806_4388" x1="2.79501" y1="42.843" x2="7.56468" y2="46.1149" gradientUnits="userSpaceOnUse">
<stop stop-color="#978E85"/>
<stop offset="1" stop-color="#D0C5B9"/>
</linearGradient>
<linearGradient id="paint3_linear_806_4388" x1="17.6603" y1="21" x2="33.4197" y2="21" gradientUnits="userSpaceOnUse">
<stop stop-color="#ECE0D4"/>
<stop offset="0.482638" stop-color="#DDD4CB"/>
<stop offset="1" stop-color="#C3B9AF"/>
</linearGradient>
<linearGradient id="paint4_linear_806_4388" x1="43.7434" y1="4.08465" x2="43.115" y2="1.45727" gradientUnits="userSpaceOnUse">
<stop stop-color="#F4EBE2"/>
<stop offset="1" stop-color="#978E85"/>
</linearGradient>
<linearGradient id="paint5_linear_806_4388" x1="47.5208" y1="43.2892" x2="43.3479" y2="46.5597" gradientUnits="userSpaceOnUse">
<stop stop-color="#F4EBE2"/>
<stop offset="1" stop-color="#D0C5B9"/>
</linearGradient>
<linearGradient id="paint6_linear_806_4388" x1="2.79501" y1="42.843" x2="7.56468" y2="46.1149" gradientUnits="userSpaceOnUse">
<stop stop-color="#978E85"/>
<stop offset="1" stop-color="#D0C5B9"/>
</linearGradient>
<linearGradient id="paint7_linear_806_4388" x1="17.6603" y1="21" x2="33.4197" y2="21" gradientUnits="userSpaceOnUse">
<stop stop-color="#ECE0D4"/>
<stop offset="0.482638" stop-color="#DDD4CB"/>
<stop offset="1" stop-color="#C3B9AF"/>
</linearGradient>
<linearGradient id="paint8_linear_806_4388" x1="43.7434" y1="4.62685" x2="43.1124" y2="1.9943" gradientUnits="userSpaceOnUse">
<stop stop-color="#F4EBE2"/>
<stop offset="1" stop-color="#978E85"/>
</linearGradient>
<linearGradient id="paint9_linear_806_4388" x1="47.5208" y1="43.9174" x2="43.3409" y2="47.1863" gradientUnits="userSpaceOnUse">
<stop stop-color="#F4EBE2"/>
<stop offset="1" stop-color="#D0C5B9"/>
</linearGradient>
<linearGradient id="paint10_linear_806_4388" x1="2.79501" y1="43.4706" x2="7.57139" y2="46.7399" gradientUnits="userSpaceOnUse">
<stop stop-color="#978E85"/>
<stop offset="1" stop-color="#D0C5B9"/>
</linearGradient>
<linearGradient id="paint11_linear_806_4388" x1="17.6603" y1="21.5792" x2="33.4197" y2="21.5792" gradientUnits="userSpaceOnUse">
<stop stop-color="#ECE0D4"/>
<stop offset="0.482638" stop-color="#DDD4CB"/>
<stop offset="1" stop-color="#C3B9AF"/>
</linearGradient>
</defs>
</svg>
