<svg width="52" height="53" viewBox="0 0 52 53" fill="none" xmlns="http://www.w3.org/2000/svg">
<path d="M46.7356 0.0292969H4.78247C2.14777 0.0292969 0.0118408 1.82529 0.0118408 4.04077V48.0619C0.0118408 50.2774 2.14777 52.0734 4.78247 52.0734H46.7356C49.3703 52.0734 51.5061 50.2774 51.5061 48.0619V4.04077C51.5061 1.82529 49.3703 0.0292969 46.7356 0.0292969Z" fill="#8F8372"/>
<path d="M51.4819 3.89355H40.2025V38.4573H51.4819V3.89355Z" fill="#D8C3A8"/>
<path fill-rule="evenodd" clip-rule="evenodd" d="M42.3634 6.90866L51.4573 3.93718C51.096 1.08035 49.1281 0.09147 46.3885 0C42.7431 0.10572 39.1858 0.260148 37.2947 1.33716L42.3634 6.90866Z" fill="url(#paint0_linear_806_4396)"/>
<path d="M42.5743 39.0879H9.10498V52.0624H42.5743V39.0879Z" fill="#B4A48F"/>
<path fill-rule="evenodd" clip-rule="evenodd" d="M40.6639 36.041L51.469 37.1967L51.5085 47.7024C51.5029 50.4118 49.3417 51.9685 47.1074 52.0622L42.2977 52.0097L36.9744 39.6655L40.6639 36.041Z" fill="url(#paint1_linear_806_4396)"/>
<path fill-rule="evenodd" clip-rule="evenodd" d="M7.52405 35.9365L0.0395508 37.1972L0 47.7029C0.0056 50.4124 2.16682 51.969 4.40112 52.0628L9.21057 52.0103L10.8973 39.7186L7.52405 35.9365Z" fill="url(#paint2_linear_806_4396)"/>
<path d="M38.7319 1.37598H11.2319C8.59723 1.37598 6.78223 3.25023 6.78223 5.87598V36.1775C6.78223 38.8032 9.09723 41.126 11.7319 41.126H38.5468C41.1815 41.126 43.3173 38.3012 43.3173 35.6754V5.75604C43.3173 3.13029 41.3666 1.37598 38.7319 1.37598Z" fill="#E6D3B9"/>
<path d="M37.526 1.37598H11.9378C9.33879 1.37598 7.23193 3.4387 7.23193 5.9832V35.7688C7.23193 38.3133 9.33879 40.376 11.9378 40.376H37.526C40.125 40.376 42.2319 38.3133 42.2319 35.7688V5.9832C42.2319 3.4387 40.125 1.37598 37.526 1.37598Z" fill="url(#paint3_linear_806_4396)"/>
<path d="M17.6485 10.7265V18H16.7961L12.8326 12.2891H12.7616V18H11.8808V10.7265H12.7331L16.7109 16.4515H16.7819V10.7265H17.6485ZM22.7352 15.7696V12.5448H23.5733V18H22.7352V17.0766H22.6783C22.5505 17.3536 22.3516 17.5892 22.0817 17.7834C21.8118 17.9751 21.4708 18.071 21.0588 18.071C20.7179 18.071 20.4148 17.9964 20.1496 17.8473C19.8845 17.6958 19.6761 17.4685 19.5246 17.1654C19.373 16.86 19.2973 16.4752 19.2973 16.0111V12.5448H20.1354V15.9543C20.1354 16.3521 20.2467 16.6694 20.4693 16.9061C20.6942 17.1429 20.9807 17.2613 21.3288 17.2613C21.5371 17.2613 21.749 17.208 21.9645 17.1015C22.1823 16.9949 22.3646 16.8315 22.5114 16.6113C22.6606 16.3912 22.7352 16.1106 22.7352 15.7696ZM25.1085 18V12.5448H25.9182V13.3972H25.9893C26.1029 13.106 26.2864 12.8799 26.5397 12.7189C26.7931 12.5555 27.0973 12.4738 27.4525 12.4738C27.8124 12.4738 28.1119 12.5555 28.351 12.7189C28.5925 12.8799 28.7808 13.106 28.9157 13.3972H28.9725C29.1122 13.1155 29.3218 12.8917 29.6012 12.726C29.8806 12.5579 30.2156 12.4738 30.6062 12.4738C31.094 12.4738 31.4929 12.6265 31.8031 12.932C32.1133 13.235 32.2684 13.7074 32.2684 14.349V18H31.4302V14.349C31.4302 13.9465 31.3201 13.6588 31.0999 13.486C30.8797 13.3132 30.6205 13.2267 30.3221 13.2267C29.9386 13.2267 29.6414 13.3428 29.4307 13.5748C29.22 13.8045 29.1146 14.0957 29.1146 14.4485V18H28.2622V14.2638C28.2622 13.9536 28.1616 13.7038 27.9604 13.5144C27.7591 13.3226 27.4998 13.2267 27.1826 13.2267C26.9647 13.2267 26.7611 13.2847 26.5717 13.4008C26.3847 13.5168 26.2331 13.6778 26.1171 13.8838C26.0035 14.0874 25.9466 14.323 25.9466 14.5905V18H25.1085ZM11.8808 30V22.7265H12.7616V29.2187H16.1426V30H11.8808ZM19.6089 30.1136C19.1164 30.1136 18.6843 29.9964 18.3126 29.762C17.9433 29.5276 17.6544 29.1997 17.446 28.7783C17.24 28.3568 17.1371 27.8643 17.1371 27.3008C17.1371 26.7326 17.24 26.2366 17.446 25.8127C17.6544 25.3889 17.9433 25.0598 18.3126 24.8254C18.6843 24.591 19.1164 24.4738 19.6089 24.4738C20.1014 24.4738 20.5323 24.591 20.9017 24.8254C21.2734 25.0598 21.5623 25.3889 21.7683 25.8127C21.9766 26.2366 22.0808 26.7326 22.0808 27.3008C22.0808 27.8643 21.9766 28.3568 21.7683 28.7783C21.5623 29.1997 21.2734 29.5276 20.9017 29.762C20.5323 29.9964 20.1014 30.1136 19.6089 30.1136ZM19.6089 29.3607C19.983 29.3607 20.2908 29.2648 20.5323 29.073C20.7738 28.8813 20.9526 28.6291 21.0686 28.3166C21.1846 28.004 21.2426 27.6655 21.2426 27.3008C21.2426 26.9362 21.1846 26.5964 21.0686 26.2815C20.9526 25.9666 20.7738 25.7121 20.5323 25.518C20.2908 25.3238 19.983 25.2267 19.6089 25.2267C19.2348 25.2267 18.927 25.3238 18.6855 25.518C18.444 25.7121 18.2653 25.9666 18.1492 26.2815C18.0332 26.5964 17.9752 26.9362 17.9752 27.3008C17.9752 27.6655 18.0332 28.004 18.1492 28.3166C18.2653 28.6291 18.444 28.8813 18.6855 29.073C18.927 29.2648 19.2348 29.3607 19.6089 29.3607ZM25.5764 30.1136C25.065 30.1136 24.6246 29.9929 24.2552 29.7514C23.8859 29.5099 23.6017 29.1772 23.4028 28.7534C23.204 28.3296 23.1045 27.8454 23.1045 27.3008C23.1045 26.7468 23.2063 26.2579 23.4099 25.834C23.6159 25.4079 23.9024 25.0752 24.2694 24.8361C24.6388 24.5946 25.0697 24.4738 25.5622 24.4738C25.9457 24.4738 26.2914 24.5448 26.5992 24.6869C26.907 24.829 27.1592 25.0279 27.3557 25.2836C27.5522 25.5393 27.6742 25.8376 27.7215 26.1785H26.8834C26.8194 25.9299 26.6774 25.7097 26.4572 25.518C26.2393 25.3238 25.9457 25.2267 25.5764 25.2267C25.2496 25.2267 24.9632 25.312 24.7169 25.4824C24.473 25.6506 24.2824 25.8885 24.1451 26.1963C24.0102 26.5017 23.9427 26.8604 23.9427 27.2724C23.9427 27.6939 24.009 28.0609 24.1416 28.3734C24.2765 28.6859 24.4659 28.9286 24.7098 29.1015C24.9561 29.2743 25.2449 29.3607 25.5764 29.3607C25.7942 29.3607 25.9919 29.3228 26.1695 29.2471C26.3471 29.1713 26.4974 29.0624 26.6205 28.9203C26.7437 28.7783 26.8313 28.6078 26.8834 28.4089H27.7215C27.6742 28.7309 27.557 29.021 27.3699 29.279C27.1852 29.5347 26.9402 29.7384 26.6347 29.8899C26.3317 30.0391 25.9789 30.1136 25.5764 30.1136ZM29.7281 28.0111L29.7139 26.9741H29.8844L32.271 24.5448H33.3081L30.7652 27.1162H30.6941L29.7281 28.0111ZM28.9468 30V22.7265H29.785V30H28.9468ZM32.4131 30L30.2822 27.3008L30.8788 26.7184L33.4786 30H32.4131Z" fill="#48403F"/>
<defs>
<linearGradient id="paint0_linear_806_4396" x1="43.7434" y1="4.08465" x2="43.115" y2="1.45727" gradientUnits="userSpaceOnUse">
<stop stop-color="#D8C3A8"/>
<stop offset="1" stop-color="#8F8372"/>
</linearGradient>
<linearGradient id="paint1_linear_806_4396" x1="47.5208" y1="43.2892" x2="43.3479" y2="46.5597" gradientUnits="userSpaceOnUse">
<stop stop-color="#D8C3A8"/>
<stop offset="1" stop-color="#B4A48F"/>
</linearGradient>
<linearGradient id="paint2_linear_806_4396" x1="2.79501" y1="42.844" x2="7.56468" y2="46.1159" gradientUnits="userSpaceOnUse">
<stop stop-color="#8F8372"/>
<stop offset="1" stop-color="#B4A48F"/>
</linearGradient>
<linearGradient id="paint3_linear_806_4396" x1="17.8922" y1="20.876" x2="33.6516" y2="20.876" gradientUnits="userSpaceOnUse">
<stop stop-color="#C5B49E"/>
<stop offset="0.472221" stop-color="#B6A792"/>
<stop offset="1" stop-color="#A6947C"/>
</linearGradient>
</defs>
</svg>
