<svg width="52" height="53" viewBox="0 0 52 53" fill="none" xmlns="http://www.w3.org/2000/svg">
<path d="M46.7356 0.0292969H4.78247C2.14777 0.0292969 0.0118408 1.82529 0.0118408 4.04077V48.0619C0.0118408 50.2774 2.14777 52.0734 4.78247 52.0734H46.7356C49.3703 52.0734 51.5061 50.2774 51.5061 48.0619V4.04077C51.5061 1.82529 49.3703 0.0292969 46.7356 0.0292969Z" fill="#8F8372"/>
<path d="M51.4819 3.89355H40.2025V38.4573H51.4819V3.89355Z" fill="#D8C3A8"/>
<path fill-rule="evenodd" clip-rule="evenodd" d="M42.3634 6.90866L51.4573 3.93718C51.096 1.08035 49.1281 0.09147 46.3885 0C42.7431 0.10572 39.1858 0.260148 37.2947 1.33716L42.3634 6.90866Z" fill="url(#paint0_linear_806_4403)"/>
<path d="M42.5743 39.0879H9.10498V52.0624H42.5743V39.0879Z" fill="#B4A48F"/>
<path fill-rule="evenodd" clip-rule="evenodd" d="M40.6639 36.041L51.469 37.1967L51.5085 47.7024C51.5029 50.4118 49.3417 51.9685 47.1074 52.0622L42.2977 52.0097L36.9744 39.6655L40.6639 36.041Z" fill="url(#paint1_linear_806_4403)"/>
<path fill-rule="evenodd" clip-rule="evenodd" d="M7.52405 35.9365L0.0395508 37.1972L0 47.7029C0.0056 50.4124 2.16682 51.969 4.40112 52.0628L9.21057 52.0103L10.8973 39.7186L7.52405 35.9365Z" fill="url(#paint2_linear_806_4403)"/>
<path d="M38.7319 1.37598H11.2319C8.59723 1.37598 6.78223 3.25023 6.78223 5.87598V36.1775C6.78223 38.8032 9.09723 41.126 11.7319 41.126H38.5468C41.1815 41.126 43.3173 38.3012 43.3173 35.6754V5.75604C43.3173 3.13029 41.3666 1.37598 38.7319 1.37598Z" fill="#E6D3B9"/>
<path d="M37.526 1.37598H11.9378C9.33879 1.37598 7.23193 3.4387 7.23193 5.9832V35.7688C7.23193 38.3133 9.33879 40.376 11.9378 40.376H37.526C40.125 40.376 42.2319 38.3133 42.2319 35.7688V5.9832C42.2319 3.4387 40.125 1.37598 37.526 1.37598Z" fill="url(#paint3_linear_806_4403)"/>
<path d="M19.0795 20H18.0227C17.9602 19.696 17.8509 19.429 17.6946 19.1989C17.5412 18.9688 17.3537 18.7756 17.1321 18.6193C16.9134 18.4602 16.6705 18.3409 16.4034 18.2614C16.1364 18.1818 15.858 18.142 15.5682 18.142C15.0398 18.142 14.5611 18.2756 14.1321 18.5426C13.706 18.8097 13.3665 19.2031 13.1136 19.723C12.8636 20.2429 12.7386 20.8807 12.7386 21.6364C12.7386 22.392 12.8636 23.0298 13.1136 23.5497C13.3665 24.0696 13.706 24.4631 14.1321 24.7301C14.5611 24.9972 15.0398 25.1307 15.5682 25.1307C15.858 25.1307 16.1364 25.0909 16.4034 25.0114C16.6705 24.9318 16.9134 24.8139 17.1321 24.6577C17.3537 24.4986 17.5412 24.304 17.6946 24.0739C17.8509 23.8409 17.9602 23.5739 18.0227 23.2727H19.0795C19 23.7187 18.8551 24.1179 18.6449 24.4702C18.4347 24.8224 18.1733 25.1222 17.8608 25.3693C17.5483 25.6136 17.1974 25.7997 16.8082 25.9276C16.4219 26.0554 16.0085 26.1193 15.5682 26.1193C14.8239 26.1193 14.1619 25.9375 13.5824 25.5739C13.0028 25.2102 12.5469 24.6932 12.2145 24.0227C11.8821 23.3523 11.7159 22.5568 11.7159 21.6364C11.7159 20.7159 11.8821 19.9205 12.2145 19.25C12.5469 18.5795 13.0028 18.0625 13.5824 17.6989C14.1619 17.3352 14.8239 17.1534 15.5682 17.1534C16.0085 17.1534 16.4219 17.2173 16.8082 17.3452C17.1974 17.473 17.5483 17.6605 17.8608 17.9077C18.1733 18.152 18.4347 18.4503 18.6449 18.8026C18.8551 19.152 19 19.5511 19.0795 20Z" fill="#48403F"/>
<defs>
<linearGradient id="paint0_linear_806_4403" x1="43.7434" y1="4.08465" x2="43.115" y2="1.45727" gradientUnits="userSpaceOnUse">
<stop stop-color="#D8C3A8"/>
<stop offset="1" stop-color="#8F8372"/>
</linearGradient>
<linearGradient id="paint1_linear_806_4403" x1="47.5208" y1="43.2892" x2="43.3479" y2="46.5597" gradientUnits="userSpaceOnUse">
<stop stop-color="#D8C3A8"/>
<stop offset="1" stop-color="#B4A48F"/>
</linearGradient>
<linearGradient id="paint2_linear_806_4403" x1="2.79501" y1="42.844" x2="7.56468" y2="46.1159" gradientUnits="userSpaceOnUse">
<stop stop-color="#8F8372"/>
<stop offset="1" stop-color="#B4A48F"/>
</linearGradient>
<linearGradient id="paint3_linear_806_4403" x1="17.8922" y1="20.876" x2="33.6516" y2="20.876" gradientUnits="userSpaceOnUse">
<stop stop-color="#C5B49E"/>
<stop offset="0.472221" stop-color="#B6A792"/>
<stop offset="1" stop-color="#A6947C"/>
</linearGradient>
</defs>
</svg>
