<svg width="52" height="53" viewBox="0 0 52 53" fill="none" xmlns="http://www.w3.org/2000/svg">
<path d="M46.7356 0.0292969H4.78247C2.14777 0.0292969 0.0118408 1.82529 0.0118408 4.04077V48.062C0.0118408 50.2774 2.14777 52.0734 4.78247 52.0734H46.7356C49.3703 52.0734 51.5061 50.2774 51.5061 48.062V4.04077C51.5061 1.82529 49.3703 0.0292969 46.7356 0.0292969Z" fill="#978E85"/>
<path d="M51.4819 3.89355H40.2025V38.4573H51.4819V3.89355Z" fill="#F4EBE2"/>
<path fill-rule="evenodd" clip-rule="evenodd" d="M42.3634 6.90866L51.4573 3.93716C51.096 1.08033 49.1281 0.09147 46.3885 0C42.7431 0.10572 39.1858 0.260118 37.2947 1.33713L42.3634 6.90866Z" fill="url(#paint0_linear_806_4390)"/>
<path d="M42.5743 39.0879H9.10498V52.0624H42.5743V39.0879Z" fill="#D0C5B9"/>
<path fill-rule="evenodd" clip-rule="evenodd" d="M40.6639 36.041L51.469 37.1966L51.5085 47.7023C51.5029 50.4118 49.3417 51.9685 47.1074 52.0622L42.2977 52.0097L36.9744 39.6655L40.6639 36.041Z" fill="url(#paint1_linear_806_4390)"/>
<path fill-rule="evenodd" clip-rule="evenodd" d="M7.52405 35.9355L0.0395508 37.1962L0 47.7019C0.0056 50.4114 2.16682 51.9681 4.40112 52.0618L9.21057 52.0093L10.8973 39.7176L7.52405 35.9355Z" fill="url(#paint2_linear_806_4390)"/>
<path d="M38.2994 1H11.7006C9.10453 1 7 3.11561 7 5.72536V36.2746C7 38.8844 8.90388 41.5 11.5 41.5H38C40.5961 41.5 43 38.8844 43 36.2746V5.72536C43 3.11561 40.8955 1 38.2994 1Z" fill="#F1F1F1"/>
<path d="M37.294 1H11.7058C9.10685 1 7 3.11561 7 5.72536V36.2746C7 38.8844 9.10685 41 11.7058 41H37.294C39.893 41 42 38.8844 42 36.2746V5.72536C42 3.11561 39.893 1 37.294 1Z" fill="url(#paint3_linear_806_4390)"/>
<path d="M14.2358 15.1392C13.6525 15.1392 13.1271 15.0232 12.6598 14.7912C12.1925 14.5592 11.8179 14.241 11.5362 13.8366C11.2545 13.4323 11.1004 12.9716 11.0739 12.4545H12.267C12.3134 12.9152 12.5223 13.2964 12.8935 13.598C13.268 13.8963 13.7154 14.0455 14.2358 14.0455C14.6534 14.0455 15.0246 13.9477 15.3494 13.7521C15.6776 13.5566 15.9344 13.2881 16.12 12.9467C16.3089 12.602 16.4034 12.2126 16.4034 11.7784C16.4034 11.3343 16.3056 10.9382 16.1101 10.5902C15.9179 10.2389 15.6527 9.96212 15.3146 9.75994C14.9766 9.55776 14.5904 9.45502 14.1562 9.4517C13.8447 9.44839 13.5249 9.49645 13.1967 9.59588C12.8686 9.692 12.5985 9.81629 12.3864 9.96875L11.233 9.82955L11.8494 4.81818H17.1392V5.91193H12.8835L12.5256 8.91477H12.5852C12.794 8.74905 13.0559 8.61151 13.3707 8.50213C13.6856 8.39276 14.0137 8.33807 14.3551 8.33807C14.9782 8.33807 15.5334 8.48722 16.0206 8.78551C16.5111 9.08049 16.8956 9.48485 17.174 9.99858C17.4557 10.5123 17.5966 11.099 17.5966 11.7585C17.5966 12.4081 17.4508 12.9882 17.1591 13.4986C16.8707 14.0057 16.473 14.4067 15.9659 14.7017C15.4588 14.9934 14.8821 15.1392 14.2358 15.1392Z" fill="#48403F"/>
<path d="M46.7356 0.0292969H4.78247C2.14777 0.0292969 0.0118408 1.82529 0.0118408 4.04077V48.062C0.0118408 50.2774 2.14777 52.0734 4.78247 52.0734H46.7356C49.3703 52.0734 51.5061 50.2774 51.5061 48.062V4.04077C51.5061 1.82529 49.3703 0.0292969 46.7356 0.0292969Z" fill="#978E85"/>
<path d="M51.4819 3.89355H40.2025V38.4573H51.4819V3.89355Z" fill="#F4EBE2"/>
<path fill-rule="evenodd" clip-rule="evenodd" d="M42.3634 6.90866L51.4573 3.93716C51.096 1.08033 49.1281 0.09147 46.3885 0C42.7431 0.10572 39.1858 0.260118 37.2947 1.33713L42.3634 6.90866Z" fill="url(#paint4_linear_806_4390)"/>
<path d="M42.5743 39.0879H9.10498V52.0624H42.5743V39.0879Z" fill="#D0C5B9"/>
<path fill-rule="evenodd" clip-rule="evenodd" d="M40.6639 36.041L51.469 37.1966L51.5085 47.7023C51.5029 50.4118 49.3417 51.9685 47.1074 52.0622L42.2977 52.0097L36.9744 39.6655L40.6639 36.041Z" fill="url(#paint5_linear_806_4390)"/>
<path fill-rule="evenodd" clip-rule="evenodd" d="M7.52405 35.9355L0.0395508 37.1962L0 47.7019C0.0056 50.4114 2.16682 51.9681 4.40112 52.0618L9.21057 52.0093L10.8973 39.7176L7.52405 35.9355Z" fill="url(#paint6_linear_806_4390)"/>
<path d="M38.2994 1H11.7006C9.10453 1 7 3.11561 7 5.72536V36.2746C7 38.8844 8.90388 41.5 11.5 41.5H38C40.5961 41.5 43 38.8844 43 36.2746V5.72536C43 3.11561 40.8955 1 38.2994 1Z" fill="#F1F1F1"/>
<path d="M37.294 1H11.7058C9.10685 1 7 3.11561 7 5.72536V36.2746C7 38.8844 9.10685 41 11.7058 41H37.294C39.893 41 42 38.8844 42 36.2746V5.72536C42 3.11561 39.893 1 37.294 1Z" fill="url(#paint7_linear_806_4390)"/>
<path d="M14.2358 15.1392C13.6525 15.1392 13.1271 15.0232 12.6598 14.7912C12.1925 14.5592 11.8179 14.241 11.5362 13.8366C11.2545 13.4323 11.1004 12.9716 11.0739 12.4545H12.267C12.3134 12.9152 12.5223 13.2964 12.8935 13.598C13.268 13.8963 13.7154 14.0455 14.2358 14.0455C14.6534 14.0455 15.0246 13.9477 15.3494 13.7521C15.6776 13.5566 15.9344 13.2881 16.12 12.9467C16.3089 12.602 16.4034 12.2126 16.4034 11.7784C16.4034 11.3343 16.3056 10.9382 16.1101 10.5902C15.9179 10.2389 15.6527 9.96212 15.3146 9.75994C14.9766 9.55776 14.5904 9.45502 14.1562 9.4517C13.8447 9.44839 13.5249 9.49645 13.1967 9.59588C12.8686 9.692 12.5985 9.81629 12.3864 9.96875L11.233 9.82955L11.8494 4.81818H17.1392V5.91193H12.8835L12.5256 8.91477H12.5852C12.794 8.74905 13.0559 8.61151 13.3707 8.50213C13.6856 8.39276 14.0137 8.33807 14.3551 8.33807C14.9782 8.33807 15.5334 8.48722 16.0206 8.78551C16.5111 9.08049 16.8956 9.48485 17.174 9.99858C17.4557 10.5123 17.5966 11.099 17.5966 11.7585C17.5966 12.4081 17.4508 12.9882 17.1591 13.4986C16.8707 14.0057 16.473 14.4067 15.9659 14.7017C15.4588 14.9934 14.8821 15.1392 14.2358 15.1392Z" fill="#48403F"/>
<path d="M46.7356 0.0556641H4.78247C2.14777 0.0556641 0.0118408 1.85562 0.0118408 4.07597V48.1941C0.0118408 50.4144 2.14777 52.2144 4.78247 52.2144H46.7356C49.3703 52.2144 51.5061 50.4144 51.5061 48.1941V4.07597C51.5061 1.85562 49.3703 0.0556641 46.7356 0.0556641Z" fill="#978E85"/>
<path d="M51.4819 3.92871H40.2025V38.5686H51.4819V3.92871Z" fill="#F4EBE2"/>
<path fill-rule="evenodd" clip-rule="evenodd" d="M42.3634 6.95024L51.4573 3.9722C51.096 1.10908 49.1281 0.118039 46.3885 0.0263672C42.7431 0.13232 39.1858 0.287057 37.2947 1.36644L42.3634 6.95024Z" fill="url(#paint8_linear_806_4390)"/>
<path d="M42.5743 39.2002H9.10498V52.2033H42.5743V39.2002Z" fill="#D0C5B9"/>
<path fill-rule="evenodd" clip-rule="evenodd" d="M40.6639 36.1465L51.469 37.3046L51.5085 47.8335C51.5029 50.5489 49.3417 52.109 47.1074 52.203L42.2977 52.1503L36.9744 39.7789L40.6639 36.1465Z" fill="url(#paint9_linear_806_4390)"/>
<path fill-rule="evenodd" clip-rule="evenodd" d="M7.52405 36.041L0.0395508 37.3045L0 47.8333C0.0056 50.5487 2.16682 52.1088 4.40112 52.2028L9.21057 52.1501L10.8973 39.8314L7.52405 36.041Z" fill="url(#paint10_linear_806_4390)"/>
<path d="M38.2994 1.02832H11.7006C9.10453 1.02832 7 3.14859 7 5.76408V36.3806C7 38.9961 8.90388 41.6175 11.5 41.6175H38C40.5961 41.6175 43 38.9961 43 36.3806V5.76408C43 3.14859 40.8955 1.02832 38.2994 1.02832Z" fill="#F1F1F1"/>
<path d="M37.294 1.02832H11.7058C9.10685 1.02832 7 3.14859 7 5.76408V36.3806C7 38.9961 9.10685 41.1164 11.7058 41.1164H37.294C39.893 41.1164 42 38.9961 42 36.3806V5.76408C42 3.14859 39.893 1.02832 37.294 1.02832Z" fill="url(#paint11_linear_806_4390)"/>
<path d="M14.2358 15.1675C13.6525 15.1675 13.1271 15.0515 12.6598 14.8195C12.1925 14.5875 11.8179 14.2693 11.5362 13.865C11.2545 13.4606 11.1004 12.9999 11.0739 12.4829H12.267C12.3134 12.9436 12.5223 13.3247 12.8935 13.6263C13.268 13.9246 13.7154 14.0738 14.2358 14.0738C14.6534 14.0738 15.0246 13.976 15.3494 13.7805C15.6776 13.5849 15.9344 13.3164 16.12 12.9751C16.3089 12.6304 16.4034 12.2409 16.4034 11.8067C16.4034 11.3626 16.3056 10.9665 16.1101 10.6185C15.9179 10.2672 15.6527 9.99044 15.3146 9.78826C14.9766 9.58609 14.5904 9.48334 14.1562 9.48002C13.8447 9.47671 13.5249 9.52477 13.1967 9.6242C12.8686 9.72032 12.5985 9.84461 12.3864 9.99707L11.233 9.85787L11.8494 4.8465H17.1392V5.94025H12.8835L12.5256 8.94309H12.5852C12.794 8.77737 13.0559 8.63983 13.3707 8.53045C13.6856 8.42108 14.0137 8.36639 14.3551 8.36639C14.9782 8.36639 15.5334 8.51554 16.0206 8.81383C16.5111 9.10881 16.8956 9.51317 17.174 10.0269C17.4557 10.5406 17.5966 11.1273 17.5966 11.7868C17.5966 12.4365 17.4508 13.0165 17.1591 13.5269C16.8707 14.034 16.473 14.435 15.9659 14.73C15.4588 15.0217 14.8821 15.1675 14.2358 15.1675Z" fill="#48403F"/>
<defs>
<linearGradient id="paint0_linear_806_4390" x1="43.7434" y1="4.08465" x2="43.115" y2="1.45727" gradientUnits="userSpaceOnUse">
<stop stop-color="#F4EBE2"/>
<stop offset="1" stop-color="#978E85"/>
</linearGradient>
<linearGradient id="paint1_linear_806_4390" x1="47.5208" y1="43.2892" x2="43.3479" y2="46.5597" gradientUnits="userSpaceOnUse">
<stop stop-color="#F4EBE2"/>
<stop offset="1" stop-color="#D0C5B9"/>
</linearGradient>
<linearGradient id="paint2_linear_806_4390" x1="2.79501" y1="42.843" x2="7.56468" y2="46.1149" gradientUnits="userSpaceOnUse">
<stop stop-color="#978E85"/>
<stop offset="1" stop-color="#D0C5B9"/>
</linearGradient>
<linearGradient id="paint3_linear_806_4390" x1="17.6603" y1="21" x2="33.4197" y2="21" gradientUnits="userSpaceOnUse">
<stop stop-color="#ECE0D4"/>
<stop offset="0.482638" stop-color="#DDD4CB"/>
<stop offset="1" stop-color="#C3B9AF"/>
</linearGradient>
<linearGradient id="paint4_linear_806_4390" x1="43.7434" y1="4.08465" x2="43.115" y2="1.45727" gradientUnits="userSpaceOnUse">
<stop stop-color="#F4EBE2"/>
<stop offset="1" stop-color="#978E85"/>
</linearGradient>
<linearGradient id="paint5_linear_806_4390" x1="47.5208" y1="43.2892" x2="43.3479" y2="46.5597" gradientUnits="userSpaceOnUse">
<stop stop-color="#F4EBE2"/>
<stop offset="1" stop-color="#D0C5B9"/>
</linearGradient>
<linearGradient id="paint6_linear_806_4390" x1="2.79501" y1="42.843" x2="7.56468" y2="46.1149" gradientUnits="userSpaceOnUse">
<stop stop-color="#978E85"/>
<stop offset="1" stop-color="#D0C5B9"/>
</linearGradient>
<linearGradient id="paint7_linear_806_4390" x1="17.6603" y1="21" x2="33.4197" y2="21" gradientUnits="userSpaceOnUse">
<stop stop-color="#ECE0D4"/>
<stop offset="0.482638" stop-color="#DDD4CB"/>
<stop offset="1" stop-color="#C3B9AF"/>
</linearGradient>
<linearGradient id="paint8_linear_806_4390" x1="43.7434" y1="4.12001" x2="43.1124" y2="1.48747" gradientUnits="userSpaceOnUse">
<stop stop-color="#F4EBE2"/>
<stop offset="1" stop-color="#978E85"/>
</linearGradient>
<linearGradient id="paint9_linear_806_4390" x1="47.5208" y1="43.4106" x2="43.3409" y2="46.6794" gradientUnits="userSpaceOnUse">
<stop stop-color="#F4EBE2"/>
<stop offset="1" stop-color="#D0C5B9"/>
</linearGradient>
<linearGradient id="paint10_linear_806_4390" x1="2.79501" y1="42.9637" x2="7.57139" y2="46.233" gradientUnits="userSpaceOnUse">
<stop stop-color="#978E85"/>
<stop offset="1" stop-color="#D0C5B9"/>
</linearGradient>
<linearGradient id="paint11_linear_806_4390" x1="17.6603" y1="21.0724" x2="33.4197" y2="21.0724" gradientUnits="userSpaceOnUse">
<stop stop-color="#ECE0D4"/>
<stop offset="0.482638" stop-color="#DDD4CB"/>
<stop offset="1" stop-color="#C3B9AF"/>
</linearGradient>
</defs>
</svg>
