<svg width="52" height="53" viewBox="0 0 52 53" fill="none" xmlns="http://www.w3.org/2000/svg">
<path d="M46.7356 0.0292969H4.78247C2.14777 0.0292969 0.0118408 1.82529 0.0118408 4.04077V48.062C0.0118408 50.2774 2.14777 52.0734 4.78247 52.0734H46.7356C49.3703 52.0734 51.5061 50.2774 51.5061 48.062V4.04077C51.5061 1.82529 49.3703 0.0292969 46.7356 0.0292969Z" fill="#978E85"/>
<path d="M51.4819 3.89355H40.2025V38.4573H51.4819V3.89355Z" fill="#F4EBE2"/>
<path fill-rule="evenodd" clip-rule="evenodd" d="M42.3634 6.90866L51.4573 3.93716C51.096 1.08033 49.1281 0.09147 46.3885 0C42.7431 0.10572 39.1858 0.260118 37.2947 1.33713L42.3634 6.90866Z" fill="url(#paint0_linear_806_4389)"/>
<path d="M42.5743 39.0879H9.10498V52.0624H42.5743V39.0879Z" fill="#D0C5B9"/>
<path fill-rule="evenodd" clip-rule="evenodd" d="M40.6639 36.041L51.469 37.1966L51.5085 47.7023C51.5029 50.4118 49.3417 51.9685 47.1074 52.0622L42.2977 52.0097L36.9744 39.6655L40.6639 36.041Z" fill="url(#paint1_linear_806_4389)"/>
<path fill-rule="evenodd" clip-rule="evenodd" d="M7.52405 35.9355L0.0395508 37.1962L0 47.7019C0.0056 50.4114 2.16682 51.9681 4.40112 52.0618L9.21057 52.0093L10.8973 39.7176L7.52405 35.9355Z" fill="url(#paint2_linear_806_4389)"/>
<path d="M38.2994 1H11.7006C9.10453 1 7 3.11561 7 5.72536V36.2746C7 38.8844 8.90388 41.5 11.5 41.5H38C40.5961 41.5 43 38.8844 43 36.2746V5.72536C43 3.11561 40.8955 1 38.2994 1Z" fill="#F1F1F1"/>
<path d="M37.294 1H11.7058C9.10685 1 7 3.11561 7 5.72536V36.2746C7 38.8844 9.10685 41 11.7058 41H37.294C39.893 41 42 38.8844 42 36.2746V5.72536C42 3.11561 39.893 1 37.294 1Z" fill="url(#paint3_linear_806_4389)"/>
<path d="M10.8153 12.9119V11.8977L15.2898 4.81818H16.0256V6.3892H15.5284L12.1477 11.7386V11.8182H18.1733V12.9119H10.8153ZM15.608 15V12.6037V12.1314V4.81818H16.7812V15H15.608Z" fill="#48403F"/>
<path d="M46.7356 0.0292969H4.78247C2.14777 0.0292969 0.0118408 1.82529 0.0118408 4.04077V48.062C0.0118408 50.2774 2.14777 52.0734 4.78247 52.0734H46.7356C49.3703 52.0734 51.5061 50.2774 51.5061 48.062V4.04077C51.5061 1.82529 49.3703 0.0292969 46.7356 0.0292969Z" fill="#978E85"/>
<path d="M51.4819 3.89355H40.2025V38.4573H51.4819V3.89355Z" fill="#F4EBE2"/>
<path fill-rule="evenodd" clip-rule="evenodd" d="M42.3634 6.90866L51.4573 3.93716C51.096 1.08033 49.1281 0.09147 46.3885 0C42.7431 0.10572 39.1858 0.260118 37.2947 1.33713L42.3634 6.90866Z" fill="url(#paint4_linear_806_4389)"/>
<path d="M42.5743 39.0879H9.10498V52.0624H42.5743V39.0879Z" fill="#D0C5B9"/>
<path fill-rule="evenodd" clip-rule="evenodd" d="M40.6639 36.041L51.469 37.1966L51.5085 47.7023C51.5029 50.4118 49.3417 51.9685 47.1074 52.0622L42.2977 52.0097L36.9744 39.6655L40.6639 36.041Z" fill="url(#paint5_linear_806_4389)"/>
<path fill-rule="evenodd" clip-rule="evenodd" d="M7.52405 35.9355L0.0395508 37.1962L0 47.7019C0.0056 50.4114 2.16682 51.9681 4.40112 52.0618L9.21057 52.0093L10.8973 39.7176L7.52405 35.9355Z" fill="url(#paint6_linear_806_4389)"/>
<path d="M38.2994 1H11.7006C9.10453 1 7 3.11561 7 5.72536V36.2746C7 38.8844 8.90388 41.5 11.5 41.5H38C40.5961 41.5 43 38.8844 43 36.2746V5.72536C43 3.11561 40.8955 1 38.2994 1Z" fill="#F1F1F1"/>
<path d="M37.294 1H11.7058C9.10685 1 7 3.11561 7 5.72536V36.2746C7 38.8844 9.10685 41 11.7058 41H37.294C39.893 41 42 38.8844 42 36.2746V5.72536C42 3.11561 39.893 1 37.294 1Z" fill="url(#paint7_linear_806_4389)"/>
<path d="M10.8153 12.9119V11.8977L15.2898 4.81818H16.0256V6.3892H15.5284L12.1477 11.7386V11.8182H18.1733V12.9119H10.8153ZM15.608 15V12.6037V12.1314V4.81818H16.7812V15H15.608Z" fill="#48403F"/>
<path d="M46.7356 0.229492H4.78247C2.14777 0.229492 0.0118408 2.02944 0.0118408 4.2498V48.3679C0.0118408 50.5882 2.14777 52.3882 4.78247 52.3882H46.7356C49.3703 52.3882 51.5061 50.5882 51.5061 48.3679V4.2498C51.5061 2.02944 49.3703 0.229492 46.7356 0.229492Z" fill="#978E85"/>
<path d="M51.4819 4.10254H40.2025V38.7424H51.4819V4.10254Z" fill="#F4EBE2"/>
<path fill-rule="evenodd" clip-rule="evenodd" d="M42.3634 7.12407L51.4573 4.14603C51.096 1.28291 49.1281 0.291867 46.3885 0.200195C42.7431 0.306148 39.1858 0.460886 37.2947 1.54027L42.3634 7.12407Z" fill="url(#paint8_linear_806_4389)"/>
<path d="M42.5743 39.374H9.10498V52.3771H42.5743V39.374Z" fill="#D0C5B9"/>
<path fill-rule="evenodd" clip-rule="evenodd" d="M40.6639 36.3203L51.469 37.4785L51.5085 48.0073C51.5029 50.7227 49.3417 52.2828 47.1074 52.3768L42.2977 52.3241L36.9744 39.9527L40.6639 36.3203Z" fill="url(#paint9_linear_806_4389)"/>
<path fill-rule="evenodd" clip-rule="evenodd" d="M7.52405 36.2148L0.0395508 37.4783L0 48.0071C0.0056 50.7225 2.16682 52.2827 4.40112 52.3766L9.21057 52.324L10.8973 40.0052L7.52405 36.2148Z" fill="url(#paint10_linear_806_4389)"/>
<path d="M38.2994 1.20215H11.7006C9.10453 1.20215 7 3.32242 7 5.93791V36.5545C7 39.1699 8.90388 41.7913 11.5 41.7913H38C40.5961 41.7913 43 39.1699 43 36.5545V5.93791C43 3.32242 40.8955 1.20215 38.2994 1.20215Z" fill="#F1F1F1"/>
<path d="M37.294 1.20215H11.7058C9.10685 1.20215 7 3.32242 7 5.93791V36.5545C7 39.1699 9.10685 41.2902 11.7058 41.2902H37.294C39.893 41.2902 42 39.1699 42 36.5545V5.93791C42 3.32242 39.893 1.20215 37.294 1.20215Z" fill="url(#paint11_linear_806_4389)"/>
<path d="M10.8153 13.1141V12.0999L15.2898 5.02033H16.0256V6.59135H15.5284L12.1477 11.9408V12.0203H18.1733V13.1141H10.8153ZM15.608 15.2021V12.8058V12.3335V5.02033H16.7812V15.2021H15.608Z" fill="#48403F"/>
<defs>
<linearGradient id="paint0_linear_806_4389" x1="43.7434" y1="4.08465" x2="43.115" y2="1.45727" gradientUnits="userSpaceOnUse">
<stop stop-color="#F4EBE2"/>
<stop offset="1" stop-color="#978E85"/>
</linearGradient>
<linearGradient id="paint1_linear_806_4389" x1="47.5208" y1="43.2892" x2="43.3479" y2="46.5597" gradientUnits="userSpaceOnUse">
<stop stop-color="#F4EBE2"/>
<stop offset="1" stop-color="#D0C5B9"/>
</linearGradient>
<linearGradient id="paint2_linear_806_4389" x1="2.79501" y1="42.843" x2="7.56468" y2="46.1149" gradientUnits="userSpaceOnUse">
<stop stop-color="#978E85"/>
<stop offset="1" stop-color="#D0C5B9"/>
</linearGradient>
<linearGradient id="paint3_linear_806_4389" x1="17.6603" y1="21" x2="33.4197" y2="21" gradientUnits="userSpaceOnUse">
<stop stop-color="#ECE0D4"/>
<stop offset="0.482638" stop-color="#DDD4CB"/>
<stop offset="1" stop-color="#C3B9AF"/>
</linearGradient>
<linearGradient id="paint4_linear_806_4389" x1="43.7434" y1="4.08465" x2="43.115" y2="1.45727" gradientUnits="userSpaceOnUse">
<stop stop-color="#F4EBE2"/>
<stop offset="1" stop-color="#978E85"/>
</linearGradient>
<linearGradient id="paint5_linear_806_4389" x1="47.5208" y1="43.2892" x2="43.3479" y2="46.5597" gradientUnits="userSpaceOnUse">
<stop stop-color="#F4EBE2"/>
<stop offset="1" stop-color="#D0C5B9"/>
</linearGradient>
<linearGradient id="paint6_linear_806_4389" x1="2.79501" y1="42.843" x2="7.56468" y2="46.1149" gradientUnits="userSpaceOnUse">
<stop stop-color="#978E85"/>
<stop offset="1" stop-color="#D0C5B9"/>
</linearGradient>
<linearGradient id="paint7_linear_806_4389" x1="17.6603" y1="21" x2="33.4197" y2="21" gradientUnits="userSpaceOnUse">
<stop stop-color="#ECE0D4"/>
<stop offset="0.482638" stop-color="#DDD4CB"/>
<stop offset="1" stop-color="#C3B9AF"/>
</linearGradient>
<linearGradient id="paint8_linear_806_4389" x1="43.7434" y1="4.29384" x2="43.1124" y2="1.6613" gradientUnits="userSpaceOnUse">
<stop stop-color="#F4EBE2"/>
<stop offset="1" stop-color="#978E85"/>
</linearGradient>
<linearGradient id="paint9_linear_806_4389" x1="47.5208" y1="43.5844" x2="43.3409" y2="46.8533" gradientUnits="userSpaceOnUse">
<stop stop-color="#F4EBE2"/>
<stop offset="1" stop-color="#D0C5B9"/>
</linearGradient>
<linearGradient id="paint10_linear_806_4389" x1="2.79501" y1="43.1375" x2="7.57139" y2="46.4069" gradientUnits="userSpaceOnUse">
<stop stop-color="#978E85"/>
<stop offset="1" stop-color="#D0C5B9"/>
</linearGradient>
<linearGradient id="paint11_linear_806_4389" x1="17.6603" y1="21.2462" x2="33.4197" y2="21.2462" gradientUnits="userSpaceOnUse">
<stop stop-color="#ECE0D4"/>
<stop offset="0.482638" stop-color="#DDD4CB"/>
<stop offset="1" stop-color="#C3B9AF"/>
</linearGradient>
</defs>
</svg>
