<svg width="52" height="53" viewBox="0 0 52 53" fill="none" xmlns="http://www.w3.org/2000/svg">
<path d="M46.7356 0.0292969H4.78247C2.14777 0.0292969 0.0118408 1.82529 0.0118408 4.04077V48.062C0.0118408 50.2774 2.14777 52.0734 4.78247 52.0734H46.7356C49.3703 52.0734 51.5061 50.2774 51.5061 48.062V4.04077C51.5061 1.82529 49.3703 0.0292969 46.7356 0.0292969Z" fill="#978E85"/>
<path d="M51.4819 3.89355H40.2025V38.4573H51.4819V3.89355Z" fill="#F4EBE2"/>
<path fill-rule="evenodd" clip-rule="evenodd" d="M42.3634 6.90866L51.4573 3.93716C51.096 1.08033 49.1281 0.09147 46.3885 0C42.7431 0.10572 39.1858 0.260118 37.2947 1.33713L42.3634 6.90866Z" fill="url(#paint0_linear_806_4391)"/>
<path d="M42.5743 39.0879H9.10498V52.0624H42.5743V39.0879Z" fill="#D0C5B9"/>
<path fill-rule="evenodd" clip-rule="evenodd" d="M40.6639 36.041L51.469 37.1966L51.5085 47.7023C51.5029 50.4118 49.3417 51.9685 47.1074 52.0622L42.2977 52.0097L36.9744 39.6655L40.6639 36.041Z" fill="url(#paint1_linear_806_4391)"/>
<path fill-rule="evenodd" clip-rule="evenodd" d="M7.52405 35.9355L0.0395508 37.1962L0 47.7019C0.0056 50.4114 2.16682 51.9681 4.40112 52.0618L9.21057 52.0093L10.8973 39.7176L7.52405 35.9355Z" fill="url(#paint2_linear_806_4391)"/>
<path d="M38.2994 1H11.7006C9.10453 1 7 3.11561 7 5.72536V36.2746C7 38.8844 8.90388 41.5 11.5 41.5H38C40.5961 41.5 43 38.8844 43 36.2746V5.72536C43 3.11561 40.8955 1 38.2994 1Z" fill="#F1F1F1"/>
<path d="M37.294 1H11.7058C9.10685 1 7 3.11561 7 5.72536V36.2746C7 38.8844 9.10685 41 11.7058 41H37.294C39.893 41 42 38.8844 42 36.2746V5.72536C42 3.11561 39.893 1 37.294 1Z" fill="url(#paint3_linear_806_4391)"/>
<path d="M14.4347 15.1392C14.017 15.1326 13.5994 15.053 13.1818 14.9006C12.7642 14.7481 12.383 14.4912 12.0384 14.13C11.6937 13.7654 11.4169 13.2732 11.2081 12.6534C10.9993 12.0303 10.8949 11.2481 10.8949 10.3068C10.8949 9.4053 10.9794 8.60653 11.1484 7.91051C11.3175 7.21117 11.5627 6.62287 11.8842 6.1456C12.2057 5.66501 12.5935 5.30043 13.0476 5.05185C13.505 4.80327 14.0204 4.67898 14.5938 4.67898C15.1638 4.67898 15.6709 4.79332 16.1151 5.02202C16.5625 5.2474 16.9271 5.56226 17.2088 5.96662C17.4905 6.37098 17.6728 6.83665 17.7557 7.36364H16.5426C16.4299 6.90625 16.2112 6.52675 15.8864 6.22514C15.5616 5.92353 15.1307 5.77273 14.5938 5.77273C13.8049 5.77273 13.1835 6.11577 12.7294 6.80185C12.2786 7.48793 12.0516 8.45076 12.0483 9.69034H12.1278C12.3134 9.40862 12.5339 9.16832 12.7891 8.96946C13.0476 8.76728 13.3326 8.61151 13.6442 8.50213C13.9557 8.39276 14.2855 8.33807 14.6335 8.33807C15.2169 8.33807 15.7505 8.4839 16.2344 8.77557C16.7183 9.06392 17.1061 9.4633 17.3977 9.97372C17.6894 10.4808 17.8352 11.0625 17.8352 11.7188C17.8352 12.3485 17.6944 12.9252 17.4126 13.4489C17.1309 13.9692 16.7348 14.3835 16.2244 14.6918C15.7173 14.9967 15.1207 15.1458 14.4347 15.1392ZM14.4347 14.0455C14.8523 14.0455 15.2268 13.9411 15.5582 13.7322C15.893 13.5234 16.1565 13.2434 16.3487 12.892C16.5443 12.5407 16.642 12.1496 16.642 11.7188C16.642 11.2978 16.5476 10.915 16.3587 10.5703C16.1731 10.2223 15.9162 9.94555 15.5881 9.74006C15.2633 9.53456 14.892 9.43182 14.4744 9.43182C14.1596 9.43182 13.8662 9.49479 13.5945 9.62074C13.3227 9.74337 13.084 9.91241 12.8786 10.1278C12.6764 10.3433 12.5173 10.5902 12.4013 10.8686C12.2853 11.1437 12.2273 11.4337 12.2273 11.7386C12.2273 12.143 12.3217 12.5208 12.5107 12.8722C12.7029 13.2235 12.9647 13.5069 13.2962 13.7223C13.6309 13.9377 14.0104 14.0455 14.4347 14.0455Z" fill="#48403F"/>
<path d="M46.7356 0.0292969H4.78247C2.14777 0.0292969 0.0118408 1.82529 0.0118408 4.04077V48.062C0.0118408 50.2774 2.14777 52.0734 4.78247 52.0734H46.7356C49.3703 52.0734 51.5061 50.2774 51.5061 48.062V4.04077C51.5061 1.82529 49.3703 0.0292969 46.7356 0.0292969Z" fill="#978E85"/>
<path d="M51.4819 3.89355H40.2025V38.4573H51.4819V3.89355Z" fill="#F4EBE2"/>
<path fill-rule="evenodd" clip-rule="evenodd" d="M42.3634 6.90866L51.4573 3.93716C51.096 1.08033 49.1281 0.09147 46.3885 0C42.7431 0.10572 39.1858 0.260118 37.2947 1.33713L42.3634 6.90866Z" fill="url(#paint4_linear_806_4391)"/>
<path d="M42.5743 39.0879H9.10498V52.0624H42.5743V39.0879Z" fill="#D0C5B9"/>
<path fill-rule="evenodd" clip-rule="evenodd" d="M40.6639 36.041L51.469 37.1966L51.5085 47.7023C51.5029 50.4118 49.3417 51.9685 47.1074 52.0622L42.2977 52.0097L36.9744 39.6655L40.6639 36.041Z" fill="url(#paint5_linear_806_4391)"/>
<path fill-rule="evenodd" clip-rule="evenodd" d="M7.52405 35.9355L0.0395508 37.1962L0 47.7019C0.0056 50.4114 2.16682 51.9681 4.40112 52.0618L9.21057 52.0093L10.8973 39.7176L7.52405 35.9355Z" fill="url(#paint6_linear_806_4391)"/>
<path d="M38.2994 1H11.7006C9.10453 1 7 3.11561 7 5.72536V36.2746C7 38.8844 8.90388 41.5 11.5 41.5H38C40.5961 41.5 43 38.8844 43 36.2746V5.72536C43 3.11561 40.8955 1 38.2994 1Z" fill="#F1F1F1"/>
<path d="M37.294 1H11.7058C9.10685 1 7 3.11561 7 5.72536V36.2746C7 38.8844 9.10685 41 11.7058 41H37.294C39.893 41 42 38.8844 42 36.2746V5.72536C42 3.11561 39.893 1 37.294 1Z" fill="url(#paint7_linear_806_4391)"/>
<path d="M14.4347 15.1392C14.017 15.1326 13.5994 15.053 13.1818 14.9006C12.7642 14.7481 12.383 14.4912 12.0384 14.13C11.6937 13.7654 11.4169 13.2732 11.2081 12.6534C10.9993 12.0303 10.8949 11.2481 10.8949 10.3068C10.8949 9.4053 10.9794 8.60653 11.1484 7.91051C11.3175 7.21117 11.5627 6.62287 11.8842 6.1456C12.2057 5.66501 12.5935 5.30043 13.0476 5.05185C13.505 4.80327 14.0204 4.67898 14.5938 4.67898C15.1638 4.67898 15.6709 4.79332 16.1151 5.02202C16.5625 5.2474 16.9271 5.56226 17.2088 5.96662C17.4905 6.37098 17.6728 6.83665 17.7557 7.36364H16.5426C16.4299 6.90625 16.2112 6.52675 15.8864 6.22514C15.5616 5.92353 15.1307 5.77273 14.5938 5.77273C13.8049 5.77273 13.1835 6.11577 12.7294 6.80185C12.2786 7.48793 12.0516 8.45076 12.0483 9.69034H12.1278C12.3134 9.40862 12.5339 9.16832 12.7891 8.96946C13.0476 8.76728 13.3326 8.61151 13.6442 8.50213C13.9557 8.39276 14.2855 8.33807 14.6335 8.33807C15.2169 8.33807 15.7505 8.4839 16.2344 8.77557C16.7183 9.06392 17.1061 9.4633 17.3977 9.97372C17.6894 10.4808 17.8352 11.0625 17.8352 11.7188C17.8352 12.3485 17.6944 12.9252 17.4126 13.4489C17.1309 13.9692 16.7348 14.3835 16.2244 14.6918C15.7173 14.9967 15.1207 15.1458 14.4347 15.1392ZM14.4347 14.0455C14.8523 14.0455 15.2268 13.9411 15.5582 13.7322C15.893 13.5234 16.1565 13.2434 16.3487 12.892C16.5443 12.5407 16.642 12.1496 16.642 11.7188C16.642 11.2978 16.5476 10.915 16.3587 10.5703C16.1731 10.2223 15.9162 9.94555 15.5881 9.74006C15.2633 9.53456 14.892 9.43182 14.4744 9.43182C14.1596 9.43182 13.8662 9.49479 13.5945 9.62074C13.3227 9.74337 13.084 9.91241 12.8786 10.1278C12.6764 10.3433 12.5173 10.5902 12.4013 10.8686C12.2853 11.1437 12.2273 11.4337 12.2273 11.7386C12.2273 12.143 12.3217 12.5208 12.5107 12.8722C12.7029 13.2235 12.9647 13.5069 13.2962 13.7223C13.6309 13.9377 14.0104 14.0455 14.4347 14.0455Z" fill="#48403F"/>
<path d="M46.7356 0.546875H4.78247C2.14777 0.546875 0.0118408 2.34683 0.0118408 4.56718V48.6853C0.0118408 50.9056 2.14777 52.7056 4.78247 52.7056H46.7356C49.3703 52.7056 51.5061 50.9056 51.5061 48.6853V4.56718C51.5061 2.34683 49.3703 0.546875 46.7356 0.546875Z" fill="#978E85"/>
<path d="M51.4819 4.41992H40.2025V39.0598H51.4819V4.41992Z" fill="#F4EBE2"/>
<path fill-rule="evenodd" clip-rule="evenodd" d="M42.3634 7.44145L51.4573 4.46341C51.096 1.60029 49.1281 0.609249 46.3885 0.517578C42.7431 0.623531 39.1858 0.778268 37.2947 1.85765L42.3634 7.44145Z" fill="url(#paint8_linear_806_4391)"/>
<path d="M42.5743 39.6914H9.10498V52.6945H42.5743V39.6914Z" fill="#D0C5B9"/>
<path fill-rule="evenodd" clip-rule="evenodd" d="M40.6639 36.6377L51.469 37.7958L51.5085 48.3247C51.5029 51.0401 49.3417 52.6002 47.1074 52.6942L42.2977 52.6415L36.9744 40.2701L40.6639 36.6377Z" fill="url(#paint9_linear_806_4391)"/>
<path fill-rule="evenodd" clip-rule="evenodd" d="M7.52405 36.5322L0.0395508 37.7957L0 48.3245C0.0056 51.0399 2.16682 52.6 4.40112 52.694L9.21057 52.6413L10.8973 40.3226L7.52405 36.5322Z" fill="url(#paint10_linear_806_4391)"/>
<path d="M38.2994 1.51953H11.7006C9.10453 1.51953 7 3.6398 7 6.25529V36.8718C7 39.4873 8.90388 42.1087 11.5 42.1087H38C40.5961 42.1087 43 39.4873 43 36.8718V6.25529C43 3.6398 40.8955 1.51953 38.2994 1.51953Z" fill="#F1F1F1"/>
<path d="M37.294 1.51953H11.7058C9.10685 1.51953 7 3.6398 7 6.25529V36.8718C7 39.4873 9.10685 41.6076 11.7058 41.6076H37.294C39.893 41.6076 42 39.4873 42 36.8718V6.25529C42 3.6398 39.893 1.51953 37.294 1.51953Z" fill="url(#paint11_linear_806_4391)"/>
<path d="M14.4347 15.6587C14.017 15.6521 13.5994 15.5726 13.1818 15.4201C12.7642 15.2676 12.383 15.0108 12.0384 14.6495C11.6937 14.2849 11.4169 13.7927 11.2081 13.1729C10.9993 12.5498 10.8949 11.7676 10.8949 10.8263C10.8949 9.92483 10.9794 9.12607 11.1484 8.43004C11.3175 7.73071 11.5627 7.1424 11.8842 6.66513C12.2057 6.18454 12.5935 5.81996 13.0476 5.57138C13.505 5.3228 14.0204 5.19851 14.5938 5.19851C15.1638 5.19851 15.6709 5.31285 16.1151 5.54155C16.5625 5.76693 16.9271 6.08179 17.2088 6.48615C17.4905 6.89051 17.6728 7.35618 17.7557 7.88317H16.5426C16.4299 7.42578 16.2112 7.04628 15.8864 6.74467C15.5616 6.44306 15.1307 6.29226 14.5938 6.29226C13.8049 6.29226 13.1835 6.6353 12.7294 7.32138C12.2786 8.00746 12.0516 8.97029 12.0483 10.2099H12.1278C12.3134 9.92815 12.5339 9.68786 12.7891 9.48899C13.0476 9.28681 13.3326 9.13104 13.6442 9.02166C13.9557 8.91229 14.2855 8.8576 14.6335 8.8576C15.2169 8.8576 15.7505 9.00343 16.2344 9.2951C16.7183 9.58345 17.1061 9.98284 17.3977 10.4933C17.6894 11.0004 17.8352 11.582 17.8352 12.2383C17.8352 12.868 17.6944 13.4447 17.4126 13.9684C17.1309 14.4888 16.7348 14.9031 16.2244 15.2113C15.7173 15.5162 15.1207 15.6654 14.4347 15.6587ZM14.4347 14.565C14.8523 14.565 15.2268 14.4606 15.5582 14.2518C15.893 14.043 16.1565 13.7629 16.3487 13.4116C16.5443 13.0603 16.642 12.6692 16.642 12.2383C16.642 11.8174 16.5476 11.4345 16.3587 11.0898C16.1731 10.7418 15.9162 10.4651 15.5881 10.2596C15.2633 10.0541 14.892 9.95135 14.4744 9.95135C14.1596 9.95135 13.8662 10.0143 13.5945 10.1403C13.3227 10.2629 13.084 10.4319 12.8786 10.6474C12.6764 10.8628 12.5173 11.1097 12.4013 11.3881C12.2853 11.6632 12.2273 11.9532 12.2273 12.2582C12.2273 12.6625 12.3217 13.0404 12.5107 13.3917C12.7029 13.743 12.9647 14.0264 13.2962 14.2418C13.6309 14.4573 14.0104 14.565 14.4347 14.565Z" fill="#48403F"/>
<defs>
<linearGradient id="paint0_linear_806_4391" x1="43.7434" y1="4.08465" x2="43.115" y2="1.45727" gradientUnits="userSpaceOnUse">
<stop stop-color="#F4EBE2"/>
<stop offset="1" stop-color="#978E85"/>
</linearGradient>
<linearGradient id="paint1_linear_806_4391" x1="47.5208" y1="43.2892" x2="43.3479" y2="46.5597" gradientUnits="userSpaceOnUse">
<stop stop-color="#F4EBE2"/>
<stop offset="1" stop-color="#D0C5B9"/>
</linearGradient>
<linearGradient id="paint2_linear_806_4391" x1="2.79501" y1="42.843" x2="7.56468" y2="46.1149" gradientUnits="userSpaceOnUse">
<stop stop-color="#978E85"/>
<stop offset="1" stop-color="#D0C5B9"/>
</linearGradient>
<linearGradient id="paint3_linear_806_4391" x1="17.6603" y1="21" x2="33.4197" y2="21" gradientUnits="userSpaceOnUse">
<stop stop-color="#ECE0D4"/>
<stop offset="0.482638" stop-color="#DDD4CB"/>
<stop offset="1" stop-color="#C3B9AF"/>
</linearGradient>
<linearGradient id="paint4_linear_806_4391" x1="43.7434" y1="4.08465" x2="43.115" y2="1.45727" gradientUnits="userSpaceOnUse">
<stop stop-color="#F4EBE2"/>
<stop offset="1" stop-color="#978E85"/>
</linearGradient>
<linearGradient id="paint5_linear_806_4391" x1="47.5208" y1="43.2892" x2="43.3479" y2="46.5597" gradientUnits="userSpaceOnUse">
<stop stop-color="#F4EBE2"/>
<stop offset="1" stop-color="#D0C5B9"/>
</linearGradient>
<linearGradient id="paint6_linear_806_4391" x1="2.79501" y1="42.843" x2="7.56468" y2="46.1149" gradientUnits="userSpaceOnUse">
<stop stop-color="#978E85"/>
<stop offset="1" stop-color="#D0C5B9"/>
</linearGradient>
<linearGradient id="paint7_linear_806_4391" x1="17.6603" y1="21" x2="33.4197" y2="21" gradientUnits="userSpaceOnUse">
<stop stop-color="#ECE0D4"/>
<stop offset="0.482638" stop-color="#DDD4CB"/>
<stop offset="1" stop-color="#C3B9AF"/>
</linearGradient>
<linearGradient id="paint8_linear_806_4391" x1="43.7434" y1="4.61122" x2="43.1124" y2="1.97868" gradientUnits="userSpaceOnUse">
<stop stop-color="#F4EBE2"/>
<stop offset="1" stop-color="#978E85"/>
</linearGradient>
<linearGradient id="paint9_linear_806_4391" x1="47.5208" y1="43.9018" x2="43.3409" y2="47.1706" gradientUnits="userSpaceOnUse">
<stop stop-color="#F4EBE2"/>
<stop offset="1" stop-color="#D0C5B9"/>
</linearGradient>
<linearGradient id="paint10_linear_806_4391" x1="2.79501" y1="43.4549" x2="7.57139" y2="46.7242" gradientUnits="userSpaceOnUse">
<stop stop-color="#978E85"/>
<stop offset="1" stop-color="#D0C5B9"/>
</linearGradient>
<linearGradient id="paint11_linear_806_4391" x1="17.6603" y1="21.5636" x2="33.4197" y2="21.5636" gradientUnits="userSpaceOnUse">
<stop stop-color="#ECE0D4"/>
<stop offset="0.482638" stop-color="#DDD4CB"/>
<stop offset="1" stop-color="#C3B9AF"/>
</linearGradient>
</defs>
</svg>
