<svg width="52" height="53" viewBox="0 0 52 53" fill="none" xmlns="http://www.w3.org/2000/svg">
<path d="M46.7356 0.0292969H4.78247C2.14777 0.0292969 0.0118408 1.82529 0.0118408 4.04077V48.062C0.0118408 50.2774 2.14777 52.0734 4.78247 52.0734H46.7356C49.3703 52.0734 51.5061 50.2774 51.5061 48.062V4.04077C51.5061 1.82529 49.3703 0.0292969 46.7356 0.0292969Z" fill="#978E85"/>
<path d="M51.4819 3.89355H40.2025V38.4573H51.4819V3.89355Z" fill="#F4EBE2"/>
<path fill-rule="evenodd" clip-rule="evenodd" d="M42.3634 6.90866L51.4573 3.93716C51.096 1.08033 49.1281 0.09147 46.3885 0C42.7431 0.10572 39.1858 0.260118 37.2947 1.33713L42.3634 6.90866Z" fill="url(#paint0_linear_806_4386)"/>
<path d="M42.5743 39.0879H9.10498V52.0624H42.5743V39.0879Z" fill="#D0C5B9"/>
<path fill-rule="evenodd" clip-rule="evenodd" d="M40.6639 36.041L51.469 37.1966L51.5085 47.7023C51.5029 50.4118 49.3417 51.9685 47.1074 52.0622L42.2977 52.0097L36.9744 39.6655L40.6639 36.041Z" fill="url(#paint1_linear_806_4386)"/>
<path fill-rule="evenodd" clip-rule="evenodd" d="M7.52405 35.9355L0.0395508 37.1962L0 47.7019C0.0056 50.4114 2.16682 51.9681 4.40112 52.0618L9.21057 52.0093L10.8973 39.7176L7.52405 35.9355Z" fill="url(#paint2_linear_806_4386)"/>
<path d="M38.2994 1H11.7006C9.10453 1 7 3.11561 7 5.72536V36.2746C7 38.8844 8.90388 41.5 11.5 41.5H38C40.5961 41.5 43 38.8844 43 36.2746V5.72536C43 3.11561 40.8955 1 38.2994 1Z" fill="#F1F1F1"/>
<path d="M37.294 1H11.7058C9.10685 1 7 3.11561 7 5.72536V36.2746C7 38.8844 9.10685 41 11.7058 41H37.294C39.893 41 42 38.8844 42 36.2746V5.72536C42 3.11561 39.893 1 37.294 1Z" fill="url(#paint3_linear_806_4386)"/>
<path d="M14.4943 15.1392C13.8381 15.1392 13.2531 15.0265 12.7393 14.8011C12.2289 14.5758 11.8229 14.2625 11.5213 13.8615C11.223 13.4571 11.0606 12.9882 11.0341 12.4545H12.2869C12.3134 12.7827 12.4261 13.0661 12.625 13.3047C12.8239 13.54 13.084 13.7223 13.4055 13.8516C13.727 13.9808 14.0833 14.0455 14.4744 14.0455C14.9119 14.0455 15.2997 13.9692 15.6378 13.8168C15.9759 13.6643 16.241 13.4522 16.4332 13.1804C16.6255 12.9086 16.7216 12.5938 16.7216 12.2358C16.7216 11.8613 16.6288 11.5315 16.4432 11.2464C16.2576 10.9581 15.9858 10.7327 15.6278 10.5703C15.2699 10.4079 14.8324 10.3267 14.3153 10.3267H13.5V9.23295H14.3153C14.7197 9.23295 15.0743 9.16004 15.3793 9.0142C15.6875 8.86837 15.9278 8.66288 16.1001 8.39773C16.2758 8.13258 16.3636 7.82102 16.3636 7.46307C16.3636 7.11837 16.2874 6.81842 16.1349 6.56321C15.9825 6.308 15.767 6.10914 15.4886 5.96662C15.2135 5.8241 14.8887 5.75284 14.5142 5.75284C14.1629 5.75284 13.8314 5.81747 13.5199 5.94673C13.2116 6.07268 12.9598 6.25663 12.7642 6.49858C12.5687 6.73722 12.4626 7.02557 12.446 7.36364H11.2528C11.2727 6.83002 11.4335 6.36269 11.7351 5.96165C12.0367 5.55729 12.4311 5.24242 12.9183 5.01705C13.4089 4.79167 13.9474 4.67898 14.5341 4.67898C15.1638 4.67898 15.7041 4.80658 16.1548 5.06179C16.6056 5.31368 16.9519 5.64678 17.1939 6.06108C17.4358 6.47538 17.5568 6.92282 17.5568 7.40341C17.5568 7.9768 17.406 8.46567 17.1044 8.87003C16.8061 9.27438 16.4001 9.55445 15.8864 9.71023V9.78977C16.5294 9.89583 17.0315 10.1693 17.3928 10.6101C17.754 11.0476 17.9347 11.5895 17.9347 12.2358C17.9347 12.7893 17.7839 13.2865 17.4822 13.7273C17.1839 14.1648 16.7763 14.5095 16.2592 14.7614C15.7422 15.0133 15.1539 15.1392 14.4943 15.1392Z" fill="#48403F"/>
<path d="M46.7356 0.0292969H4.78247C2.14777 0.0292969 0.0118408 1.82529 0.0118408 4.04077V48.062C0.0118408 50.2774 2.14777 52.0734 4.78247 52.0734H46.7356C49.3703 52.0734 51.5061 50.2774 51.5061 48.062V4.04077C51.5061 1.82529 49.3703 0.0292969 46.7356 0.0292969Z" fill="#978E85"/>
<path d="M51.4819 3.89355H40.2025V38.4573H51.4819V3.89355Z" fill="#F4EBE2"/>
<path fill-rule="evenodd" clip-rule="evenodd" d="M42.3634 6.90866L51.4573 3.93716C51.096 1.08033 49.1281 0.09147 46.3885 0C42.7431 0.10572 39.1858 0.260118 37.2947 1.33713L42.3634 6.90866Z" fill="url(#paint4_linear_806_4386)"/>
<path d="M42.5743 39.0879H9.10498V52.0624H42.5743V39.0879Z" fill="#D0C5B9"/>
<path fill-rule="evenodd" clip-rule="evenodd" d="M40.6639 36.041L51.469 37.1966L51.5085 47.7023C51.5029 50.4118 49.3417 51.9685 47.1074 52.0622L42.2977 52.0097L36.9744 39.6655L40.6639 36.041Z" fill="url(#paint5_linear_806_4386)"/>
<path fill-rule="evenodd" clip-rule="evenodd" d="M7.52405 35.9355L0.0395508 37.1962L0 47.7019C0.0056 50.4114 2.16682 51.9681 4.40112 52.0618L9.21057 52.0093L10.8973 39.7176L7.52405 35.9355Z" fill="url(#paint6_linear_806_4386)"/>
<path d="M38.2994 1H11.7006C9.10453 1 7 3.11561 7 5.72536V36.2746C7 38.8844 8.90388 41.5 11.5 41.5H38C40.5961 41.5 43 38.8844 43 36.2746V5.72536C43 3.11561 40.8955 1 38.2994 1Z" fill="#F1F1F1"/>
<path d="M37.294 1H11.7058C9.10685 1 7 3.11561 7 5.72536V36.2746C7 38.8844 9.10685 41 11.7058 41H37.294C39.893 41 42 38.8844 42 36.2746V5.72536C42 3.11561 39.893 1 37.294 1Z" fill="url(#paint7_linear_806_4386)"/>
<path d="M14.4943 15.1392C13.8381 15.1392 13.2531 15.0265 12.7393 14.8011C12.2289 14.5758 11.8229 14.2625 11.5213 13.8615C11.223 13.4571 11.0606 12.9882 11.0341 12.4545H12.2869C12.3134 12.7827 12.4261 13.0661 12.625 13.3047C12.8239 13.54 13.084 13.7223 13.4055 13.8516C13.727 13.9808 14.0833 14.0455 14.4744 14.0455C14.9119 14.0455 15.2997 13.9692 15.6378 13.8168C15.9759 13.6643 16.241 13.4522 16.4332 13.1804C16.6255 12.9086 16.7216 12.5938 16.7216 12.2358C16.7216 11.8613 16.6288 11.5315 16.4432 11.2464C16.2576 10.9581 15.9858 10.7327 15.6278 10.5703C15.2699 10.4079 14.8324 10.3267 14.3153 10.3267H13.5V9.23295H14.3153C14.7197 9.23295 15.0743 9.16004 15.3793 9.0142C15.6875 8.86837 15.9278 8.66288 16.1001 8.39773C16.2758 8.13258 16.3636 7.82102 16.3636 7.46307C16.3636 7.11837 16.2874 6.81842 16.1349 6.56321C15.9825 6.308 15.767 6.10914 15.4886 5.96662C15.2135 5.8241 14.8887 5.75284 14.5142 5.75284C14.1629 5.75284 13.8314 5.81747 13.5199 5.94673C13.2116 6.07268 12.9598 6.25663 12.7642 6.49858C12.5687 6.73722 12.4626 7.02557 12.446 7.36364H11.2528C11.2727 6.83002 11.4335 6.36269 11.7351 5.96165C12.0367 5.55729 12.4311 5.24242 12.9183 5.01705C13.4089 4.79167 13.9474 4.67898 14.5341 4.67898C15.1638 4.67898 15.7041 4.80658 16.1548 5.06179C16.6056 5.31368 16.9519 5.64678 17.1939 6.06108C17.4358 6.47538 17.5568 6.92282 17.5568 7.40341C17.5568 7.9768 17.406 8.46567 17.1044 8.87003C16.8061 9.27438 16.4001 9.55445 15.8864 9.71023V9.78977C16.5294 9.89583 17.0315 10.1693 17.3928 10.6101C17.754 11.0476 17.9347 11.5895 17.9347 12.2358C17.9347 12.7893 17.7839 13.2865 17.4822 13.7273C17.1839 14.1648 16.7763 14.5095 16.2592 14.7614C15.7422 15.0133 15.1539 15.1392 14.4943 15.1392Z" fill="#48403F"/>
<path d="M46.7356 0.392578H4.78247C2.14777 0.392578 0.0118408 2.19253 0.0118408 4.41288V48.531C0.0118408 50.7513 2.14777 52.5513 4.78247 52.5513H46.7356C49.3703 52.5513 51.5061 50.7513 51.5061 48.531V4.41288C51.5061 2.19253 49.3703 0.392578 46.7356 0.392578Z" fill="#978E85"/>
<path d="M51.4819 4.26562H40.2025V38.9055H51.4819V4.26562Z" fill="#F4EBE2"/>
<path fill-rule="evenodd" clip-rule="evenodd" d="M42.3634 7.28715L51.4573 4.30911C51.096 1.44599 49.1281 0.454953 46.3885 0.363281C42.7431 0.469234 39.1858 0.623972 37.2947 1.70335L42.3634 7.28715Z" fill="url(#paint8_linear_806_4386)"/>
<path d="M42.5743 39.5371H9.10498V52.5402H42.5743V39.5371Z" fill="#D0C5B9"/>
<path fill-rule="evenodd" clip-rule="evenodd" d="M40.6639 36.4834L51.469 37.6416L51.5085 48.1704C51.5029 50.8858 49.3417 52.4459 47.1074 52.5399L42.2977 52.4872L36.9744 40.1158L40.6639 36.4834Z" fill="url(#paint9_linear_806_4386)"/>
<path fill-rule="evenodd" clip-rule="evenodd" d="M7.52405 36.3779L0.0395508 37.6414L0 48.1702C0.0056 50.8856 2.16682 52.4457 4.40112 52.5397L9.21057 52.487L10.8973 40.1683L7.52405 36.3779Z" fill="url(#paint10_linear_806_4386)"/>
<path d="M38.2994 1.36523H11.7006C9.10453 1.36523 7 3.4855 7 6.10099V36.7175C7 39.333 8.90388 41.9544 11.5 41.9544H38C40.5961 41.9544 43 39.333 43 36.7175V6.10099C43 3.4855 40.8955 1.36523 38.2994 1.36523Z" fill="#F1F1F1"/>
<path d="M37.294 1.36523H11.7058C9.10685 1.36523 7 3.4855 7 6.10099V36.7175C7 39.333 9.10685 41.4533 11.7058 41.4533H37.294C39.893 41.4533 42 39.333 42 36.7175V6.10099C42 3.4855 39.893 1.36523 37.294 1.36523Z" fill="url(#paint11_linear_806_4386)"/>
<path d="M14.4943 15.5044C13.8381 15.5044 13.2531 15.3917 12.7393 15.1664C12.2289 14.941 11.8229 14.6278 11.5213 14.2267C11.223 13.8224 11.0606 13.3534 11.0341 12.8198H12.2869C12.3134 13.1479 12.4261 13.4313 12.625 13.6699C12.8239 13.9052 13.084 14.0875 13.4055 14.2168C13.727 14.3461 14.0833 14.4107 14.4744 14.4107C14.9119 14.4107 15.2997 14.3345 15.6378 14.182C15.9759 14.0295 16.241 13.8174 16.4332 13.5456C16.6255 13.2739 16.7216 12.959 16.7216 12.601C16.7216 12.2265 16.6288 11.8967 16.4432 11.6117C16.2576 11.3233 15.9858 11.098 15.6278 10.9355C15.2699 10.7731 14.8324 10.6919 14.3153 10.6919H13.5V9.59819H14.3153C14.7197 9.59819 15.0743 9.52527 15.3793 9.37944C15.6875 9.23361 15.9278 9.02811 16.1001 8.76296C16.2758 8.49781 16.3636 8.18626 16.3636 7.8283C16.3636 7.48361 16.2874 7.18365 16.1349 6.92844C15.9825 6.67324 15.767 6.47437 15.4886 6.33185C15.2135 6.18933 14.8887 6.11808 14.5142 6.11808C14.1629 6.11808 13.8314 6.18271 13.5199 6.31197C13.2116 6.43791 12.9598 6.62186 12.7642 6.86381C12.5687 7.10245 12.4626 7.3908 12.446 7.72887H11.2528C11.2727 7.19525 11.4335 6.72792 11.7351 6.32688C12.0367 5.92253 12.4311 5.60766 12.9183 5.38228C13.4089 5.1569 13.9474 5.04421 14.5341 5.04421C15.1638 5.04421 15.7041 5.17182 16.1548 5.42702C16.6056 5.67892 16.9519 6.01201 17.1939 6.42631C17.4358 6.84061 17.5568 7.28806 17.5568 7.76864C17.5568 8.34203 17.406 8.83091 17.1044 9.23526C16.8061 9.63962 16.4001 9.91969 15.8864 10.0755V10.155C16.5294 10.2611 17.0315 10.5345 17.3928 10.9753C17.754 11.4128 17.9347 11.9547 17.9347 12.601C17.9347 13.1545 17.7839 13.6517 17.4822 14.0925C17.1839 14.53 16.7763 14.8747 16.2592 15.1266C15.7422 15.3785 15.1539 15.5044 14.4943 15.5044Z" fill="#48403F"/>
<defs>
<linearGradient id="paint0_linear_806_4386" x1="43.7434" y1="4.08465" x2="43.115" y2="1.45727" gradientUnits="userSpaceOnUse">
<stop stop-color="#F4EBE2"/>
<stop offset="1" stop-color="#978E85"/>
</linearGradient>
<linearGradient id="paint1_linear_806_4386" x1="47.5208" y1="43.2892" x2="43.3479" y2="46.5597" gradientUnits="userSpaceOnUse">
<stop stop-color="#F4EBE2"/>
<stop offset="1" stop-color="#D0C5B9"/>
</linearGradient>
<linearGradient id="paint2_linear_806_4386" x1="2.79501" y1="42.843" x2="7.56468" y2="46.1149" gradientUnits="userSpaceOnUse">
<stop stop-color="#978E85"/>
<stop offset="1" stop-color="#D0C5B9"/>
</linearGradient>
<linearGradient id="paint3_linear_806_4386" x1="17.6603" y1="21" x2="33.4197" y2="21" gradientUnits="userSpaceOnUse">
<stop stop-color="#ECE0D4"/>
<stop offset="0.482638" stop-color="#DDD4CB"/>
<stop offset="1" stop-color="#C3B9AF"/>
</linearGradient>
<linearGradient id="paint4_linear_806_4386" x1="43.7434" y1="4.08465" x2="43.115" y2="1.45727" gradientUnits="userSpaceOnUse">
<stop stop-color="#F4EBE2"/>
<stop offset="1" stop-color="#978E85"/>
</linearGradient>
<linearGradient id="paint5_linear_806_4386" x1="47.5208" y1="43.2892" x2="43.3479" y2="46.5597" gradientUnits="userSpaceOnUse">
<stop stop-color="#F4EBE2"/>
<stop offset="1" stop-color="#D0C5B9"/>
</linearGradient>
<linearGradient id="paint6_linear_806_4386" x1="2.79501" y1="42.843" x2="7.56468" y2="46.1149" gradientUnits="userSpaceOnUse">
<stop stop-color="#978E85"/>
<stop offset="1" stop-color="#D0C5B9"/>
</linearGradient>
<linearGradient id="paint7_linear_806_4386" x1="17.6603" y1="21" x2="33.4197" y2="21" gradientUnits="userSpaceOnUse">
<stop stop-color="#ECE0D4"/>
<stop offset="0.482638" stop-color="#DDD4CB"/>
<stop offset="1" stop-color="#C3B9AF"/>
</linearGradient>
<linearGradient id="paint8_linear_806_4386" x1="43.7434" y1="4.45693" x2="43.1124" y2="1.82438" gradientUnits="userSpaceOnUse">
<stop stop-color="#F4EBE2"/>
<stop offset="1" stop-color="#978E85"/>
</linearGradient>
<linearGradient id="paint9_linear_806_4386" x1="47.5208" y1="43.7475" x2="43.3409" y2="47.0163" gradientUnits="userSpaceOnUse">
<stop stop-color="#F4EBE2"/>
<stop offset="1" stop-color="#D0C5B9"/>
</linearGradient>
<linearGradient id="paint10_linear_806_4386" x1="2.79501" y1="43.3006" x2="7.57139" y2="46.5699" gradientUnits="userSpaceOnUse">
<stop stop-color="#978E85"/>
<stop offset="1" stop-color="#D0C5B9"/>
</linearGradient>
<linearGradient id="paint11_linear_806_4386" x1="17.6603" y1="21.4093" x2="33.4197" y2="21.4093" gradientUnits="userSpaceOnUse">
<stop stop-color="#ECE0D4"/>
<stop offset="0.482638" stop-color="#DDD4CB"/>
<stop offset="1" stop-color="#C3B9AF"/>
</linearGradient>
</defs>
</svg>
