<svg width="52" height="53" viewBox="0 0 52 53" fill="none" xmlns="http://www.w3.org/2000/svg">
<path d="M46.7356 0.0292969H4.78247C2.14777 0.0292969 0.0118408 1.82529 0.0118408 4.04077V48.0619C0.0118408 50.2774 2.14777 52.0734 4.78247 52.0734H46.7356C49.3703 52.0734 51.5061 50.2774 51.5061 48.0619V4.04077C51.5061 1.82529 49.3703 0.0292969 46.7356 0.0292969Z" fill="#8F8372"/>
<path d="M51.4819 3.89355H40.2025V38.4573H51.4819V3.89355Z" fill="#D8C3A8"/>
<path fill-rule="evenodd" clip-rule="evenodd" d="M42.3634 6.90866L51.4573 3.93718C51.096 1.08035 49.1281 0.09147 46.3885 0C42.7431 0.10572 39.1858 0.260148 37.2947 1.33716L42.3634 6.90866Z" fill="url(#paint0_linear_806_4402)"/>
<path d="M42.5743 39.0879H9.10498V52.0624H42.5743V39.0879Z" fill="#B4A48F"/>
<path fill-rule="evenodd" clip-rule="evenodd" d="M40.6639 36.041L51.469 37.1967L51.5085 47.7024C51.5029 50.4118 49.3417 51.9685 47.1074 52.0622L42.2977 52.0097L36.9744 39.6655L40.6639 36.041Z" fill="url(#paint1_linear_806_4402)"/>
<path fill-rule="evenodd" clip-rule="evenodd" d="M7.52405 35.9365L0.0395508 37.1972L0 47.7029C0.0056 50.4124 2.16682 51.969 4.40112 52.0628L9.21057 52.0103L10.8973 39.7186L7.52405 35.9365Z" fill="url(#paint2_linear_806_4402)"/>
<path d="M38.7319 1.37598H11.2319C8.59723 1.37598 6.78223 3.25023 6.78223 5.87598V36.1775C6.78223 38.8032 9.09723 41.126 11.7319 41.126H38.5468C41.1815 41.126 43.3173 38.3012 43.3173 35.6754V5.75604C43.3173 3.13029 41.3666 1.37598 38.7319 1.37598Z" fill="#E6D3B9"/>
<path d="M37.526 1.37598H11.9378C9.33879 1.37598 7.23193 3.4387 7.23193 5.9832V35.7688C7.23193 38.3133 9.33879 40.376 11.9378 40.376H37.526C40.125 40.376 42.2319 38.3133 42.2319 35.7688V5.9832C42.2319 3.4387 40.125 1.37598 37.526 1.37598Z" fill="url(#paint3_linear_806_4402)"/>
<path d="M15.0298 24L20.0164 26.9088C20.1137 26.9656 20.2256 26.997 20.3403 26.9998C20.455 27.0026 20.5684 26.9767 20.6688 26.9248C20.7691 26.8729 20.8528 26.7968 20.911 26.7045C20.9693 26.6123 21 26.5071 21 26.4V15.6C21 15.4929 20.9693 15.3877 20.911 15.2955C20.8528 15.2032 20.7691 15.1271 20.6688 15.0752C20.5684 15.0233 20.455 14.9974 20.3403 15.0002C20.2256 15.003 20.1137 15.0344 20.0164 15.0912L15.0298 18H12.6429C12.4724 18 12.3088 18.0632 12.1883 18.1757C12.0677 18.2883 12 18.4409 12 18.6V23.4C12 23.5591 12.0677 23.7117 12.1883 23.8243C12.3088 23.9368 12.4724 24 12.6429 24H15.0298ZM13.2857 19.2H15.2143C15.3348 19.2 15.4528 19.1684 15.555 19.1088L19.7143 16.683V25.32L15.555 22.8942C15.4532 22.8335 15.3351 22.8009 15.2143 22.8H13.2857V19.2Z" fill="#48403F"/>
<defs>
<linearGradient id="paint0_linear_806_4402" x1="43.7434" y1="4.08465" x2="43.115" y2="1.45727" gradientUnits="userSpaceOnUse">
<stop stop-color="#D8C3A8"/>
<stop offset="1" stop-color="#8F8372"/>
</linearGradient>
<linearGradient id="paint1_linear_806_4402" x1="47.5208" y1="43.2892" x2="43.3479" y2="46.5597" gradientUnits="userSpaceOnUse">
<stop stop-color="#D8C3A8"/>
<stop offset="1" stop-color="#B4A48F"/>
</linearGradient>
<linearGradient id="paint2_linear_806_4402" x1="2.79501" y1="42.844" x2="7.56468" y2="46.1159" gradientUnits="userSpaceOnUse">
<stop stop-color="#8F8372"/>
<stop offset="1" stop-color="#B4A48F"/>
</linearGradient>
<linearGradient id="paint3_linear_806_4402" x1="17.8922" y1="20.876" x2="33.6516" y2="20.876" gradientUnits="userSpaceOnUse">
<stop stop-color="#C5B49E"/>
<stop offset="0.472221" stop-color="#B6A792"/>
<stop offset="1" stop-color="#A6947C"/>
</linearGradient>
</defs>
</svg>
