<svg width="52" height="53" viewBox="0 0 52 53" fill="none" xmlns="http://www.w3.org/2000/svg">
<path d="M46.7356 0.0292969H4.78247C2.14777 0.0292969 0.0118408 1.82529 0.0118408 4.04077V48.0619C0.0118408 50.2774 2.14777 52.0734 4.78247 52.0734H46.7356C49.3703 52.0734 51.5061 50.2774 51.5061 48.0619V4.04077C51.5061 1.82529 49.3703 0.0292969 46.7356 0.0292969Z" fill="#8F8372"/>
<path d="M51.4819 3.89355H40.2025V38.4573H51.4819V3.89355Z" fill="#D8C3A8"/>
<path fill-rule="evenodd" clip-rule="evenodd" d="M42.3634 6.90866L51.4573 3.93718C51.096 1.08035 49.1281 0.09147 46.3885 0C42.7431 0.10572 39.1858 0.260148 37.2947 1.33716L42.3634 6.90866Z" fill="url(#paint0_linear_806_4398)"/>
<path d="M42.5743 39.0879H9.10498V52.0624H42.5743V39.0879Z" fill="#B4A48F"/>
<path fill-rule="evenodd" clip-rule="evenodd" d="M40.6639 36.041L51.469 37.1967L51.5085 47.7024C51.5029 50.4118 49.3417 51.9685 47.1074 52.0622L42.2977 52.0097L36.9744 39.6655L40.6639 36.041Z" fill="url(#paint1_linear_806_4398)"/>
<path fill-rule="evenodd" clip-rule="evenodd" d="M7.52405 35.9365L0.0395508 37.1972L0 47.7029C0.0056 50.4124 2.16682 51.969 4.40112 52.0628L9.21057 52.0103L10.8973 39.7186L7.52405 35.9365Z" fill="url(#paint2_linear_806_4398)"/>
<path d="M38.7319 1.37598H11.2319C8.59723 1.37598 6.78223 3.25023 6.78223 5.87598V36.1775C6.78223 38.8032 9.09723 41.126 11.7319 41.126H38.5468C41.1815 41.126 43.3173 38.3012 43.3173 35.6754V5.75604C43.3173 3.13029 41.3666 1.37598 38.7319 1.37598Z" fill="#E6D3B9"/>
<path d="M37.526 1.37598H11.9378C9.33879 1.37598 7.23193 3.4387 7.23193 5.9832V35.7688C7.23193 38.3133 9.33879 40.376 11.9378 40.376H37.526C40.125 40.376 42.2319 38.3133 42.2319 35.7688V5.9832C42.2319 3.4387 40.125 1.37598 37.526 1.37598Z" fill="url(#paint3_linear_806_4398)"/>
<path d="M15.3182 25.1178L15.4318 21.9928L12.7898 23.6689L12.108 22.4758L14.892 21.0269L12.108 19.578L12.7898 18.3849L15.4318 20.061L15.3182 16.936H16.6818L16.5682 20.061L19.2102 18.3849L19.892 19.578L17.108 21.0269L19.892 22.4758L19.2102 23.6689L16.5682 21.9928L16.6818 25.1178H15.3182Z" fill="#48403F"/>
<path d="M46.7356 0.0292969H4.78247C2.14777 0.0292969 0.0118408 1.82529 0.0118408 4.04077V48.0619C0.0118408 50.2774 2.14777 52.0734 4.78247 52.0734H46.7356C49.3703 52.0734 51.5061 50.2774 51.5061 48.0619V4.04077C51.5061 1.82529 49.3703 0.0292969 46.7356 0.0292969Z" fill="#8F8372"/>
<path d="M51.4819 3.89355H40.2025V38.4573H51.4819V3.89355Z" fill="#D8C3A8"/>
<path fill-rule="evenodd" clip-rule="evenodd" d="M42.3634 6.90866L51.4573 3.93718C51.096 1.08035 49.1281 0.09147 46.3885 0C42.7431 0.10572 39.1858 0.260148 37.2947 1.33716L42.3634 6.90866Z" fill="url(#paint4_linear_806_4398)"/>
<path d="M42.5743 39.0879H9.10498V52.0624H42.5743V39.0879Z" fill="#B4A48F"/>
<path fill-rule="evenodd" clip-rule="evenodd" d="M40.6639 36.041L51.469 37.1967L51.5085 47.7024C51.5029 50.4118 49.3417 51.9685 47.1074 52.0622L42.2977 52.0097L36.9744 39.6655L40.6639 36.041Z" fill="url(#paint5_linear_806_4398)"/>
<path fill-rule="evenodd" clip-rule="evenodd" d="M7.52405 35.9365L0.0395508 37.1972L0 47.7029C0.0056 50.4124 2.16682 51.969 4.40112 52.0628L9.21057 52.0103L10.8973 39.7186L7.52405 35.9365Z" fill="url(#paint6_linear_806_4398)"/>
<path d="M38.7319 1.37598H11.2319C8.59723 1.37598 6.78223 3.25023 6.78223 5.87598V36.1775C6.78223 38.8032 9.09723 41.126 11.7319 41.126H38.5468C41.1815 41.126 43.3173 38.3012 43.3173 35.6754V5.75604C43.3173 3.13029 41.3666 1.37598 38.7319 1.37598Z" fill="#E6D3B9"/>
<path d="M37.526 1.37598H11.9378C9.33879 1.37598 7.23193 3.4387 7.23193 5.9832V35.7688C7.23193 38.3133 9.33879 40.376 11.9378 40.376H37.526C40.125 40.376 42.2319 38.3133 42.2319 35.7688V5.9832C42.2319 3.4387 40.125 1.37598 37.526 1.37598Z" fill="url(#paint7_linear_806_4398)"/>
<path d="M15.3182 25.1178L15.4318 21.9928L12.7898 23.6689L12.108 22.4758L14.892 21.0269L12.108 19.578L12.7898 18.3849L15.4318 20.061L15.3182 16.936H16.6818L16.5682 20.061L19.2102 18.3849L19.892 19.578L17.108 21.0269L19.892 22.4758L19.2102 23.6689L16.5682 21.9928L16.6818 25.1178H15.3182Z" fill="#48403F"/>
<path d="M46.7356 0.301758H4.78247C2.14777 0.301758 0.0118408 2.10171 0.0118408 4.32206V48.4401C0.0118408 50.6605 2.14777 52.4604 4.78247 52.4604H46.7356C49.3703 52.4604 51.5061 50.6605 51.5061 48.4401V4.32206C51.5061 2.10171 49.3703 0.301758 46.7356 0.301758Z" fill="#8F8372"/>
<path d="M51.4819 4.1748H40.2025V38.8147H51.4819V4.1748Z" fill="#D8C3A8"/>
<path fill-rule="evenodd" clip-rule="evenodd" d="M42.3634 7.19633L51.4573 4.21831C51.096 1.35519 49.1281 0.364132 46.3885 0.272461C42.7431 0.378414 39.1858 0.533182 37.2947 1.61256L42.3634 7.19633Z" fill="url(#paint8_linear_806_4398)"/>
<path d="M42.5743 39.4463H9.10498V52.4494H42.5743V39.4463Z" fill="#B4A48F"/>
<path fill-rule="evenodd" clip-rule="evenodd" d="M40.6639 36.3926L51.469 37.5508L51.5085 48.0796C51.5029 50.795 49.3417 52.3551 47.1074 52.4491L42.2977 52.3964L36.9744 40.025L40.6639 36.3926Z" fill="url(#paint9_linear_806_4398)"/>
<path fill-rule="evenodd" clip-rule="evenodd" d="M7.52405 36.2881L0.0395508 37.5515L0 48.0804C0.0056 50.7958 2.16682 52.3559 4.40112 52.4498L9.21057 52.3972L10.8973 40.0785L7.52405 36.2881Z" fill="url(#paint10_linear_806_4398)"/>
<path d="M38.7319 1.65137H11.2319C8.59723 1.65137 6.78223 3.52974 6.78223 6.16127V36.5295C6.78223 39.161 9.09723 41.4889 11.7319 41.4889H38.5468C41.1815 41.4889 43.3173 38.6579 43.3173 36.0263V6.04107C43.3173 3.40954 41.3666 1.65137 38.7319 1.65137Z" fill="#E6D3B9"/>
<path d="M37.526 1.65137H11.9378C9.33879 1.65137 7.23193 3.71863 7.23193 6.26873V36.1199C7.23193 38.67 9.33879 40.7372 11.9378 40.7372H37.526C40.125 40.7372 42.2319 38.67 42.2319 36.1199V6.26873C42.2319 3.71863 40.125 1.65137 37.526 1.65137Z" fill="url(#paint11_linear_806_4398)"/>
<path d="M15.3182 25.4176L15.4318 22.2926L12.7898 23.9688L12.108 22.7756L14.892 21.3267L12.108 19.8778L12.7898 18.6847L15.4318 20.3608L15.3182 17.2358H16.6818L16.5682 20.3608L19.2102 18.6847L19.892 19.8778L17.108 21.3267L19.892 22.7756L19.2102 23.9688L16.5682 22.2926L16.6818 25.4176H15.3182Z" fill="#48403F"/>
<defs>
<linearGradient id="paint0_linear_806_4398" x1="43.7434" y1="4.08465" x2="43.115" y2="1.45727" gradientUnits="userSpaceOnUse">
<stop stop-color="#D8C3A8"/>
<stop offset="1" stop-color="#8F8372"/>
</linearGradient>
<linearGradient id="paint1_linear_806_4398" x1="47.5208" y1="43.2892" x2="43.3479" y2="46.5597" gradientUnits="userSpaceOnUse">
<stop stop-color="#D8C3A8"/>
<stop offset="1" stop-color="#B4A48F"/>
</linearGradient>
<linearGradient id="paint2_linear_806_4398" x1="2.79501" y1="42.844" x2="7.56468" y2="46.1159" gradientUnits="userSpaceOnUse">
<stop stop-color="#8F8372"/>
<stop offset="1" stop-color="#B4A48F"/>
</linearGradient>
<linearGradient id="paint3_linear_806_4398" x1="17.8922" y1="20.876" x2="33.6516" y2="20.876" gradientUnits="userSpaceOnUse">
<stop stop-color="#C5B49E"/>
<stop offset="0.472221" stop-color="#B6A792"/>
<stop offset="1" stop-color="#A6947C"/>
</linearGradient>
<linearGradient id="paint4_linear_806_4398" x1="43.7434" y1="4.08465" x2="43.115" y2="1.45727" gradientUnits="userSpaceOnUse">
<stop stop-color="#D8C3A8"/>
<stop offset="1" stop-color="#8F8372"/>
</linearGradient>
<linearGradient id="paint5_linear_806_4398" x1="47.5208" y1="43.2892" x2="43.3479" y2="46.5597" gradientUnits="userSpaceOnUse">
<stop stop-color="#D8C3A8"/>
<stop offset="1" stop-color="#B4A48F"/>
</linearGradient>
<linearGradient id="paint6_linear_806_4398" x1="2.79501" y1="42.844" x2="7.56468" y2="46.1159" gradientUnits="userSpaceOnUse">
<stop stop-color="#8F8372"/>
<stop offset="1" stop-color="#B4A48F"/>
</linearGradient>
<linearGradient id="paint7_linear_806_4398" x1="17.8922" y1="20.876" x2="33.6516" y2="20.876" gradientUnits="userSpaceOnUse">
<stop stop-color="#C5B49E"/>
<stop offset="0.472221" stop-color="#B6A792"/>
<stop offset="1" stop-color="#A6947C"/>
</linearGradient>
<linearGradient id="paint8_linear_806_4398" x1="43.7434" y1="4.36611" x2="43.1124" y2="1.73356" gradientUnits="userSpaceOnUse">
<stop stop-color="#D8C3A8"/>
<stop offset="1" stop-color="#8F8372"/>
</linearGradient>
<linearGradient id="paint9_linear_806_4398" x1="47.5208" y1="43.6567" x2="43.3409" y2="46.9255" gradientUnits="userSpaceOnUse">
<stop stop-color="#D8C3A8"/>
<stop offset="1" stop-color="#B4A48F"/>
</linearGradient>
<linearGradient id="paint10_linear_806_4398" x1="2.79501" y1="43.2108" x2="7.57138" y2="46.4801" gradientUnits="userSpaceOnUse">
<stop stop-color="#8F8372"/>
<stop offset="1" stop-color="#B4A48F"/>
</linearGradient>
<linearGradient id="paint11_linear_806_4398" x1="17.8922" y1="21.1943" x2="33.6516" y2="21.1943" gradientUnits="userSpaceOnUse">
<stop stop-color="#C5B49E"/>
<stop offset="0.472221" stop-color="#B6A792"/>
<stop offset="1" stop-color="#A6947C"/>
</linearGradient>
</defs>
</svg>
