<svg width="52" height="109" viewBox="0 0 52 109" fill="none" xmlns="http://www.w3.org/2000/svg">
<path d="M46.7356 0.0292969H4.78247C2.14777 0.0292969 0.0119629 1.82529 0.0119629 4.04077V103.776C0.0119629 105.992 2.14777 107.788 4.78247 107.788H46.7356C49.3703 107.788 51.5062 105.992 51.5062 103.776V4.04077C51.5062 1.82529 49.3703 0.0292969 46.7356 0.0292969Z" fill="#8F8372"/>
<path d="M51.4821 3.3584H40.2026V94.1722H51.4821V3.3584Z" fill="#D8C3A8"/>
<path fill-rule="evenodd" clip-rule="evenodd" d="M42.3634 6.90866L51.4573 3.93716C51.096 1.08033 49.1283 0.09147 46.3887 0C42.7433 0.10572 39.1858 0.260148 37.2947 1.33716L42.3634 6.90866Z" fill="url(#paint0_linear_806_4392)"/>
<path d="M42.5745 94.8018H9.1051V107.776H42.5745V94.8018Z" fill="#B4A48F"/>
<path fill-rule="evenodd" clip-rule="evenodd" d="M40.6639 91.7549L51.469 92.9105L51.5085 103.416C51.5029 106.126 49.3417 107.682 47.1074 107.776L42.2979 107.724L36.9744 95.3793L40.6639 91.7549Z" fill="url(#paint1_linear_806_4392)"/>
<path fill-rule="evenodd" clip-rule="evenodd" d="M7.52405 91.6504L0.0395508 92.9111L0 103.417C0.0056 106.126 2.16682 107.683 4.40112 107.777L9.21057 107.724L10.8973 95.4324L7.52405 91.6504Z" fill="url(#paint2_linear_806_4392)"/>
<path d="M38.5469 0.686523H11.5529C8.91815 0.686523 6.78235 2.81511 6.78235 5.44086V91.8918C6.78235 94.5175 8.91815 96.6461 11.5529 96.6461H38.5469C41.1816 96.6461 43.3174 94.5175 43.3174 91.8918V5.44086C43.3174 2.81511 41.1816 0.686523 38.5469 0.686523Z" fill="#E6D3B9"/>
<path d="M37.1641 1.01855H11.6641C9.06507 1.01855 7.16406 2.64803 7.16406 5.27489V91.7622C7.16406 94.3891 9.56507 96.0186 12.1641 96.0186H37.1641C39.7631 96.0186 42.1641 94.3891 42.1641 91.7622V5.27489C42.1641 2.64803 39.7631 1.01855 37.1641 1.01855Z" fill="url(#paint3_linear_806_4392)"/>
<path d="M12.4106 50.2148V42.9413H16.8003V43.7226H13.2913V46.1803H16.573V46.9616H13.2913V49.4335H16.8571V50.2148H12.4106ZM19.1123 46.9332V50.2148H18.2741V44.7597H19.0839V45.6121H19.1549C19.2828 45.335 19.4769 45.1125 19.7374 44.9444C19.9978 44.7739 20.334 44.6887 20.746 44.6887C21.1154 44.6887 21.4386 44.7644 21.7156 44.916C21.9926 45.0651 22.2081 45.2924 22.362 45.5978C22.5159 45.9009 22.5928 46.2845 22.5928 46.7485V50.2148H21.7547V46.8054C21.7547 46.3768 21.6434 46.043 21.4208 45.8038C21.1982 45.5623 20.8928 45.4416 20.5045 45.4416C20.237 45.4416 19.9978 45.4996 19.7871 45.6156C19.5787 45.7316 19.4142 45.9009 19.2934 46.1235C19.1727 46.346 19.1123 46.616 19.1123 46.9332ZM26.4968 44.7597V45.47H23.6698V44.7597H26.4968ZM24.4938 43.4527H25.3319V48.6522C25.3319 48.8889 25.3663 49.0665 25.4349 49.1849C25.506 49.3009 25.5959 49.379 25.7048 49.4193C25.8161 49.4572 25.9333 49.4761 26.0565 49.4761C26.1488 49.4761 26.2246 49.4714 26.2837 49.4619C26.3429 49.4501 26.3903 49.4406 26.4258 49.4335L26.5963 50.1864C26.5395 50.2077 26.4601 50.229 26.3583 50.2504C26.2565 50.274 26.1275 50.2859 25.9712 50.2859C25.7344 50.2859 25.5024 50.235 25.2751 50.1332C25.0502 50.0313 24.8631 49.8763 24.714 49.6679C24.5672 49.4596 24.4938 49.1967 24.4938 48.8795V43.4527ZM29.9862 50.3285C29.4606 50.3285 29.0072 50.2125 28.626 49.9804C28.2472 49.746 27.9547 49.4193 27.7488 49.0002C27.5451 48.5788 27.4433 48.0887 27.4433 47.5299C27.4433 46.9711 27.5451 46.4786 27.7488 46.0524C27.9547 45.6239 28.2412 45.29 28.6082 45.0509C28.9776 44.8094 29.4085 44.6887 29.901 44.6887C30.1851 44.6887 30.4657 44.736 30.7427 44.8307C31.0197 44.9254 31.2719 45.0793 31.4992 45.2924C31.7265 45.5031 31.9076 45.7825 32.0426 46.1306C32.1775 46.4786 32.245 46.9072 32.245 47.4162V47.7714H28.04V47.0469H31.3926C31.3926 46.7391 31.3311 46.4644 31.208 46.2229C31.0872 45.9814 30.9144 45.7908 30.6894 45.6511C30.4669 45.5114 30.2041 45.4416 29.901 45.4416C29.5671 45.4416 29.2783 45.5245 29.0344 45.6902C28.7929 45.8536 28.607 46.0667 28.4768 46.3295C28.3466 46.5923 28.2815 46.874 28.2815 47.1747V47.6577C28.2815 48.0697 28.3525 48.419 28.4946 48.7054C28.639 48.9896 28.8391 49.2062 29.0948 49.3554C29.3505 49.5022 29.6476 49.5756 29.9862 49.5756C30.2064 49.5756 30.4053 49.5448 30.5829 49.4832C30.7628 49.4193 30.9179 49.3246 31.0481 49.1991C31.1784 49.0712 31.279 48.9126 31.35 48.7232L32.1598 48.9505C32.0745 49.2251 31.9313 49.4667 31.73 49.675C31.5288 49.881 31.2802 50.042 30.9842 50.158C30.6882 50.2717 30.3556 50.3285 29.9862 50.3285ZM33.52 50.2148V44.7597H34.3298V45.5836H34.3866C34.486 45.3137 34.666 45.0947 34.9264 44.9266C35.1869 44.7585 35.4804 44.6744 35.8072 44.6744C35.8687 44.6744 35.9457 44.6756 36.038 44.678C36.1304 44.6804 36.2002 44.6839 36.2476 44.6887V45.541C36.2192 45.5339 36.1541 45.5233 36.0522 45.5091C35.9528 45.4925 35.8474 45.4842 35.7362 45.4842C35.471 45.4842 35.2342 45.5398 35.0259 45.6511C34.8199 45.76 34.6565 45.9116 34.5357 46.1057C34.4174 46.2975 34.3582 46.5165 34.3582 46.7628V50.2148H33.52Z" fill="#48403F"/>
<path d="M51.4821 3.3584H40.2026V94.1722H51.4821V3.3584Z" fill="#D8C3A8"/>
<path fill-rule="evenodd" clip-rule="evenodd" d="M42.3634 6.90866L51.4573 3.93716C51.096 1.08033 49.1283 0.09147 46.3887 0C42.7433 0.10572 39.1858 0.260148 37.2947 1.33716L42.3634 6.90866Z" fill="url(#paint4_linear_806_4392)"/>
<path d="M42.5745 94.8018H9.1051V107.776H42.5745V94.8018Z" fill="#B4A48F"/>
<path fill-rule="evenodd" clip-rule="evenodd" d="M40.6639 91.7549L51.469 92.9105L51.5085 103.416C51.5029 106.126 49.3417 107.682 47.1074 107.776L42.2979 107.724L36.9744 95.3793L40.6639 91.7549Z" fill="url(#paint5_linear_806_4392)"/>
<path fill-rule="evenodd" clip-rule="evenodd" d="M7.52405 91.6504L0.0395508 92.9111L0 103.417C0.0056 106.126 2.16682 107.683 4.40112 107.777L9.21057 107.724L10.8973 95.4324L7.52405 91.6504Z" fill="url(#paint6_linear_806_4392)"/>
<path d="M38.5469 0.686523H11.5529C8.91815 0.686523 6.78235 2.81511 6.78235 5.44086V91.8918C6.78235 94.5175 8.91815 96.6461 11.5529 96.6461H38.5469C41.1816 96.6461 43.3174 94.5175 43.3174 91.8918V5.44086C43.3174 2.81511 41.1816 0.686523 38.5469 0.686523Z" fill="#E6D3B9"/>
<path d="M37.1641 1.01855H11.6641C9.06507 1.01855 7.16406 2.64803 7.16406 5.27489V91.7622C7.16406 94.3891 9.56507 96.0186 12.1641 96.0186H37.1641C39.7631 96.0186 42.1641 94.3891 42.1641 91.7622V5.27489C42.1641 2.64803 39.7631 1.01855 37.1641 1.01855Z" fill="url(#paint7_linear_806_4392)"/>
<path d="M12.4106 50.2148V42.9413H16.8003V43.7226H13.2913V46.1803H16.573V46.9616H13.2913V49.4335H16.8571V50.2148H12.4106ZM19.1123 46.9332V50.2148H18.2741V44.7597H19.0839V45.6121H19.1549C19.2828 45.335 19.4769 45.1125 19.7374 44.9444C19.9978 44.7739 20.334 44.6887 20.746 44.6887C21.1154 44.6887 21.4386 44.7644 21.7156 44.916C21.9926 45.0651 22.2081 45.2924 22.362 45.5978C22.5159 45.9009 22.5928 46.2845 22.5928 46.7485V50.2148H21.7547V46.8054C21.7547 46.3768 21.6434 46.043 21.4208 45.8038C21.1982 45.5623 20.8928 45.4416 20.5045 45.4416C20.237 45.4416 19.9978 45.4996 19.7871 45.6156C19.5787 45.7316 19.4142 45.9009 19.2934 46.1235C19.1727 46.346 19.1123 46.616 19.1123 46.9332ZM26.4968 44.7597V45.47H23.6698V44.7597H26.4968ZM24.4938 43.4527H25.3319V48.6522C25.3319 48.8889 25.3663 49.0665 25.4349 49.1849C25.506 49.3009 25.5959 49.379 25.7048 49.4193C25.8161 49.4572 25.9333 49.4761 26.0565 49.4761C26.1488 49.4761 26.2246 49.4714 26.2837 49.4619C26.3429 49.4501 26.3903 49.4406 26.4258 49.4335L26.5963 50.1864C26.5395 50.2077 26.4601 50.229 26.3583 50.2504C26.2565 50.274 26.1275 50.2859 25.9712 50.2859C25.7344 50.2859 25.5024 50.235 25.2751 50.1332C25.0502 50.0313 24.8631 49.8763 24.714 49.6679C24.5672 49.4596 24.4938 49.1967 24.4938 48.8795V43.4527ZM29.9862 50.3285C29.4606 50.3285 29.0072 50.2125 28.626 49.9804C28.2472 49.746 27.9547 49.4193 27.7488 49.0002C27.5451 48.5788 27.4433 48.0887 27.4433 47.5299C27.4433 46.9711 27.5451 46.4786 27.7488 46.0524C27.9547 45.6239 28.2412 45.29 28.6082 45.0509C28.9776 44.8094 29.4085 44.6887 29.901 44.6887C30.1851 44.6887 30.4657 44.736 30.7427 44.8307C31.0197 44.9254 31.2719 45.0793 31.4992 45.2924C31.7265 45.5031 31.9076 45.7825 32.0426 46.1306C32.1775 46.4786 32.245 46.9072 32.245 47.4162V47.7714H28.04V47.0469H31.3926C31.3926 46.7391 31.3311 46.4644 31.208 46.2229C31.0872 45.9814 30.9144 45.7908 30.6894 45.6511C30.4669 45.5114 30.2041 45.4416 29.901 45.4416C29.5671 45.4416 29.2783 45.5245 29.0344 45.6902C28.7929 45.8536 28.607 46.0667 28.4768 46.3295C28.3466 46.5923 28.2815 46.874 28.2815 47.1747V47.6577C28.2815 48.0697 28.3525 48.419 28.4946 48.7054C28.639 48.9896 28.8391 49.2062 29.0948 49.3554C29.3505 49.5022 29.6476 49.5756 29.9862 49.5756C30.2064 49.5756 30.4053 49.5448 30.5829 49.4832C30.7628 49.4193 30.9179 49.3246 31.0481 49.1991C31.1784 49.0712 31.279 48.9126 31.35 48.7232L32.1598 48.9505C32.0745 49.2251 31.9313 49.4667 31.73 49.675C31.5288 49.881 31.2802 50.042 30.9842 50.158C30.6882 50.2717 30.3556 50.3285 29.9862 50.3285ZM33.52 50.2148V44.7597H34.3298V45.5836H34.3866C34.486 45.3137 34.666 45.0947 34.9264 44.9266C35.1869 44.7585 35.4804 44.6744 35.8072 44.6744C35.8687 44.6744 35.9457 44.6756 36.038 44.678C36.1304 44.6804 36.2002 44.6839 36.2476 44.6887V45.541C36.2192 45.5339 36.1541 45.5233 36.0522 45.5091C35.9528 45.4925 35.8474 45.4842 35.7362 45.4842C35.471 45.4842 35.2342 45.5398 35.0259 45.6511C34.8199 45.76 34.6565 45.9116 34.5357 46.1057C34.4174 46.2975 34.3582 46.5165 34.3582 46.7628V50.2148H33.52Z" fill="#48403F"/>
<path d="M46.7356 0.0292969H4.78247C2.14777 0.0292969 0.0119629 1.82529 0.0119629 4.04077V103.776C0.0119629 105.992 2.14777 107.788 4.78247 107.788H46.7356C49.3703 107.788 51.5062 105.992 51.5062 103.776V4.04077C51.5062 1.82529 49.3703 0.0292969 46.7356 0.0292969Z" fill="#8F8372"/>
<path d="M51.4821 3.3584H40.2026V94.1722H51.4821V3.3584Z" fill="#D8C3A8"/>
<path fill-rule="evenodd" clip-rule="evenodd" d="M42.3634 6.90866L51.4573 3.93716C51.096 1.08033 49.1283 0.09147 46.3887 0C42.7433 0.10572 39.1858 0.260148 37.2947 1.33716L42.3634 6.90866Z" fill="url(#paint8_linear_806_4392)"/>
<path d="M42.5745 94.8018H9.1051V107.776H42.5745V94.8018Z" fill="#B4A48F"/>
<path fill-rule="evenodd" clip-rule="evenodd" d="M40.6639 91.7549L51.469 92.9105L51.5085 103.416C51.5029 106.126 49.3417 107.682 47.1074 107.776L42.2979 107.724L36.9744 95.3793L40.6639 91.7549Z" fill="url(#paint9_linear_806_4392)"/>
<path fill-rule="evenodd" clip-rule="evenodd" d="M7.52405 91.6504L0.0395508 92.9111L0 103.417C0.0056 106.126 2.16682 107.683 4.40112 107.777L9.21057 107.724L10.8973 95.4324L7.52405 91.6504Z" fill="url(#paint10_linear_806_4392)"/>
<path d="M38.5469 0.686523H11.5529C8.91815 0.686523 6.78235 2.81511 6.78235 5.44086V91.8918C6.78235 94.5175 8.91815 96.6461 11.5529 96.6461H38.5469C41.1816 96.6461 43.3174 94.5175 43.3174 91.8918V5.44086C43.3174 2.81511 41.1816 0.686523 38.5469 0.686523Z" fill="#E6D3B9"/>
<path d="M37.1641 1.01855H11.6641C9.06507 1.01855 7.16406 2.64803 7.16406 5.27489V91.7622C7.16406 94.3891 9.56507 96.0186 12.1641 96.0186H37.1641C39.7631 96.0186 42.1641 94.3891 42.1641 91.7622V5.27489C42.1641 2.64803 39.7631 1.01855 37.1641 1.01855Z" fill="url(#paint11_linear_806_4392)"/>
<path d="M12.4106 50.2148V42.9413H16.8003V43.7226H13.2913V46.1803H16.573V46.9616H13.2913V49.4335H16.8571V50.2148H12.4106ZM19.1123 46.9332V50.2148H18.2741V44.7597H19.0839V45.6121H19.1549C19.2828 45.335 19.4769 45.1125 19.7374 44.9444C19.9978 44.7739 20.334 44.6887 20.746 44.6887C21.1154 44.6887 21.4386 44.7644 21.7156 44.916C21.9926 45.0651 22.2081 45.2924 22.362 45.5978C22.5159 45.9009 22.5928 46.2845 22.5928 46.7485V50.2148H21.7547V46.8054C21.7547 46.3768 21.6434 46.043 21.4208 45.8038C21.1982 45.5623 20.8928 45.4416 20.5045 45.4416C20.237 45.4416 19.9978 45.4996 19.7871 45.6156C19.5787 45.7316 19.4142 45.9009 19.2934 46.1235C19.1727 46.346 19.1123 46.616 19.1123 46.9332ZM26.4968 44.7597V45.47H23.6698V44.7597H26.4968ZM24.4938 43.4527H25.3319V48.6522C25.3319 48.8889 25.3663 49.0665 25.4349 49.1849C25.506 49.3009 25.5959 49.379 25.7048 49.4193C25.8161 49.4572 25.9333 49.4761 26.0565 49.4761C26.1488 49.4761 26.2246 49.4714 26.2837 49.4619C26.3429 49.4501 26.3903 49.4406 26.4258 49.4335L26.5963 50.1864C26.5395 50.2077 26.4601 50.229 26.3583 50.2504C26.2565 50.274 26.1275 50.2859 25.9712 50.2859C25.7344 50.2859 25.5024 50.235 25.2751 50.1332C25.0502 50.0313 24.8631 49.8763 24.714 49.6679C24.5672 49.4596 24.4938 49.1967 24.4938 48.8795V43.4527ZM29.9862 50.3285C29.4606 50.3285 29.0072 50.2125 28.626 49.9804C28.2472 49.746 27.9547 49.4193 27.7488 49.0002C27.5451 48.5788 27.4433 48.0887 27.4433 47.5299C27.4433 46.9711 27.5451 46.4786 27.7488 46.0524C27.9547 45.6239 28.2412 45.29 28.6082 45.0509C28.9776 44.8094 29.4085 44.6887 29.901 44.6887C30.1851 44.6887 30.4657 44.736 30.7427 44.8307C31.0197 44.9254 31.2719 45.0793 31.4992 45.2924C31.7265 45.5031 31.9076 45.7825 32.0426 46.1306C32.1775 46.4786 32.245 46.9072 32.245 47.4162V47.7714H28.04V47.0469H31.3926C31.3926 46.7391 31.3311 46.4644 31.208 46.2229C31.0872 45.9814 30.9144 45.7908 30.6894 45.6511C30.4669 45.5114 30.2041 45.4416 29.901 45.4416C29.5671 45.4416 29.2783 45.5245 29.0344 45.6902C28.7929 45.8536 28.607 46.0667 28.4768 46.3295C28.3466 46.5923 28.2815 46.874 28.2815 47.1747V47.6577C28.2815 48.0697 28.3525 48.419 28.4946 48.7054C28.639 48.9896 28.8391 49.2062 29.0948 49.3554C29.3505 49.5022 29.6476 49.5756 29.9862 49.5756C30.2064 49.5756 30.4053 49.5448 30.5829 49.4832C30.7628 49.4193 30.9179 49.3246 31.0481 49.1991C31.1784 49.0712 31.279 48.9126 31.35 48.7232L32.1598 48.9505C32.0745 49.2251 31.9313 49.4667 31.73 49.675C31.5288 49.881 31.2802 50.042 30.9842 50.158C30.6882 50.2717 30.3556 50.3285 29.9862 50.3285ZM33.52 50.2148V44.7597H34.3298V45.5836H34.3866C34.486 45.3137 34.666 45.0947 34.9264 44.9266C35.1869 44.7585 35.4804 44.6744 35.8072 44.6744C35.8687 44.6744 35.9457 44.6756 36.038 44.678C36.1304 44.6804 36.2002 44.6839 36.2476 44.6887V45.541C36.2192 45.5339 36.1541 45.5233 36.0522 45.5091C35.9528 45.4925 35.8474 45.4842 35.7362 45.4842C35.471 45.4842 35.2342 45.5398 35.0259 45.6511C34.8199 45.76 34.6565 45.9116 34.5357 46.1057C34.4174 46.2975 34.3582 46.5165 34.3582 46.7628V50.2148H33.52Z" fill="#48403F"/>
<path d="M51.4821 3.3584H40.2026V94.1722H51.4821V3.3584Z" fill="#D8C3A8"/>
<path fill-rule="evenodd" clip-rule="evenodd" d="M42.3634 6.90866L51.4573 3.93716C51.096 1.08033 49.1283 0.09147 46.3887 0C42.7433 0.10572 39.1858 0.260148 37.2947 1.33716L42.3634 6.90866Z" fill="url(#paint12_linear_806_4392)"/>
<path d="M42.5745 94.8018H9.1051V107.776H42.5745V94.8018Z" fill="#B4A48F"/>
<path fill-rule="evenodd" clip-rule="evenodd" d="M40.6639 91.7549L51.469 92.9105L51.5085 103.416C51.5029 106.126 49.3417 107.682 47.1074 107.776L42.2979 107.724L36.9744 95.3793L40.6639 91.7549Z" fill="url(#paint13_linear_806_4392)"/>
<path fill-rule="evenodd" clip-rule="evenodd" d="M7.52405 91.6504L0.0395508 92.9111L0 103.417C0.0056 106.126 2.16682 107.683 4.40112 107.777L9.21057 107.724L10.8973 95.4324L7.52405 91.6504Z" fill="url(#paint14_linear_806_4392)"/>
<path d="M38.5469 0.686523H11.5529C8.91815 0.686523 6.78235 2.81511 6.78235 5.44086V91.8918C6.78235 94.5175 8.91815 96.6461 11.5529 96.6461H38.5469C41.1816 96.6461 43.3174 94.5175 43.3174 91.8918V5.44086C43.3174 2.81511 41.1816 0.686523 38.5469 0.686523Z" fill="#E6D3B9"/>
<path d="M37.1641 1.01855H11.6641C9.06507 1.01855 7.16406 2.64803 7.16406 5.27489V91.7622C7.16406 94.3891 9.56507 96.0186 12.1641 96.0186H37.1641C39.7631 96.0186 42.1641 94.3891 42.1641 91.7622V5.27489C42.1641 2.64803 39.7631 1.01855 37.1641 1.01855Z" fill="url(#paint15_linear_806_4392)"/>
<path d="M12.4106 50.2148V42.9413H16.8003V43.7226H13.2913V46.1803H16.573V46.9616H13.2913V49.4335H16.8571V50.2148H12.4106ZM19.1123 46.9332V50.2148H18.2741V44.7597H19.0839V45.6121H19.1549C19.2828 45.335 19.4769 45.1125 19.7374 44.9444C19.9978 44.7739 20.334 44.6887 20.746 44.6887C21.1154 44.6887 21.4386 44.7644 21.7156 44.916C21.9926 45.0651 22.2081 45.2924 22.362 45.5978C22.5159 45.9009 22.5928 46.2845 22.5928 46.7485V50.2148H21.7547V46.8054C21.7547 46.3768 21.6434 46.043 21.4208 45.8038C21.1982 45.5623 20.8928 45.4416 20.5045 45.4416C20.237 45.4416 19.9978 45.4996 19.7871 45.6156C19.5787 45.7316 19.4142 45.9009 19.2934 46.1235C19.1727 46.346 19.1123 46.616 19.1123 46.9332ZM26.4968 44.7597V45.47H23.6698V44.7597H26.4968ZM24.4938 43.4527H25.3319V48.6522C25.3319 48.8889 25.3663 49.0665 25.4349 49.1849C25.506 49.3009 25.5959 49.379 25.7048 49.4193C25.8161 49.4572 25.9333 49.4761 26.0565 49.4761C26.1488 49.4761 26.2246 49.4714 26.2837 49.4619C26.3429 49.4501 26.3903 49.4406 26.4258 49.4335L26.5963 50.1864C26.5395 50.2077 26.4601 50.229 26.3583 50.2504C26.2565 50.274 26.1275 50.2859 25.9712 50.2859C25.7344 50.2859 25.5024 50.235 25.2751 50.1332C25.0502 50.0313 24.8631 49.8763 24.714 49.6679C24.5672 49.4596 24.4938 49.1967 24.4938 48.8795V43.4527ZM29.9862 50.3285C29.4606 50.3285 29.0072 50.2125 28.626 49.9804C28.2472 49.746 27.9547 49.4193 27.7488 49.0002C27.5451 48.5788 27.4433 48.0887 27.4433 47.5299C27.4433 46.9711 27.5451 46.4786 27.7488 46.0524C27.9547 45.6239 28.2412 45.29 28.6082 45.0509C28.9776 44.8094 29.4085 44.6887 29.901 44.6887C30.1851 44.6887 30.4657 44.736 30.7427 44.8307C31.0197 44.9254 31.2719 45.0793 31.4992 45.2924C31.7265 45.5031 31.9076 45.7825 32.0426 46.1306C32.1775 46.4786 32.245 46.9072 32.245 47.4162V47.7714H28.04V47.0469H31.3926C31.3926 46.7391 31.3311 46.4644 31.208 46.2229C31.0872 45.9814 30.9144 45.7908 30.6894 45.6511C30.4669 45.5114 30.2041 45.4416 29.901 45.4416C29.5671 45.4416 29.2783 45.5245 29.0344 45.6902C28.7929 45.8536 28.607 46.0667 28.4768 46.3295C28.3466 46.5923 28.2815 46.874 28.2815 47.1747V47.6577C28.2815 48.0697 28.3525 48.419 28.4946 48.7054C28.639 48.9896 28.8391 49.2062 29.0948 49.3554C29.3505 49.5022 29.6476 49.5756 29.9862 49.5756C30.2064 49.5756 30.4053 49.5448 30.5829 49.4832C30.7628 49.4193 30.9179 49.3246 31.0481 49.1991C31.1784 49.0712 31.279 48.9126 31.35 48.7232L32.1598 48.9505C32.0745 49.2251 31.9313 49.4667 31.73 49.675C31.5288 49.881 31.2802 50.042 30.9842 50.158C30.6882 50.2717 30.3556 50.3285 29.9862 50.3285ZM33.52 50.2148V44.7597H34.3298V45.5836H34.3866C34.486 45.3137 34.666 45.0947 34.9264 44.9266C35.1869 44.7585 35.4804 44.6744 35.8072 44.6744C35.8687 44.6744 35.9457 44.6756 36.038 44.678C36.1304 44.6804 36.2002 44.6839 36.2476 44.6887V45.541C36.2192 45.5339 36.1541 45.5233 36.0522 45.5091C35.9528 45.4925 35.8474 45.4842 35.7362 45.4842C35.471 45.4842 35.2342 45.5398 35.0259 45.6511C34.8199 45.76 34.6565 45.9116 34.5357 46.1057C34.4174 46.2975 34.3582 46.5165 34.3582 46.7628V50.2148H33.52Z" fill="#48403F"/>
<path d="M46.7356 0.470703H4.78247C2.14777 0.470703 0.0119629 2.27065 0.0119629 4.49101V104.446C0.0119629 106.666 2.14777 108.466 4.78247 108.466H46.7356C49.3703 108.466 51.5062 106.666 51.5062 104.446V4.49101C51.5062 2.27065 49.3703 0.470703 46.7356 0.470703Z" fill="#8F8372"/>
<path d="M51.4821 3.80762H40.2026V94.8213H51.4821V3.80762Z" fill="#D8C3A8"/>
<path fill-rule="evenodd" clip-rule="evenodd" d="M42.3634 7.36528L51.4573 4.38724C51.096 1.52412 49.1283 0.533078 46.3887 0.441406C42.7433 0.547359 39.1858 0.702127 37.2947 1.78151L42.3634 7.36528Z" fill="url(#paint16_linear_806_4392)"/>
<path d="M42.5745 95.4521H9.1051V108.455H42.5745V95.4521Z" fill="#B4A48F"/>
<path fill-rule="evenodd" clip-rule="evenodd" d="M40.6639 92.3984L51.469 93.5566L51.5085 104.085C51.5029 106.801 49.3417 108.361 47.1074 108.455L42.2979 108.402L36.9744 96.0309L40.6639 92.3984Z" fill="url(#paint17_linear_806_4392)"/>
<path fill-rule="evenodd" clip-rule="evenodd" d="M7.52405 92.2939L0.0395508 93.5574L0 104.086C0.0056 106.802 2.16682 108.362 4.40112 108.456L9.21057 108.403L10.8973 96.0843L7.52405 92.2939Z" fill="url(#paint18_linear_806_4392)"/>
<path d="M38.5469 1.12988H11.5529C8.91815 1.12988 6.78235 3.26315 6.78235 5.89468V92.5359C6.78235 95.1675 8.91815 97.3007 11.5529 97.3007H38.5469C41.1816 97.3007 43.3174 95.1675 43.3174 92.5359V5.89468C43.3174 3.26315 41.1816 1.12988 38.5469 1.12988Z" fill="#E6D3B9"/>
<path d="M37.1641 1.46191H11.6641C9.06507 1.46191 7.16406 3.09498 7.16406 5.72762V92.4053C7.16406 95.038 9.56507 96.6711 12.1641 96.6711H37.1641C39.7631 96.6711 42.1641 95.038 42.1641 92.4053V5.72762C42.1641 3.09498 39.7631 1.46191 37.1641 1.46191Z" fill="url(#paint19_linear_806_4392)"/>
<path d="M12.4106 50.7451V43.4716H16.8003V44.2529H13.2913V46.7106H16.573V47.4919H13.2913V49.9638H16.8571V50.7451H12.4106ZM19.1123 47.4635V50.7451H18.2741V45.29H19.0839V46.1423H19.1549C19.2828 45.8653 19.4769 45.6427 19.7374 45.4746C19.9978 45.3042 20.334 45.2189 20.746 45.2189C21.1154 45.2189 21.4386 45.2947 21.7156 45.4462C21.9926 45.5954 22.2081 45.8227 22.362 46.1281C22.5159 46.4312 22.5928 46.8148 22.5928 47.2788V50.7451H21.7547V47.3356C21.7547 46.9071 21.6434 46.5732 21.4208 46.3341C21.1982 46.0926 20.8928 45.9719 20.5045 45.9719C20.237 45.9719 19.9978 46.0299 19.7871 46.1459C19.5787 46.2619 19.4142 46.4312 19.2934 46.6537C19.1727 46.8763 19.1123 47.1462 19.1123 47.4635ZM26.4968 45.29V46.0003H23.6698V45.29H26.4968ZM24.4938 43.983H25.3319V49.1824C25.3319 49.4192 25.3663 49.5968 25.4349 49.7152C25.506 49.8312 25.5959 49.9093 25.7048 49.9496C25.8161 49.9875 25.9333 50.0064 26.0565 50.0064C26.1488 50.0064 26.2246 50.0017 26.2837 49.9922C26.3429 49.9804 26.3903 49.9709 26.4258 49.9638L26.5963 50.7167C26.5395 50.738 26.4601 50.7593 26.3583 50.7806C26.2565 50.8043 26.1275 50.8161 25.9712 50.8161C25.7344 50.8161 25.5024 50.7652 25.2751 50.6634C25.0502 50.5616 24.8631 50.4065 24.714 50.1982C24.5672 49.9898 24.4938 49.727 24.4938 49.4097V43.983ZM29.9862 50.8588C29.4606 50.8588 29.0072 50.7427 28.626 50.5107C28.2472 50.2763 27.9547 49.9496 27.7488 49.5305C27.5451 49.109 27.4433 48.6189 27.4433 48.0602C27.4433 47.5014 27.5451 47.0089 27.7488 46.5827C27.9547 46.1542 28.2412 45.8203 28.6082 45.5812C28.9776 45.3397 29.4085 45.2189 29.901 45.2189C30.1851 45.2189 30.4657 45.2663 30.7427 45.361C31.0197 45.4557 31.2719 45.6096 31.4992 45.8227C31.7265 46.0334 31.9076 46.3128 32.0426 46.6609C32.1775 47.0089 32.245 47.4375 32.245 47.9465V48.3017H28.04V47.5771H31.3926C31.3926 47.2693 31.3311 46.9947 31.208 46.7532C31.0872 46.5117 30.9144 46.3211 30.6894 46.1814C30.4669 46.0417 30.2041 45.9719 29.901 45.9719C29.5671 45.9719 29.2783 46.0547 29.0344 46.2205C28.7929 46.3838 28.607 46.5969 28.4768 46.8597C28.3466 47.1226 28.2815 47.4043 28.2815 47.705V48.188C28.2815 48.6 28.3525 48.9492 28.4946 49.2357C28.639 49.5198 28.8391 49.7365 29.0948 49.8856C29.3505 50.0324 29.6476 50.1058 29.9862 50.1058C30.2064 50.1058 30.4053 50.0751 30.5829 50.0135C30.7628 49.9496 30.9179 49.8549 31.0481 49.7294C31.1784 49.6015 31.279 49.4429 31.35 49.2535L32.1598 49.4808C32.0745 49.7554 31.9313 49.9969 31.73 50.2053C31.5288 50.4113 31.2802 50.5723 30.9842 50.6883C30.6882 50.8019 30.3556 50.8588 29.9862 50.8588ZM33.52 50.7451V45.29H34.3298V46.1139H34.3866C34.486 45.844 34.666 45.625 34.9264 45.4569C35.1869 45.2888 35.4804 45.2047 35.8072 45.2047C35.8687 45.2047 35.9457 45.2059 36.038 45.2083C36.1304 45.2106 36.2002 45.2142 36.2476 45.2189V46.0713C36.2192 46.0642 36.1541 46.0535 36.0522 46.0393C35.9528 46.0228 35.8474 46.0145 35.7362 46.0145C35.471 46.0145 35.2342 46.0701 35.0259 46.1814C34.8199 46.2903 34.6565 46.4418 34.5357 46.636C34.4174 46.8278 34.3582 47.0468 34.3582 47.293V50.7451H33.52Z" fill="#48403F"/>
<path d="M51.4821 3.3584H40.2026V95.1722H51.4821V3.3584Z" fill="#D8C3A8"/>
<path fill-rule="evenodd" clip-rule="evenodd" d="M42.3634 7.90866L51.4573 4.50705C51.096 1.23671 49.1283 0.10471 46.3887 0C42.7433 0.121023 39.1858 0.297804 37.2947 1.53071L42.3634 7.90866Z" fill="url(#paint20_linear_806_4392)"/>
<path d="M42.5745 94.8018H9.1051V108.776H42.5745V94.8018Z" fill="#B4A48F"/>
<path fill-rule="evenodd" clip-rule="evenodd" d="M40.6639 91.7549L51.469 92.9826L51.5085 104.144C51.5029 107.023 49.3417 108.676 47.1074 108.776L42.2979 108.72L36.9744 95.6056L40.6639 91.7549Z" fill="url(#paint21_linear_806_4392)"/>
<path fill-rule="evenodd" clip-rule="evenodd" d="M7.52405 91.6504L0.0395508 92.9892L0 104.146C0.0056 107.024 2.16682 108.677 4.40112 108.777L9.21057 108.721L10.8973 95.667L7.52405 91.6504Z" fill="url(#paint22_linear_806_4392)"/>
<path d="M38.5469 0.686523H11.5529C8.91815 0.686523 6.78235 2.83729 6.78235 5.4904V92.8422C6.78235 95.4954 8.91815 97.6461 11.5529 97.6461H38.5469C41.1816 97.6461 43.3174 95.4954 43.3174 92.8422V5.4904C43.3174 2.83729 41.1816 0.686523 38.5469 0.686523Z" fill="#E6D3B9"/>
<path d="M37.1641 1.01855H11.6641C9.06507 1.01855 7.16406 2.66519 7.16406 5.31969V92.7174C7.16406 95.3719 9.56507 97.0186 12.1641 97.0186H37.1641C39.7631 97.0186 42.1641 95.3719 42.1641 92.7174V5.31969C42.1641 2.66519 39.7631 1.01855 37.1641 1.01855Z" fill="url(#paint23_linear_806_4392)"/>
<path d="M12.4106 50.2148V42.9413H16.8003V43.7226H13.2913V46.1803H16.573V46.9616H13.2913V49.4335H16.8571V50.2148H12.4106ZM19.1123 46.9332V50.2148H18.2741V44.7597H19.0839V45.6121H19.1549C19.2828 45.335 19.4769 45.1125 19.7374 44.9444C19.9978 44.7739 20.334 44.6887 20.746 44.6887C21.1154 44.6887 21.4386 44.7644 21.7156 44.916C21.9926 45.0651 22.2081 45.2924 22.362 45.5978C22.5159 45.9009 22.5928 46.2845 22.5928 46.7485V50.2148H21.7547V46.8054C21.7547 46.3768 21.6434 46.043 21.4208 45.8038C21.1982 45.5623 20.8928 45.4416 20.5045 45.4416C20.237 45.4416 19.9978 45.4996 19.7871 45.6156C19.5787 45.7316 19.4142 45.9009 19.2934 46.1235C19.1727 46.346 19.1123 46.616 19.1123 46.9332ZM26.4968 44.7597V45.47H23.6698V44.7597H26.4968ZM24.4938 43.4527H25.3319V48.6522C25.3319 48.8889 25.3663 49.0665 25.4349 49.1849C25.506 49.3009 25.5959 49.379 25.7048 49.4193C25.8161 49.4572 25.9333 49.4761 26.0565 49.4761C26.1488 49.4761 26.2246 49.4714 26.2837 49.4619C26.3429 49.4501 26.3903 49.4406 26.4258 49.4335L26.5963 50.1864C26.5395 50.2077 26.4601 50.229 26.3583 50.2504C26.2565 50.274 26.1275 50.2859 25.9712 50.2859C25.7344 50.2859 25.5024 50.235 25.2751 50.1332C25.0502 50.0313 24.8631 49.8763 24.714 49.6679C24.5672 49.4596 24.4938 49.1967 24.4938 48.8795V43.4527ZM29.9862 50.3285C29.4606 50.3285 29.0072 50.2125 28.626 49.9804C28.2472 49.746 27.9547 49.4193 27.7488 49.0002C27.5451 48.5788 27.4433 48.0887 27.4433 47.5299C27.4433 46.9711 27.5451 46.4786 27.7488 46.0524C27.9547 45.6239 28.2412 45.29 28.6082 45.0509C28.9776 44.8094 29.4085 44.6887 29.901 44.6887C30.1851 44.6887 30.4657 44.736 30.7427 44.8307C31.0197 44.9254 31.2719 45.0793 31.4992 45.2924C31.7265 45.5031 31.9076 45.7825 32.0426 46.1306C32.1775 46.4786 32.245 46.9072 32.245 47.4162V47.7714H28.04V47.0469H31.3926C31.3926 46.7391 31.3311 46.4644 31.208 46.2229C31.0872 45.9814 30.9144 45.7908 30.6894 45.6511C30.4669 45.5114 30.2041 45.4416 29.901 45.4416C29.5671 45.4416 29.2783 45.5245 29.0344 45.6902C28.7929 45.8536 28.607 46.0667 28.4768 46.3295C28.3466 46.5923 28.2815 46.874 28.2815 47.1747V47.6577C28.2815 48.0697 28.3525 48.419 28.4946 48.7054C28.639 48.9896 28.8391 49.2062 29.0948 49.3554C29.3505 49.5022 29.6476 49.5756 29.9862 49.5756C30.2064 49.5756 30.4053 49.5448 30.5829 49.4832C30.7628 49.4193 30.9179 49.3246 31.0481 49.1991C31.1784 49.0712 31.279 48.9126 31.35 48.7232L32.1598 48.9505C32.0745 49.2251 31.9313 49.4667 31.73 49.675C31.5288 49.881 31.2802 50.042 30.9842 50.158C30.6882 50.2717 30.3556 50.3285 29.9862 50.3285ZM33.52 50.2148V44.7597H34.3298V45.5836H34.3866C34.486 45.3137 34.666 45.0947 34.9264 44.9266C35.1869 44.7585 35.4804 44.6744 35.8072 44.6744C35.8687 44.6744 35.9457 44.6756 36.038 44.678C36.1304 44.6804 36.2002 44.6839 36.2476 44.6887V45.541C36.2192 45.5339 36.1541 45.5233 36.0522 45.5091C35.9528 45.4925 35.8474 45.4842 35.7362 45.4842C35.471 45.4842 35.2342 45.5398 35.0259 45.6511C34.8199 45.76 34.6565 45.9116 34.5357 46.1057C34.4174 46.2975 34.3582 46.5165 34.3582 46.7628V50.2148H33.52Z" fill="#48403F"/>
<path d="M51.4821 3.3584H40.2026V95.1722H51.4821V3.3584Z" fill="#D8C3A8"/>
<path fill-rule="evenodd" clip-rule="evenodd" d="M42.3634 7.90866L51.4573 4.50705C51.096 1.23671 49.1283 0.10471 46.3887 0C42.7433 0.121023 39.1858 0.297804 37.2947 1.53071L42.3634 7.90866Z" fill="url(#paint24_linear_806_4392)"/>
<path d="M42.5745 94.8018H9.1051V108.776H42.5745V94.8018Z" fill="#B4A48F"/>
<path fill-rule="evenodd" clip-rule="evenodd" d="M40.6639 91.7549L51.469 92.9826L51.5085 104.144C51.5029 107.023 49.3417 108.676 47.1074 108.776L42.2979 108.72L36.9744 95.6056L40.6639 91.7549Z" fill="url(#paint25_linear_806_4392)"/>
<path fill-rule="evenodd" clip-rule="evenodd" d="M7.52405 91.6504L0.0395508 92.9892L0 104.146C0.0056 107.024 2.16682 108.677 4.40112 108.777L9.21057 108.721L10.8973 95.667L7.52405 91.6504Z" fill="url(#paint26_linear_806_4392)"/>
<path d="M38.5469 0.686523H11.5529C8.91815 0.686523 6.78235 2.83729 6.78235 5.4904V92.8422C6.78235 95.4954 8.91815 97.6461 11.5529 97.6461H38.5469C41.1816 97.6461 43.3174 95.4954 43.3174 92.8422V5.4904C43.3174 2.83729 41.1816 0.686523 38.5469 0.686523Z" fill="#E6D3B9"/>
<path d="M37.1641 1.01855H11.6641C9.06507 1.01855 7.16406 2.66519 7.16406 5.31969V92.7174C7.16406 95.3719 9.56507 97.0186 12.1641 97.0186H37.1641C39.7631 97.0186 42.1641 95.3719 42.1641 92.7174V5.31969C42.1641 2.66519 39.7631 1.01855 37.1641 1.01855Z" fill="url(#paint27_linear_806_4392)"/>
<path d="M12.4106 50.2148V42.9413H16.8003V43.7226H13.2913V46.1803H16.573V46.9616H13.2913V49.4335H16.8571V50.2148H12.4106ZM19.1123 46.9332V50.2148H18.2741V44.7597H19.0839V45.6121H19.1549C19.2828 45.335 19.4769 45.1125 19.7374 44.9444C19.9978 44.7739 20.334 44.6887 20.746 44.6887C21.1154 44.6887 21.4386 44.7644 21.7156 44.916C21.9926 45.0651 22.2081 45.2924 22.362 45.5978C22.5159 45.9009 22.5928 46.2845 22.5928 46.7485V50.2148H21.7547V46.8054C21.7547 46.3768 21.6434 46.043 21.4208 45.8038C21.1982 45.5623 20.8928 45.4416 20.5045 45.4416C20.237 45.4416 19.9978 45.4996 19.7871 45.6156C19.5787 45.7316 19.4142 45.9009 19.2934 46.1235C19.1727 46.346 19.1123 46.616 19.1123 46.9332ZM26.4968 44.7597V45.47H23.6698V44.7597H26.4968ZM24.4938 43.4527H25.3319V48.6522C25.3319 48.8889 25.3663 49.0665 25.4349 49.1849C25.506 49.3009 25.5959 49.379 25.7048 49.4193C25.8161 49.4572 25.9333 49.4761 26.0565 49.4761C26.1488 49.4761 26.2246 49.4714 26.2837 49.4619C26.3429 49.4501 26.3903 49.4406 26.4258 49.4335L26.5963 50.1864C26.5395 50.2077 26.4601 50.229 26.3583 50.2504C26.2565 50.274 26.1275 50.2859 25.9712 50.2859C25.7344 50.2859 25.5024 50.235 25.2751 50.1332C25.0502 50.0313 24.8631 49.8763 24.714 49.6679C24.5672 49.4596 24.4938 49.1967 24.4938 48.8795V43.4527ZM29.9862 50.3285C29.4606 50.3285 29.0072 50.2125 28.626 49.9804C28.2472 49.746 27.9547 49.4193 27.7488 49.0002C27.5451 48.5788 27.4433 48.0887 27.4433 47.5299C27.4433 46.9711 27.5451 46.4786 27.7488 46.0524C27.9547 45.6239 28.2412 45.29 28.6082 45.0509C28.9776 44.8094 29.4085 44.6887 29.901 44.6887C30.1851 44.6887 30.4657 44.736 30.7427 44.8307C31.0197 44.9254 31.2719 45.0793 31.4992 45.2924C31.7265 45.5031 31.9076 45.7825 32.0426 46.1306C32.1775 46.4786 32.245 46.9072 32.245 47.4162V47.7714H28.04V47.0469H31.3926C31.3926 46.7391 31.3311 46.4644 31.208 46.2229C31.0872 45.9814 30.9144 45.7908 30.6894 45.6511C30.4669 45.5114 30.2041 45.4416 29.901 45.4416C29.5671 45.4416 29.2783 45.5245 29.0344 45.6902C28.7929 45.8536 28.607 46.0667 28.4768 46.3295C28.3466 46.5923 28.2815 46.874 28.2815 47.1747V47.6577C28.2815 48.0697 28.3525 48.419 28.4946 48.7054C28.639 48.9896 28.8391 49.2062 29.0948 49.3554C29.3505 49.5022 29.6476 49.5756 29.9862 49.5756C30.2064 49.5756 30.4053 49.5448 30.5829 49.4832C30.7628 49.4193 30.9179 49.3246 31.0481 49.1991C31.1784 49.0712 31.279 48.9126 31.35 48.7232L32.1598 48.9505C32.0745 49.2251 31.9313 49.4667 31.73 49.675C31.5288 49.881 31.2802 50.042 30.9842 50.158C30.6882 50.2717 30.3556 50.3285 29.9862 50.3285ZM33.52 50.2148V44.7597H34.3298V45.5836H34.3866C34.486 45.3137 34.666 45.0947 34.9264 44.9266C35.1869 44.7585 35.4804 44.6744 35.8072 44.6744C35.8687 44.6744 35.9457 44.6756 36.038 44.678C36.1304 44.6804 36.2002 44.6839 36.2476 44.6887V45.541C36.2192 45.5339 36.1541 45.5233 36.0522 45.5091C35.9528 45.4925 35.8474 45.4842 35.7362 45.4842C35.471 45.4842 35.2342 45.5398 35.0259 45.6511C34.8199 45.76 34.6565 45.9116 34.5357 46.1057C34.4174 46.2975 34.3582 46.5165 34.3582 46.7628V50.2148H33.52Z" fill="#48403F"/>
<path d="M51.4821 3.3584H40.2026V95.1722H51.4821V3.3584Z" fill="#D8C3A8"/>
<path fill-rule="evenodd" clip-rule="evenodd" d="M42.3634 7.90866L51.4573 4.50705C51.096 1.23671 49.1283 0.10471 46.3887 0C42.7433 0.121023 39.1858 0.297804 37.2947 1.53071L42.3634 7.90866Z" fill="url(#paint28_linear_806_4392)"/>
<path d="M42.5745 94.8018H9.1051V108.776H42.5745V94.8018Z" fill="#B4A48F"/>
<path fill-rule="evenodd" clip-rule="evenodd" d="M40.6639 91.7549L51.469 92.9826L51.5085 104.144C51.5029 107.023 49.3417 108.676 47.1074 108.776L42.2979 108.72L36.9744 95.6056L40.6639 91.7549Z" fill="url(#paint29_linear_806_4392)"/>
<path fill-rule="evenodd" clip-rule="evenodd" d="M7.52405 91.6504L0.0395508 92.9892L0 104.146C0.0056 107.024 2.16682 108.677 4.40112 108.777L9.21057 108.721L10.8973 95.667L7.52405 91.6504Z" fill="url(#paint30_linear_806_4392)"/>
<path d="M38.5469 0.686523H11.5529C8.91815 0.686523 6.78235 2.83729 6.78235 5.4904V92.8422C6.78235 95.4954 8.91815 97.6461 11.5529 97.6461H38.5469C41.1816 97.6461 43.3174 95.4954 43.3174 92.8422V5.4904C43.3174 2.83729 41.1816 0.686523 38.5469 0.686523Z" fill="#E6D3B9"/>
<path d="M37.1641 1.01855H11.6641C9.06507 1.01855 7.16406 2.66519 7.16406 5.31969V92.7174C7.16406 95.3719 9.56507 97.0186 12.1641 97.0186H37.1641C39.7631 97.0186 42.1641 95.3719 42.1641 92.7174V5.31969C42.1641 2.66519 39.7631 1.01855 37.1641 1.01855Z" fill="url(#paint31_linear_806_4392)"/>
<path d="M12.4106 50.2148V42.9413H16.8003V43.7226H13.2913V46.1803H16.573V46.9616H13.2913V49.4335H16.8571V50.2148H12.4106ZM19.1123 46.9332V50.2148H18.2741V44.7597H19.0839V45.6121H19.1549C19.2828 45.335 19.4769 45.1125 19.7374 44.9444C19.9978 44.7739 20.334 44.6887 20.746 44.6887C21.1154 44.6887 21.4386 44.7644 21.7156 44.916C21.9926 45.0651 22.2081 45.2924 22.362 45.5978C22.5159 45.9009 22.5928 46.2845 22.5928 46.7485V50.2148H21.7547V46.8054C21.7547 46.3768 21.6434 46.043 21.4208 45.8038C21.1982 45.5623 20.8928 45.4416 20.5045 45.4416C20.237 45.4416 19.9978 45.4996 19.7871 45.6156C19.5787 45.7316 19.4142 45.9009 19.2934 46.1235C19.1727 46.346 19.1123 46.616 19.1123 46.9332ZM26.4968 44.7597V45.47H23.6698V44.7597H26.4968ZM24.4938 43.4527H25.3319V48.6522C25.3319 48.8889 25.3663 49.0665 25.4349 49.1849C25.506 49.3009 25.5959 49.379 25.7048 49.4193C25.8161 49.4572 25.9333 49.4761 26.0565 49.4761C26.1488 49.4761 26.2246 49.4714 26.2837 49.4619C26.3429 49.4501 26.3903 49.4406 26.4258 49.4335L26.5963 50.1864C26.5395 50.2077 26.4601 50.229 26.3583 50.2504C26.2565 50.274 26.1275 50.2859 25.9712 50.2859C25.7344 50.2859 25.5024 50.235 25.2751 50.1332C25.0502 50.0313 24.8631 49.8763 24.714 49.6679C24.5672 49.4596 24.4938 49.1967 24.4938 48.8795V43.4527ZM29.9862 50.3285C29.4606 50.3285 29.0072 50.2125 28.626 49.9804C28.2472 49.746 27.9547 49.4193 27.7488 49.0002C27.5451 48.5788 27.4433 48.0887 27.4433 47.5299C27.4433 46.9711 27.5451 46.4786 27.7488 46.0524C27.9547 45.6239 28.2412 45.29 28.6082 45.0509C28.9776 44.8094 29.4085 44.6887 29.901 44.6887C30.1851 44.6887 30.4657 44.736 30.7427 44.8307C31.0197 44.9254 31.2719 45.0793 31.4992 45.2924C31.7265 45.5031 31.9076 45.7825 32.0426 46.1306C32.1775 46.4786 32.245 46.9072 32.245 47.4162V47.7714H28.04V47.0469H31.3926C31.3926 46.7391 31.3311 46.4644 31.208 46.2229C31.0872 45.9814 30.9144 45.7908 30.6894 45.6511C30.4669 45.5114 30.2041 45.4416 29.901 45.4416C29.5671 45.4416 29.2783 45.5245 29.0344 45.6902C28.7929 45.8536 28.607 46.0667 28.4768 46.3295C28.3466 46.5923 28.2815 46.874 28.2815 47.1747V47.6577C28.2815 48.0697 28.3525 48.419 28.4946 48.7054C28.639 48.9896 28.8391 49.2062 29.0948 49.3554C29.3505 49.5022 29.6476 49.5756 29.9862 49.5756C30.2064 49.5756 30.4053 49.5448 30.5829 49.4832C30.7628 49.4193 30.9179 49.3246 31.0481 49.1991C31.1784 49.0712 31.279 48.9126 31.35 48.7232L32.1598 48.9505C32.0745 49.2251 31.9313 49.4667 31.73 49.675C31.5288 49.881 31.2802 50.042 30.9842 50.158C30.6882 50.2717 30.3556 50.3285 29.9862 50.3285ZM33.52 50.2148V44.7597H34.3298V45.5836H34.3866C34.486 45.3137 34.666 45.0947 34.9264 44.9266C35.1869 44.7585 35.4804 44.6744 35.8072 44.6744C35.8687 44.6744 35.9457 44.6756 36.038 44.678C36.1304 44.6804 36.2002 44.6839 36.2476 44.6887V45.541C36.2192 45.5339 36.1541 45.5233 36.0522 45.5091C35.9528 45.4925 35.8474 45.4842 35.7362 45.4842C35.471 45.4842 35.2342 45.5398 35.0259 45.6511C34.8199 45.76 34.6565 45.9116 34.5357 46.1057C34.4174 46.2975 34.3582 46.5165 34.3582 46.7628V50.2148H33.52Z" fill="#48403F"/>
<path d="M51.4821 3.3584H40.2026V95.1722H51.4821V3.3584Z" fill="#D8C3A8"/>
<path fill-rule="evenodd" clip-rule="evenodd" d="M42.3634 7.90866L51.4573 4.50705C51.096 1.23671 49.1283 0.10471 46.3887 0C42.7433 0.121023 39.1858 0.297804 37.2947 1.53071L42.3634 7.90866Z" fill="url(#paint32_linear_806_4392)"/>
<path d="M42.5745 94.8018H9.1051V108.776H42.5745V94.8018Z" fill="#B4A48F"/>
<path fill-rule="evenodd" clip-rule="evenodd" d="M40.6639 91.7549L51.469 92.9826L51.5085 104.144C51.5029 107.023 49.3417 108.676 47.1074 108.776L42.2979 108.72L36.9744 95.6056L40.6639 91.7549Z" fill="url(#paint33_linear_806_4392)"/>
<path fill-rule="evenodd" clip-rule="evenodd" d="M7.52405 91.6504L0.0395508 92.9892L0 104.146C0.0056 107.024 2.16682 108.677 4.40112 108.777L9.21057 108.721L10.8973 95.667L7.52405 91.6504Z" fill="url(#paint34_linear_806_4392)"/>
<path d="M38.5469 0.686523H11.5529C8.91815 0.686523 6.78235 2.83729 6.78235 5.4904V92.8422C6.78235 95.4954 8.91815 97.6461 11.5529 97.6461H38.5469C41.1816 97.6461 43.3174 95.4954 43.3174 92.8422V5.4904C43.3174 2.83729 41.1816 0.686523 38.5469 0.686523Z" fill="#E6D3B9"/>
<path d="M37.1641 1.01855H11.6641C9.06507 1.01855 7.16406 2.66519 7.16406 5.31969V92.7174C7.16406 95.3719 9.56507 97.0186 12.1641 97.0186H37.1641C39.7631 97.0186 42.1641 95.3719 42.1641 92.7174V5.31969C42.1641 2.66519 39.7631 1.01855 37.1641 1.01855Z" fill="url(#paint35_linear_806_4392)"/>
<path d="M12.4106 50.2148V42.9413H16.8003V43.7226H13.2913V46.1803H16.573V46.9616H13.2913V49.4335H16.8571V50.2148H12.4106ZM19.1123 46.9332V50.2148H18.2741V44.7597H19.0839V45.6121H19.1549C19.2828 45.335 19.4769 45.1125 19.7374 44.9444C19.9978 44.7739 20.334 44.6887 20.746 44.6887C21.1154 44.6887 21.4386 44.7644 21.7156 44.916C21.9926 45.0651 22.2081 45.2924 22.362 45.5978C22.5159 45.9009 22.5928 46.2845 22.5928 46.7485V50.2148H21.7547V46.8054C21.7547 46.3768 21.6434 46.043 21.4208 45.8038C21.1982 45.5623 20.8928 45.4416 20.5045 45.4416C20.237 45.4416 19.9978 45.4996 19.7871 45.6156C19.5787 45.7316 19.4142 45.9009 19.2934 46.1235C19.1727 46.346 19.1123 46.616 19.1123 46.9332ZM26.4968 44.7597V45.47H23.6698V44.7597H26.4968ZM24.4938 43.4527H25.3319V48.6522C25.3319 48.8889 25.3663 49.0665 25.4349 49.1849C25.506 49.3009 25.5959 49.379 25.7048 49.4193C25.8161 49.4572 25.9333 49.4761 26.0565 49.4761C26.1488 49.4761 26.2246 49.4714 26.2837 49.4619C26.3429 49.4501 26.3903 49.4406 26.4258 49.4335L26.5963 50.1864C26.5395 50.2077 26.4601 50.229 26.3583 50.2504C26.2565 50.274 26.1275 50.2859 25.9712 50.2859C25.7344 50.2859 25.5024 50.235 25.2751 50.1332C25.0502 50.0313 24.8631 49.8763 24.714 49.6679C24.5672 49.4596 24.4938 49.1967 24.4938 48.8795V43.4527ZM29.9862 50.3285C29.4606 50.3285 29.0072 50.2125 28.626 49.9804C28.2472 49.746 27.9547 49.4193 27.7488 49.0002C27.5451 48.5788 27.4433 48.0887 27.4433 47.5299C27.4433 46.9711 27.5451 46.4786 27.7488 46.0524C27.9547 45.6239 28.2412 45.29 28.6082 45.0509C28.9776 44.8094 29.4085 44.6887 29.901 44.6887C30.1851 44.6887 30.4657 44.736 30.7427 44.8307C31.0197 44.9254 31.2719 45.0793 31.4992 45.2924C31.7265 45.5031 31.9076 45.7825 32.0426 46.1306C32.1775 46.4786 32.245 46.9072 32.245 47.4162V47.7714H28.04V47.0469H31.3926C31.3926 46.7391 31.3311 46.4644 31.208 46.2229C31.0872 45.9814 30.9144 45.7908 30.6894 45.6511C30.4669 45.5114 30.2041 45.4416 29.901 45.4416C29.5671 45.4416 29.2783 45.5245 29.0344 45.6902C28.7929 45.8536 28.607 46.0667 28.4768 46.3295C28.3466 46.5923 28.2815 46.874 28.2815 47.1747V47.6577C28.2815 48.0697 28.3525 48.419 28.4946 48.7054C28.639 48.9896 28.8391 49.2062 29.0948 49.3554C29.3505 49.5022 29.6476 49.5756 29.9862 49.5756C30.2064 49.5756 30.4053 49.5448 30.5829 49.4832C30.7628 49.4193 30.9179 49.3246 31.0481 49.1991C31.1784 49.0712 31.279 48.9126 31.35 48.7232L32.1598 48.9505C32.0745 49.2251 31.9313 49.4667 31.73 49.675C31.5288 49.881 31.2802 50.042 30.9842 50.158C30.6882 50.2717 30.3556 50.3285 29.9862 50.3285ZM33.52 50.2148V44.7597H34.3298V45.5836H34.3866C34.486 45.3137 34.666 45.0947 34.9264 44.9266C35.1869 44.7585 35.4804 44.6744 35.8072 44.6744C35.8687 44.6744 35.9457 44.6756 36.038 44.678C36.1304 44.6804 36.2002 44.6839 36.2476 44.6887V45.541C36.2192 45.5339 36.1541 45.5233 36.0522 45.5091C35.9528 45.4925 35.8474 45.4842 35.7362 45.4842C35.471 45.4842 35.2342 45.5398 35.0259 45.6511C34.8199 45.76 34.6565 45.9116 34.5357 46.1057C34.4174 46.2975 34.3582 46.5165 34.3582 46.7628V50.2148H33.52Z" fill="#48403F"/>
<path d="M51.4821 3.3584H40.2026V95.1722H51.4821V3.3584Z" fill="#D8C3A8"/>
<path fill-rule="evenodd" clip-rule="evenodd" d="M42.3634 7.90866L51.4573 4.50705C51.096 1.23671 49.1283 0.10471 46.3887 0C42.7433 0.121023 39.1858 0.297804 37.2947 1.53071L42.3634 7.90866Z" fill="url(#paint36_linear_806_4392)"/>
<path d="M42.5745 94.8018H9.1051V108.776H42.5745V94.8018Z" fill="#B4A48F"/>
<path fill-rule="evenodd" clip-rule="evenodd" d="M40.6639 91.7549L51.469 92.9826L51.5085 104.144C51.5029 107.023 49.3417 108.676 47.1074 108.776L42.2979 108.72L36.9744 95.6056L40.6639 91.7549Z" fill="url(#paint37_linear_806_4392)"/>
<path fill-rule="evenodd" clip-rule="evenodd" d="M7.52405 91.6504L0.0395508 92.9892L0 104.146C0.0056 107.024 2.16682 108.677 4.40112 108.777L9.21057 108.721L10.8973 95.667L7.52405 91.6504Z" fill="url(#paint38_linear_806_4392)"/>
<path d="M38.5469 0.686523H11.5529C8.91815 0.686523 6.78235 2.83729 6.78235 5.4904V92.8422C6.78235 95.4954 8.91815 97.6461 11.5529 97.6461H38.5469C41.1816 97.6461 43.3174 95.4954 43.3174 92.8422V5.4904C43.3174 2.83729 41.1816 0.686523 38.5469 0.686523Z" fill="#E6D3B9"/>
<path d="M37.1641 1.01855H11.6641C9.06507 1.01855 7.16406 2.66519 7.16406 5.31969V92.7174C7.16406 95.3719 9.56507 97.0186 12.1641 97.0186H37.1641C39.7631 97.0186 42.1641 95.3719 42.1641 92.7174V5.31969C42.1641 2.66519 39.7631 1.01855 37.1641 1.01855Z" fill="url(#paint39_linear_806_4392)"/>
<path d="M12.4106 50.2148V42.9413H16.8003V43.7226H13.2913V46.1803H16.573V46.9616H13.2913V49.4335H16.8571V50.2148H12.4106ZM19.1123 46.9332V50.2148H18.2741V44.7597H19.0839V45.6121H19.1549C19.2828 45.335 19.4769 45.1125 19.7374 44.9444C19.9978 44.7739 20.334 44.6887 20.746 44.6887C21.1154 44.6887 21.4386 44.7644 21.7156 44.916C21.9926 45.0651 22.2081 45.2924 22.362 45.5978C22.5159 45.9009 22.5928 46.2845 22.5928 46.7485V50.2148H21.7547V46.8054C21.7547 46.3768 21.6434 46.043 21.4208 45.8038C21.1982 45.5623 20.8928 45.4416 20.5045 45.4416C20.237 45.4416 19.9978 45.4996 19.7871 45.6156C19.5787 45.7316 19.4142 45.9009 19.2934 46.1235C19.1727 46.346 19.1123 46.616 19.1123 46.9332ZM26.4968 44.7597V45.47H23.6698V44.7597H26.4968ZM24.4938 43.4527H25.3319V48.6522C25.3319 48.8889 25.3663 49.0665 25.4349 49.1849C25.506 49.3009 25.5959 49.379 25.7048 49.4193C25.8161 49.4572 25.9333 49.4761 26.0565 49.4761C26.1488 49.4761 26.2246 49.4714 26.2837 49.4619C26.3429 49.4501 26.3903 49.4406 26.4258 49.4335L26.5963 50.1864C26.5395 50.2077 26.4601 50.229 26.3583 50.2504C26.2565 50.274 26.1275 50.2859 25.9712 50.2859C25.7344 50.2859 25.5024 50.235 25.2751 50.1332C25.0502 50.0313 24.8631 49.8763 24.714 49.6679C24.5672 49.4596 24.4938 49.1967 24.4938 48.8795V43.4527ZM29.9862 50.3285C29.4606 50.3285 29.0072 50.2125 28.626 49.9804C28.2472 49.746 27.9547 49.4193 27.7488 49.0002C27.5451 48.5788 27.4433 48.0887 27.4433 47.5299C27.4433 46.9711 27.5451 46.4786 27.7488 46.0524C27.9547 45.6239 28.2412 45.29 28.6082 45.0509C28.9776 44.8094 29.4085 44.6887 29.901 44.6887C30.1851 44.6887 30.4657 44.736 30.7427 44.8307C31.0197 44.9254 31.2719 45.0793 31.4992 45.2924C31.7265 45.5031 31.9076 45.7825 32.0426 46.1306C32.1775 46.4786 32.245 46.9072 32.245 47.4162V47.7714H28.04V47.0469H31.3926C31.3926 46.7391 31.3311 46.4644 31.208 46.2229C31.0872 45.9814 30.9144 45.7908 30.6894 45.6511C30.4669 45.5114 30.2041 45.4416 29.901 45.4416C29.5671 45.4416 29.2783 45.5245 29.0344 45.6902C28.7929 45.8536 28.607 46.0667 28.4768 46.3295C28.3466 46.5923 28.2815 46.874 28.2815 47.1747V47.6577C28.2815 48.0697 28.3525 48.419 28.4946 48.7054C28.639 48.9896 28.8391 49.2062 29.0948 49.3554C29.3505 49.5022 29.6476 49.5756 29.9862 49.5756C30.2064 49.5756 30.4053 49.5448 30.5829 49.4832C30.7628 49.4193 30.9179 49.3246 31.0481 49.1991C31.1784 49.0712 31.279 48.9126 31.35 48.7232L32.1598 48.9505C32.0745 49.2251 31.9313 49.4667 31.73 49.675C31.5288 49.881 31.2802 50.042 30.9842 50.158C30.6882 50.2717 30.3556 50.3285 29.9862 50.3285ZM33.52 50.2148V44.7597H34.3298V45.5836H34.3866C34.486 45.3137 34.666 45.0947 34.9264 44.9266C35.1869 44.7585 35.4804 44.6744 35.8072 44.6744C35.8687 44.6744 35.9457 44.6756 36.038 44.678C36.1304 44.6804 36.2002 44.6839 36.2476 44.6887V45.541C36.2192 45.5339 36.1541 45.5233 36.0522 45.5091C35.9528 45.4925 35.8474 45.4842 35.7362 45.4842C35.471 45.4842 35.2342 45.5398 35.0259 45.6511C34.8199 45.76 34.6565 45.9116 34.5357 46.1057C34.4174 46.2975 34.3582 46.5165 34.3582 46.7628V50.2148H33.52Z" fill="#48403F"/>
<path d="M51.4821 3.3584H40.2026V95.1722H51.4821V3.3584Z" fill="#D8C3A8"/>
<path fill-rule="evenodd" clip-rule="evenodd" d="M42.3634 7.90866L51.4573 4.50705C51.096 1.23671 49.1283 0.10471 46.3887 0C42.7433 0.121023 39.1858 0.297804 37.2947 1.53071L42.3634 7.90866Z" fill="url(#paint40_linear_806_4392)"/>
<path d="M42.5745 94.8018H9.1051V108.776H42.5745V94.8018Z" fill="#B4A48F"/>
<path fill-rule="evenodd" clip-rule="evenodd" d="M40.6639 91.7549L51.469 92.9826L51.5085 104.144C51.5029 107.023 49.3417 108.676 47.1074 108.776L42.2979 108.72L36.9744 95.6056L40.6639 91.7549Z" fill="url(#paint41_linear_806_4392)"/>
<path fill-rule="evenodd" clip-rule="evenodd" d="M7.52405 91.6504L0.0395508 92.9892L0 104.146C0.0056 107.024 2.16682 108.677 4.40112 108.777L9.21057 108.721L10.8973 95.667L7.52405 91.6504Z" fill="url(#paint42_linear_806_4392)"/>
<path d="M38.5469 0.686523H11.5529C8.91815 0.686523 6.78235 2.83729 6.78235 5.4904V92.8422C6.78235 95.4954 8.91815 97.6461 11.5529 97.6461H38.5469C41.1816 97.6461 43.3174 95.4954 43.3174 92.8422V5.4904C43.3174 2.83729 41.1816 0.686523 38.5469 0.686523Z" fill="#E6D3B9"/>
<path d="M37.1641 1.01855H11.6641C9.06507 1.01855 7.16406 2.66519 7.16406 5.31969V92.7174C7.16406 95.3719 9.56507 97.0186 12.1641 97.0186H37.1641C39.7631 97.0186 42.1641 95.3719 42.1641 92.7174V5.31969C42.1641 2.66519 39.7631 1.01855 37.1641 1.01855Z" fill="url(#paint43_linear_806_4392)"/>
<path d="M15.8764 53.4691V46.4379H17.0696V53.4691H15.8764ZM12.9573 50.5501V49.3569H19.9886V50.5501H12.9573Z" fill="#48403F"/>
<defs>
<linearGradient id="paint0_linear_806_4392" x1="43.7434" y1="4.08465" x2="43.115" y2="1.45727" gradientUnits="userSpaceOnUse">
<stop stop-color="#D8C3A8"/>
<stop offset="1" stop-color="#8F8372"/>
</linearGradient>
<linearGradient id="paint1_linear_806_4392" x1="47.5208" y1="99.003" x2="43.3479" y2="102.274" gradientUnits="userSpaceOnUse">
<stop stop-color="#D8C3A8"/>
<stop offset="1" stop-color="#B4A48F"/>
</linearGradient>
<linearGradient id="paint2_linear_806_4392" x1="2.79501" y1="98.5579" x2="7.56468" y2="101.83" gradientUnits="userSpaceOnUse">
<stop stop-color="#8F8372"/>
<stop offset="1" stop-color="#B4A48F"/>
</linearGradient>
<linearGradient id="paint3_linear_806_4392" x1="17.8242" y1="48.5185" x2="33.5836" y2="48.5185" gradientUnits="userSpaceOnUse">
<stop stop-color="#C5B49E"/>
<stop offset="0.498263" stop-color="#B6A792"/>
<stop offset="1" stop-color="#A6947C"/>
</linearGradient>
<linearGradient id="paint4_linear_806_4392" x1="43.7434" y1="4.08465" x2="43.115" y2="1.45727" gradientUnits="userSpaceOnUse">
<stop stop-color="#D8C3A8"/>
<stop offset="1" stop-color="#8F8372"/>
</linearGradient>
<linearGradient id="paint5_linear_806_4392" x1="47.5208" y1="99.003" x2="43.3479" y2="102.274" gradientUnits="userSpaceOnUse">
<stop stop-color="#D8C3A8"/>
<stop offset="1" stop-color="#B4A48F"/>
</linearGradient>
<linearGradient id="paint6_linear_806_4392" x1="2.79501" y1="98.5579" x2="7.56468" y2="101.83" gradientUnits="userSpaceOnUse">
<stop stop-color="#8F8372"/>
<stop offset="1" stop-color="#B4A48F"/>
</linearGradient>
<linearGradient id="paint7_linear_806_4392" x1="17.8242" y1="48.5185" x2="33.5836" y2="48.5185" gradientUnits="userSpaceOnUse">
<stop stop-color="#C5B49E"/>
<stop offset="0.498263" stop-color="#B6A792"/>
<stop offset="1" stop-color="#A6947C"/>
</linearGradient>
<linearGradient id="paint8_linear_806_4392" x1="43.7434" y1="4.08465" x2="43.115" y2="1.45727" gradientUnits="userSpaceOnUse">
<stop stop-color="#D8C3A8"/>
<stop offset="1" stop-color="#8F8372"/>
</linearGradient>
<linearGradient id="paint9_linear_806_4392" x1="47.5208" y1="99.003" x2="43.3479" y2="102.274" gradientUnits="userSpaceOnUse">
<stop stop-color="#D8C3A8"/>
<stop offset="1" stop-color="#B4A48F"/>
</linearGradient>
<linearGradient id="paint10_linear_806_4392" x1="2.79501" y1="98.5579" x2="7.56468" y2="101.83" gradientUnits="userSpaceOnUse">
<stop stop-color="#8F8372"/>
<stop offset="1" stop-color="#B4A48F"/>
</linearGradient>
<linearGradient id="paint11_linear_806_4392" x1="17.8242" y1="48.5185" x2="33.5836" y2="48.5185" gradientUnits="userSpaceOnUse">
<stop stop-color="#C5B49E"/>
<stop offset="0.498263" stop-color="#B6A792"/>
<stop offset="1" stop-color="#A6947C"/>
</linearGradient>
<linearGradient id="paint12_linear_806_4392" x1="43.7434" y1="4.08465" x2="43.115" y2="1.45727" gradientUnits="userSpaceOnUse">
<stop stop-color="#D8C3A8"/>
<stop offset="1" stop-color="#8F8372"/>
</linearGradient>
<linearGradient id="paint13_linear_806_4392" x1="47.5208" y1="99.003" x2="43.3479" y2="102.274" gradientUnits="userSpaceOnUse">
<stop stop-color="#D8C3A8"/>
<stop offset="1" stop-color="#B4A48F"/>
</linearGradient>
<linearGradient id="paint14_linear_806_4392" x1="2.79501" y1="98.5579" x2="7.56468" y2="101.83" gradientUnits="userSpaceOnUse">
<stop stop-color="#8F8372"/>
<stop offset="1" stop-color="#B4A48F"/>
</linearGradient>
<linearGradient id="paint15_linear_806_4392" x1="17.8242" y1="48.5185" x2="33.5836" y2="48.5185" gradientUnits="userSpaceOnUse">
<stop stop-color="#C5B49E"/>
<stop offset="0.498263" stop-color="#B6A792"/>
<stop offset="1" stop-color="#A6947C"/>
</linearGradient>
<linearGradient id="paint16_linear_806_4392" x1="43.7434" y1="4.53505" x2="43.1124" y2="1.90251" gradientUnits="userSpaceOnUse">
<stop stop-color="#D8C3A8"/>
<stop offset="1" stop-color="#8F8372"/>
</linearGradient>
<linearGradient id="paint17_linear_806_4392" x1="47.5208" y1="99.6625" x2="43.3409" y2="102.931" gradientUnits="userSpaceOnUse">
<stop stop-color="#D8C3A8"/>
<stop offset="1" stop-color="#B4A48F"/>
</linearGradient>
<linearGradient id="paint18_linear_806_4392" x1="2.79501" y1="99.2166" x2="7.57139" y2="102.486" gradientUnits="userSpaceOnUse">
<stop stop-color="#8F8372"/>
<stop offset="1" stop-color="#B4A48F"/>
</linearGradient>
<linearGradient id="paint19_linear_806_4392" x1="17.8242" y1="49.0664" x2="33.5836" y2="49.0664" gradientUnits="userSpaceOnUse">
<stop stop-color="#C5B49E"/>
<stop offset="0.498263" stop-color="#B6A792"/>
<stop offset="1" stop-color="#A6947C"/>
</linearGradient>
<linearGradient id="paint20_linear_806_4392" x1="43.7434" y1="4.67589" x2="42.9335" y2="1.71789" gradientUnits="userSpaceOnUse">
<stop stop-color="#D8C3A8"/>
<stop offset="1" stop-color="#8F8372"/>
</linearGradient>
<linearGradient id="paint21_linear_806_4392" x1="47.5208" y1="99.4554" x2="43.1585" y2="102.674" gradientUnits="userSpaceOnUse">
<stop stop-color="#D8C3A8"/>
<stop offset="1" stop-color="#B4A48F"/>
</linearGradient>
<linearGradient id="paint22_linear_806_4392" x1="2.79501" y1="98.9862" x2="7.74423" y2="102.183" gradientUnits="userSpaceOnUse">
<stop stop-color="#8F8372"/>
<stop offset="1" stop-color="#B4A48F"/>
</linearGradient>
<linearGradient id="paint23_linear_806_4392" x1="17.8242" y1="49.0185" x2="33.5836" y2="49.0185" gradientUnits="userSpaceOnUse">
<stop stop-color="#C5B49E"/>
<stop offset="0.498263" stop-color="#B6A792"/>
<stop offset="1" stop-color="#A6947C"/>
</linearGradient>
<linearGradient id="paint24_linear_806_4392" x1="43.7434" y1="4.67589" x2="42.9335" y2="1.71789" gradientUnits="userSpaceOnUse">
<stop stop-color="#D8C3A8"/>
<stop offset="1" stop-color="#8F8372"/>
</linearGradient>
<linearGradient id="paint25_linear_806_4392" x1="47.5208" y1="99.4554" x2="43.1585" y2="102.674" gradientUnits="userSpaceOnUse">
<stop stop-color="#D8C3A8"/>
<stop offset="1" stop-color="#B4A48F"/>
</linearGradient>
<linearGradient id="paint26_linear_806_4392" x1="2.79501" y1="98.9862" x2="7.74423" y2="102.183" gradientUnits="userSpaceOnUse">
<stop stop-color="#8F8372"/>
<stop offset="1" stop-color="#B4A48F"/>
</linearGradient>
<linearGradient id="paint27_linear_806_4392" x1="17.8242" y1="49.0185" x2="33.5836" y2="49.0185" gradientUnits="userSpaceOnUse">
<stop stop-color="#C5B49E"/>
<stop offset="0.498263" stop-color="#B6A792"/>
<stop offset="1" stop-color="#A6947C"/>
</linearGradient>
<linearGradient id="paint28_linear_806_4392" x1="43.7434" y1="4.67589" x2="42.9335" y2="1.71789" gradientUnits="userSpaceOnUse">
<stop stop-color="#D8C3A8"/>
<stop offset="1" stop-color="#8F8372"/>
</linearGradient>
<linearGradient id="paint29_linear_806_4392" x1="47.5208" y1="99.4554" x2="43.1585" y2="102.674" gradientUnits="userSpaceOnUse">
<stop stop-color="#D8C3A8"/>
<stop offset="1" stop-color="#B4A48F"/>
</linearGradient>
<linearGradient id="paint30_linear_806_4392" x1="2.79501" y1="98.9862" x2="7.74423" y2="102.183" gradientUnits="userSpaceOnUse">
<stop stop-color="#8F8372"/>
<stop offset="1" stop-color="#B4A48F"/>
</linearGradient>
<linearGradient id="paint31_linear_806_4392" x1="17.8242" y1="49.0185" x2="33.5836" y2="49.0185" gradientUnits="userSpaceOnUse">
<stop stop-color="#C5B49E"/>
<stop offset="0.498263" stop-color="#B6A792"/>
<stop offset="1" stop-color="#A6947C"/>
</linearGradient>
<linearGradient id="paint32_linear_806_4392" x1="43.7434" y1="4.67589" x2="42.9335" y2="1.71789" gradientUnits="userSpaceOnUse">
<stop stop-color="#D8C3A8"/>
<stop offset="1" stop-color="#8F8372"/>
</linearGradient>
<linearGradient id="paint33_linear_806_4392" x1="47.5208" y1="99.4554" x2="43.1585" y2="102.674" gradientUnits="userSpaceOnUse">
<stop stop-color="#D8C3A8"/>
<stop offset="1" stop-color="#B4A48F"/>
</linearGradient>
<linearGradient id="paint34_linear_806_4392" x1="2.79501" y1="98.9862" x2="7.74423" y2="102.183" gradientUnits="userSpaceOnUse">
<stop stop-color="#8F8372"/>
<stop offset="1" stop-color="#B4A48F"/>
</linearGradient>
<linearGradient id="paint35_linear_806_4392" x1="17.8242" y1="49.0185" x2="33.5836" y2="49.0185" gradientUnits="userSpaceOnUse">
<stop stop-color="#C5B49E"/>
<stop offset="0.498263" stop-color="#B6A792"/>
<stop offset="1" stop-color="#A6947C"/>
</linearGradient>
<linearGradient id="paint36_linear_806_4392" x1="43.7434" y1="4.67589" x2="42.9335" y2="1.71789" gradientUnits="userSpaceOnUse">
<stop stop-color="#D8C3A8"/>
<stop offset="1" stop-color="#8F8372"/>
</linearGradient>
<linearGradient id="paint37_linear_806_4392" x1="47.5208" y1="99.4554" x2="43.1585" y2="102.674" gradientUnits="userSpaceOnUse">
<stop stop-color="#D8C3A8"/>
<stop offset="1" stop-color="#B4A48F"/>
</linearGradient>
<linearGradient id="paint38_linear_806_4392" x1="2.79501" y1="98.9862" x2="7.74423" y2="102.183" gradientUnits="userSpaceOnUse">
<stop stop-color="#8F8372"/>
<stop offset="1" stop-color="#B4A48F"/>
</linearGradient>
<linearGradient id="paint39_linear_806_4392" x1="17.8242" y1="49.0185" x2="33.5836" y2="49.0185" gradientUnits="userSpaceOnUse">
<stop stop-color="#C5B49E"/>
<stop offset="0.498263" stop-color="#B6A792"/>
<stop offset="1" stop-color="#A6947C"/>
</linearGradient>
<linearGradient id="paint40_linear_806_4392" x1="43.7434" y1="4.67589" x2="42.9335" y2="1.71789" gradientUnits="userSpaceOnUse">
<stop stop-color="#D8C3A8"/>
<stop offset="1" stop-color="#8F8372"/>
</linearGradient>
<linearGradient id="paint41_linear_806_4392" x1="47.5208" y1="99.4554" x2="43.1585" y2="102.674" gradientUnits="userSpaceOnUse">
<stop stop-color="#D8C3A8"/>
<stop offset="1" stop-color="#B4A48F"/>
</linearGradient>
<linearGradient id="paint42_linear_806_4392" x1="2.79501" y1="98.9862" x2="7.74423" y2="102.183" gradientUnits="userSpaceOnUse">
<stop stop-color="#8F8372"/>
<stop offset="1" stop-color="#B4A48F"/>
</linearGradient>
<linearGradient id="paint43_linear_806_4392" x1="17.8242" y1="49.0185" x2="33.5836" y2="49.0185" gradientUnits="userSpaceOnUse">
<stop stop-color="#C5B49E"/>
<stop offset="0.498263" stop-color="#B6A792"/>
<stop offset="1" stop-color="#A6947C"/>
</linearGradient>
</defs>
</svg>
