<svg width="52" height="53" viewBox="0 0 52 53" fill="none" xmlns="http://www.w3.org/2000/svg">
<path d="M46.7356 0.0292969H4.78247C2.14777 0.0292969 0.0118408 1.82529 0.0118408 4.04077V48.062C0.0118408 50.2774 2.14777 52.0734 4.78247 52.0734H46.7356C49.3703 52.0734 51.5061 50.2774 51.5061 48.062V4.04077C51.5061 1.82529 49.3703 0.0292969 46.7356 0.0292969Z" fill="#978E85"/>
<path d="M51.4819 3.89355H40.2025V38.4573H51.4819V3.89355Z" fill="#F4EBE2"/>
<path fill-rule="evenodd" clip-rule="evenodd" d="M42.3634 6.90866L51.4573 3.93716C51.096 1.08033 49.1281 0.09147 46.3885 0C42.7431 0.10572 39.1858 0.260118 37.2947 1.33713L42.3634 6.90866Z" fill="url(#paint0_linear_806_4387)"/>
<path d="M42.5743 39.0879H9.10498V52.0624H42.5743V39.0879Z" fill="#D0C5B9"/>
<path fill-rule="evenodd" clip-rule="evenodd" d="M40.6639 36.041L51.469 37.1966L51.5085 47.7023C51.5029 50.4118 49.3417 51.9685 47.1074 52.0622L42.2977 52.0097L36.9744 39.6655L40.6639 36.041Z" fill="url(#paint1_linear_806_4387)"/>
<path fill-rule="evenodd" clip-rule="evenodd" d="M7.52405 35.9355L0.0395508 37.1962L0 47.7019C0.0056 50.4114 2.16682 51.9681 4.40112 52.0618L9.21057 52.0093L10.8973 39.7176L7.52405 35.9355Z" fill="url(#paint2_linear_806_4387)"/>
<path d="M38.2994 1H11.7006C9.10453 1 7 3.11561 7 5.72536V36.2746C7 38.8844 8.90388 41.5 11.5 41.5H38C40.5961 41.5 43 38.8844 43 36.2746V5.72536C43 3.11561 40.8955 1 38.2994 1Z" fill="#F1F1F1"/>
<path d="M37.294 1H11.7058C9.10685 1 7 3.11561 7 5.72536V36.2746C7 38.8844 9.10685 41 11.7058 41H37.294C39.893 41 42 38.8844 42 36.2746V5.72536C42 3.11561 39.893 1 37.294 1Z" fill="url(#paint3_linear_806_4387)"/>
<path d="M11.054 15V14.1051L14.4148 10.4261C14.8092 9.99526 15.134 9.62074 15.3892 9.30256C15.6444 8.98106 15.8333 8.67945 15.956 8.39773C16.0819 8.11269 16.1449 7.81439 16.1449 7.50284C16.1449 7.14489 16.0587 6.83499 15.8864 6.57315C15.7173 6.31132 15.4853 6.10914 15.1903 5.96662C14.8954 5.8241 14.5639 5.75284 14.196 5.75284C13.8049 5.75284 13.4635 5.83404 13.1719 5.99645C12.8835 6.15554 12.6598 6.37926 12.5007 6.66761C12.3449 6.95597 12.267 7.29403 12.267 7.68182H11.0938C11.0938 7.08523 11.2313 6.56155 11.5064 6.1108C11.7815 5.66004 12.156 5.30871 12.63 5.05682C13.1072 4.80492 13.6425 4.67898 14.2358 4.67898C14.8324 4.67898 15.361 4.80492 15.8217 5.05682C16.2824 5.30871 16.6437 5.64844 16.9055 6.07599C17.1674 6.50355 17.2983 6.97917 17.2983 7.50284C17.2983 7.87737 17.2304 8.24361 17.0945 8.60156C16.9619 8.9562 16.7299 9.35227 16.3984 9.78977C16.0703 10.224 15.6146 10.7543 15.0312 11.3807L12.7443 13.8267V13.9062H17.4773V15H11.054Z" fill="#48403F"/>
<path d="M46.7356 0.0292969H4.78247C2.14777 0.0292969 0.0118408 1.82529 0.0118408 4.04077V48.062C0.0118408 50.2774 2.14777 52.0734 4.78247 52.0734H46.7356C49.3703 52.0734 51.5061 50.2774 51.5061 48.062V4.04077C51.5061 1.82529 49.3703 0.0292969 46.7356 0.0292969Z" fill="#978E85"/>
<path d="M51.4819 3.89355H40.2025V38.4573H51.4819V3.89355Z" fill="#F4EBE2"/>
<path fill-rule="evenodd" clip-rule="evenodd" d="M42.3634 6.90866L51.4573 3.93716C51.096 1.08033 49.1281 0.09147 46.3885 0C42.7431 0.10572 39.1858 0.260118 37.2947 1.33713L42.3634 6.90866Z" fill="url(#paint4_linear_806_4387)"/>
<path d="M42.5743 39.0879H9.10498V52.0624H42.5743V39.0879Z" fill="#D0C5B9"/>
<path fill-rule="evenodd" clip-rule="evenodd" d="M40.6639 36.041L51.469 37.1966L51.5085 47.7023C51.5029 50.4118 49.3417 51.9685 47.1074 52.0622L42.2977 52.0097L36.9744 39.6655L40.6639 36.041Z" fill="url(#paint5_linear_806_4387)"/>
<path fill-rule="evenodd" clip-rule="evenodd" d="M7.52405 35.9355L0.0395508 37.1962L0 47.7019C0.0056 50.4114 2.16682 51.9681 4.40112 52.0618L9.21057 52.0093L10.8973 39.7176L7.52405 35.9355Z" fill="url(#paint6_linear_806_4387)"/>
<path d="M38.2994 1H11.7006C9.10453 1 7 3.11561 7 5.72536V36.2746C7 38.8844 8.90388 41.5 11.5 41.5H38C40.5961 41.5 43 38.8844 43 36.2746V5.72536C43 3.11561 40.8955 1 38.2994 1Z" fill="#F1F1F1"/>
<path d="M37.294 1H11.7058C9.10685 1 7 3.11561 7 5.72536V36.2746C7 38.8844 9.10685 41 11.7058 41H37.294C39.893 41 42 38.8844 42 36.2746V5.72536C42 3.11561 39.893 1 37.294 1Z" fill="url(#paint7_linear_806_4387)"/>
<path d="M11.054 15V14.1051L14.4148 10.4261C14.8092 9.99526 15.134 9.62074 15.3892 9.30256C15.6444 8.98106 15.8333 8.67945 15.956 8.39773C16.0819 8.11269 16.1449 7.81439 16.1449 7.50284C16.1449 7.14489 16.0587 6.83499 15.8864 6.57315C15.7173 6.31132 15.4853 6.10914 15.1903 5.96662C14.8954 5.8241 14.5639 5.75284 14.196 5.75284C13.8049 5.75284 13.4635 5.83404 13.1719 5.99645C12.8835 6.15554 12.6598 6.37926 12.5007 6.66761C12.3449 6.95597 12.267 7.29403 12.267 7.68182H11.0938C11.0938 7.08523 11.2313 6.56155 11.5064 6.1108C11.7815 5.66004 12.156 5.30871 12.63 5.05682C13.1072 4.80492 13.6425 4.67898 14.2358 4.67898C14.8324 4.67898 15.361 4.80492 15.8217 5.05682C16.2824 5.30871 16.6437 5.64844 16.9055 6.07599C17.1674 6.50355 17.2983 6.97917 17.2983 7.50284C17.2983 7.87737 17.2304 8.24361 17.0945 8.60156C16.9619 8.9562 16.7299 9.35227 16.3984 9.78977C16.0703 10.224 15.6146 10.7543 15.0312 11.3807L12.7443 13.8267V13.9062H17.4773V15H11.054Z" fill="#48403F"/>
<path d="M46.7356 0.553711H4.78247C2.14777 0.553711 0.0118408 2.35366 0.0118408 4.57402V48.6921C0.0118408 50.9125 2.14777 52.7124 4.78247 52.7124H46.7356C49.3703 52.7124 51.5061 50.9125 51.5061 48.6921V4.57402C51.5061 2.35366 49.3703 0.553711 46.7356 0.553711Z" fill="#978E85"/>
<path d="M51.4819 4.42578H40.2025V39.0657H51.4819V4.42578Z" fill="#F4EBE2"/>
<path fill-rule="evenodd" clip-rule="evenodd" d="M42.3634 7.44828L51.4573 4.47025C51.096 1.60713 49.1281 0.616085 46.3885 0.524414C42.7431 0.630367 39.1858 0.785104 37.2947 1.86449L42.3634 7.44828Z" fill="url(#paint8_linear_806_4387)"/>
<path d="M42.5743 39.6982H9.10498V52.7014H42.5743V39.6982Z" fill="#D0C5B9"/>
<path fill-rule="evenodd" clip-rule="evenodd" d="M40.6639 36.6445L51.469 37.8027L51.5085 48.3315C51.5029 51.0469 49.3417 52.607 47.1074 52.701L42.2977 52.6483L36.9744 40.277L40.6639 36.6445Z" fill="url(#paint9_linear_806_4387)"/>
<path fill-rule="evenodd" clip-rule="evenodd" d="M7.52405 36.5391L0.0395508 37.8025L0 48.3314C0.0056 51.0468 2.16682 52.6069 4.40112 52.7008L9.21057 52.6482L10.8973 40.3294L7.52405 36.5391Z" fill="url(#paint10_linear_806_4387)"/>
<path d="M38.2994 1.52637H11.7006C9.10453 1.52637 7 3.64663 7 6.26213V36.8787C7 39.4942 8.90388 42.1155 11.5 42.1155H38C40.5961 42.1155 43 39.4942 43 36.8787V6.26213C43 3.64663 40.8955 1.52637 38.2994 1.52637Z" fill="#F1F1F1"/>
<path d="M37.294 1.52637H11.7058C9.10685 1.52637 7 3.64663 7 6.26213V36.8787C7 39.4942 9.10685 41.6144 11.7058 41.6144H37.294C39.893 41.6144 42 39.4942 42 36.8787V6.26213C42 3.64663 39.893 1.52637 37.294 1.52637Z" fill="url(#paint11_linear_806_4387)"/>
<path d="M11.054 15.5264V14.6315L14.4148 10.9525C14.8092 10.5216 15.134 10.1471 15.3892 9.82892C15.6444 9.50743 15.8333 9.20582 15.956 8.92409C16.0819 8.63906 16.1449 8.34076 16.1449 8.02921C16.1449 7.67125 16.0587 7.36136 15.8864 7.09952C15.7173 6.83768 15.4853 6.63551 15.1903 6.49299C14.8954 6.35047 14.5639 6.27921 14.196 6.27921C13.8049 6.27921 13.4635 6.36041 13.1719 6.52282C12.8835 6.68191 12.6598 6.90563 12.5007 7.19398C12.3449 7.48233 12.267 7.8204 12.267 8.20818H11.0938C11.0938 7.61159 11.2313 7.08792 11.5064 6.63716C11.7815 6.1864 12.156 5.83508 12.63 5.58318C13.1072 5.33129 13.6425 5.20534 14.2358 5.20534C14.8324 5.20534 15.361 5.33129 15.8217 5.58318C16.2824 5.83508 16.6437 6.1748 16.9055 6.60236C17.1674 7.02992 17.2983 7.50553 17.2983 8.02921C17.2983 8.40373 17.2304 8.76998 17.0945 9.12793C16.9619 9.48257 16.7299 9.87864 16.3984 10.3161C16.0703 10.7503 15.6146 11.2806 15.0312 11.907L12.7443 14.3531V14.4326H17.4773V15.5264H11.054Z" fill="#48403F"/>
<defs>
<linearGradient id="paint0_linear_806_4387" x1="43.7434" y1="4.08465" x2="43.115" y2="1.45727" gradientUnits="userSpaceOnUse">
<stop stop-color="#F4EBE2"/>
<stop offset="1" stop-color="#978E85"/>
</linearGradient>
<linearGradient id="paint1_linear_806_4387" x1="47.5208" y1="43.2892" x2="43.3479" y2="46.5597" gradientUnits="userSpaceOnUse">
<stop stop-color="#F4EBE2"/>
<stop offset="1" stop-color="#D0C5B9"/>
</linearGradient>
<linearGradient id="paint2_linear_806_4387" x1="2.79501" y1="42.843" x2="7.56468" y2="46.1149" gradientUnits="userSpaceOnUse">
<stop stop-color="#978E85"/>
<stop offset="1" stop-color="#D0C5B9"/>
</linearGradient>
<linearGradient id="paint3_linear_806_4387" x1="17.6603" y1="21" x2="33.4197" y2="21" gradientUnits="userSpaceOnUse">
<stop stop-color="#ECE0D4"/>
<stop offset="0.482638" stop-color="#DDD4CB"/>
<stop offset="1" stop-color="#C3B9AF"/>
</linearGradient>
<linearGradient id="paint4_linear_806_4387" x1="43.7434" y1="4.08465" x2="43.115" y2="1.45727" gradientUnits="userSpaceOnUse">
<stop stop-color="#F4EBE2"/>
<stop offset="1" stop-color="#978E85"/>
</linearGradient>
<linearGradient id="paint5_linear_806_4387" x1="47.5208" y1="43.2892" x2="43.3479" y2="46.5597" gradientUnits="userSpaceOnUse">
<stop stop-color="#F4EBE2"/>
<stop offset="1" stop-color="#D0C5B9"/>
</linearGradient>
<linearGradient id="paint6_linear_806_4387" x1="2.79501" y1="42.843" x2="7.56468" y2="46.1149" gradientUnits="userSpaceOnUse">
<stop stop-color="#978E85"/>
<stop offset="1" stop-color="#D0C5B9"/>
</linearGradient>
<linearGradient id="paint7_linear_806_4387" x1="17.6603" y1="21" x2="33.4197" y2="21" gradientUnits="userSpaceOnUse">
<stop stop-color="#ECE0D4"/>
<stop offset="0.482638" stop-color="#DDD4CB"/>
<stop offset="1" stop-color="#C3B9AF"/>
</linearGradient>
<linearGradient id="paint8_linear_806_4387" x1="43.7434" y1="4.61806" x2="43.1124" y2="1.98552" gradientUnits="userSpaceOnUse">
<stop stop-color="#F4EBE2"/>
<stop offset="1" stop-color="#978E85"/>
</linearGradient>
<linearGradient id="paint9_linear_806_4387" x1="47.5208" y1="43.9086" x2="43.3409" y2="47.1775" gradientUnits="userSpaceOnUse">
<stop stop-color="#F4EBE2"/>
<stop offset="1" stop-color="#D0C5B9"/>
</linearGradient>
<linearGradient id="paint10_linear_806_4387" x1="2.79501" y1="43.4618" x2="7.57139" y2="46.7311" gradientUnits="userSpaceOnUse">
<stop stop-color="#978E85"/>
<stop offset="1" stop-color="#D0C5B9"/>
</linearGradient>
<linearGradient id="paint11_linear_806_4387" x1="17.6603" y1="21.5704" x2="33.4197" y2="21.5704" gradientUnits="userSpaceOnUse">
<stop stop-color="#ECE0D4"/>
<stop offset="0.482638" stop-color="#DDD4CB"/>
<stop offset="1" stop-color="#C3B9AF"/>
</linearGradient>
</defs>
</svg>
