<svg width="52" height="53" viewBox="0 0 52 53" fill="none" xmlns="http://www.w3.org/2000/svg">
<path d="M46.7356 0.0292969H4.78247C2.14777 0.0292969 0.0118408 1.82529 0.0118408 4.04077V48.0619C0.0118408 50.2774 2.14777 52.0734 4.78247 52.0734H46.7356C49.3703 52.0734 51.5061 50.2774 51.5061 48.0619V4.04077C51.5061 1.82529 49.3703 0.0292969 46.7356 0.0292969Z" fill="#8F8372"/>
<path d="M51.4819 3.89355H40.2025V38.4573H51.4819V3.89355Z" fill="#D8C3A8"/>
<path fill-rule="evenodd" clip-rule="evenodd" d="M42.3634 6.90866L51.4573 3.93718C51.096 1.08035 49.1281 0.09147 46.3885 0C42.7431 0.10572 39.1858 0.260148 37.2947 1.33716L42.3634 6.90866Z" fill="url(#paint0_linear_806_4404)"/>
<path d="M42.5743 39.0879H9.10498V52.0624H42.5743V39.0879Z" fill="#B4A48F"/>
<path fill-rule="evenodd" clip-rule="evenodd" d="M40.6639 36.041L51.469 37.1967L51.5085 47.7024C51.5029 50.4118 49.3417 51.9685 47.1074 52.0622L42.2977 52.0097L36.9744 39.6655L40.6639 36.041Z" fill="url(#paint1_linear_806_4404)"/>
<path fill-rule="evenodd" clip-rule="evenodd" d="M7.52405 35.9365L0.0395508 37.1972L0 47.7029C0.0056 50.4124 2.16682 51.969 4.40112 52.0628L9.21057 52.0103L10.8973 39.7186L7.52405 35.9365Z" fill="url(#paint2_linear_806_4404)"/>
<path d="M38.7319 1.37598H11.2319C8.59723 1.37598 6.78223 3.25023 6.78223 5.87598V36.1775C6.78223 38.8032 9.09723 41.126 11.7319 41.126H38.5468C41.1815 41.126 43.3173 38.3012 43.3173 35.6754V5.75604C43.3173 3.13029 41.3666 1.37598 38.7319 1.37598Z" fill="#E6D3B9"/>
<path d="M37.526 1.37598H11.9378C9.33879 1.37598 7.23193 3.4387 7.23193 5.9832V35.7688C7.23193 38.3133 9.33879 40.376 11.9378 40.376H37.526C40.125 40.376 42.2319 38.3133 42.2319 35.7688V5.9832C42.2319 3.4387 40.125 1.37598 37.526 1.37598Z" fill="url(#paint3_linear_806_4404)"/>
<path d="M12.4148 26H11.3068L14.5114 17.2727H15.6023L18.8068 26H17.6989L15.0909 18.6534H15.0227L12.4148 26ZM12.8239 22.5909H17.2898V23.5284H12.8239V22.5909ZM26.7788 20H25.7219C25.6594 19.696 25.5501 19.429 25.3938 19.1989C25.2404 18.9688 25.0529 18.7756 24.8313 18.6193C24.6126 18.4602 24.3697 18.3409 24.1026 18.2614C23.8356 18.1818 23.5572 18.142 23.2674 18.142C22.739 18.142 22.2603 18.2756 21.8313 18.5426C21.4052 18.8097 21.0657 19.2031 20.8129 19.723C20.5629 20.2429 20.4379 20.8807 20.4379 21.6364C20.4379 22.392 20.5629 23.0298 20.8129 23.5497C21.0657 24.0696 21.4052 24.4631 21.8313 24.7301C22.2603 24.9972 22.739 25.1307 23.2674 25.1307C23.5572 25.1307 23.8356 25.0909 24.1026 25.0114C24.3697 24.9318 24.6126 24.8139 24.8313 24.6577C25.0529 24.4986 25.2404 24.304 25.3938 24.0739C25.5501 23.8409 25.6594 23.5739 25.7219 23.2727H26.7788C26.6992 23.7187 26.5543 24.1179 26.3441 24.4702C26.1339 24.8224 25.8725 25.1222 25.56 25.3693C25.2475 25.6136 24.8967 25.7997 24.5075 25.9276C24.1211 26.0554 23.7077 26.1193 23.2674 26.1193C22.5231 26.1193 21.8612 25.9375 21.2816 25.5739C20.7021 25.2102 20.2461 24.6932 19.9137 24.0227C19.5813 23.3523 19.4151 22.5568 19.4151 21.6364C19.4151 20.7159 19.5813 19.9205 19.9137 19.25C20.2461 18.5795 20.7021 18.0625 21.2816 17.6989C21.8612 17.3352 22.5231 17.1534 23.2674 17.1534C23.7077 17.1534 24.1211 17.2173 24.5075 17.3452C24.8967 17.473 25.2475 17.6605 25.56 17.9077C25.8725 18.152 26.1339 18.4503 26.3441 18.8026C26.5543 19.152 26.6992 19.5511 26.7788 20Z" fill="#48403F"/>
<defs>
<linearGradient id="paint0_linear_806_4404" x1="43.7434" y1="4.08465" x2="43.115" y2="1.45727" gradientUnits="userSpaceOnUse">
<stop stop-color="#D8C3A8"/>
<stop offset="1" stop-color="#8F8372"/>
</linearGradient>
<linearGradient id="paint1_linear_806_4404" x1="47.5208" y1="43.2892" x2="43.3479" y2="46.5597" gradientUnits="userSpaceOnUse">
<stop stop-color="#D8C3A8"/>
<stop offset="1" stop-color="#B4A48F"/>
</linearGradient>
<linearGradient id="paint2_linear_806_4404" x1="2.79501" y1="42.844" x2="7.56468" y2="46.1159" gradientUnits="userSpaceOnUse">
<stop stop-color="#8F8372"/>
<stop offset="1" stop-color="#B4A48F"/>
</linearGradient>
<linearGradient id="paint3_linear_806_4404" x1="17.8922" y1="20.876" x2="33.6516" y2="20.876" gradientUnits="userSpaceOnUse">
<stop stop-color="#C5B49E"/>
<stop offset="0.472221" stop-color="#B6A792"/>
<stop offset="1" stop-color="#A6947C"/>
</linearGradient>
</defs>
</svg>
